<?xml version="1.0" encoding="UTF-8"?>
<!DOCTYPE svg PUBLIC "-//W3C//DTD SVG 1.1//EN" "http://www.w3.org/Graphics/SVG/1.1/DTD/svg11.dtd">
<svg xmlns="http://www.w3.org/2000/svg" xmlns:xlink="http://www.w3.org/1999/xlink" version="1.1" baseProfile="full" xml:space="preserve" preserveAspectRatio="none slice" width="75" height="7" viewBox="0 0 75.00 7.00" enable-background="new 0 0 75.00 7.00">
	<g>
		<path fill="#FFFFFF" fill-opacity="1" stroke-width="0.2" stroke-linejoin="round" d="M 5.43994,6.16675C 5.43933,6.25061 5.42188,6.31128 5.38782,6.34888C 5.35364,6.38647 5.30701,6.41992 5.24756,6.44934C 5.11865,6.51831 4.96033,6.56506 4.77271,6.58936C 4.58508,6.61353 4.4054,6.62476 4.23376,6.62317C 3.80212,6.62708 3.38733,6.5542 2.98914,6.40454C 2.59094,6.25488 2.20532,6.00549 1.8324,5.65625C 1.64636,5.49182 1.43958,5.19299 1.21216,4.75977C 0.984741,4.32666 0.860718,3.7998 0.839966,3.17932C 0.844604,2.66553 0.931274,2.21985 1.1001,1.84277C 1.26892,1.46558 1.49158,1.17493 1.76843,0.970703C 2.12781,0.716797 2.47375,0.556396 2.80627,0.489502C 3.13892,0.422852 3.44751,0.394043 3.73206,0.40332C 4.33179,0.410889 4.81018,0.483154 5.16711,0.619873C 5.52417,0.756592 5.76111,0.911377 5.87781,1.08423C 5.95105,1.19153 6.00378,1.29944 6.03577,1.40796C 6.06787,1.5166 6.08594,1.60132 6.08997,1.66223C 6.08435,1.74817 6.10681,1.79297 6.15747,1.79639C 6.22864,1.80664 6.26624,1.74475 6.2699,1.6106C 6.27222,1.18286 6.28113,0.882324 6.29663,0.708252C 6.31213,0.534424 6.32104,0.421143 6.32336,0.368408C 6.33276,0.314575 6.29248,0.283691 6.20251,0.276001C 6.07788,0.274536 5.94507,0.262939 5.80408,0.241333C 5.66309,0.219482 5.54236,0.196411 5.44202,0.171875C 5.34033,0.144775 5.15308,0.112061 4.88,0.0734863C 4.60706,0.0349121 4.31604,0.0137939 4.0072,0.0098877C 3.64453,0.00170898 3.24597,0.0354004 2.81152,0.11084C 2.37708,0.186279 1.94666,0.352539 1.52014,0.609497C 1.09729,0.854004 0.741089,1.21899 0.451782,1.70471C 0.162598,2.19043 0.0119629,2.78516 0,3.48889C 0.0098877,4.04297 0.119141,4.54651 0.327759,4.99951C 0.536377,5.45264 0.785034,5.80542 1.07385,6.05823C 1.6134,6.48206 2.16833,6.75159 2.7384,6.86646C 3.30859,6.98145 3.78113,7.03149 4.15601,7.0166C 4.44666,7.0188 4.77588,6.99146 5.14368,6.93457C 5.5116,6.87769 5.84827,6.7771 6.15393,6.6333C 6.20972,6.61084 6.24524,6.57251 6.26025,6.51855C 6.27539,6.46448 6.28186,6.33643 6.27991,6.13428L 6.27991,5.10205C 6.27966,4.9093 6.28015,4.73779 6.28137,4.58716C 6.28235,4.43665 6.28552,4.28955 6.29065,4.14575C 6.29871,3.98462 6.328,3.86426 6.37866,3.78442C 6.42932,3.70483 6.51733,3.65503 6.6427,3.63501C 6.74219,3.61682 6.82043,3.6095 6.95203,3.56653C 6.95557,3.53101 6.90576,3.51538 6.80261,3.51978L 4.7887,3.51978C 4.68555,3.51538 4.63574,3.53101 4.71399,3.61328C 4.76001,3.6134 4.8147,3.61572 4.87805,3.62012C 4.94141,3.62451 4.99341,3.62952 5.03406,3.63501C 5.21912,3.6604 5.33484,3.73206 5.3811,3.84973C 5.42749,3.96741 5.44714,4.20728 5.43994,4.56958L 5.43994,6.16675 Z "/>
		<path fill="#FFFFFF" fill-opacity="1" stroke-width="0.2" stroke-linejoin="round" d="M 9.07654,4.30005C 9.07776,4.74854 9.07544,5.14478 9.06995,5.48877C 9.06433,5.83276 9.04883,6.10168 9.02319,6.29517C 9.00574,6.4314 8.98206,6.54126 8.95251,6.62463C 8.92297,6.70801 8.86475,6.76086 8.77795,6.7832C 8.68188,6.80859 8.58582,6.82288 8.48987,6.82666L 8.41516,6.87317C 8.41699,6.9054 8.46667,6.92102 8.56458,6.91992L 10.6545,6.91992C 10.7577,6.9176 10.8075,6.9021 10.804,6.87317L 10.7292,6.82666C 10.6825,6.82617 10.6185,6.82153 10.5371,6.81299C 10.4557,6.80444 10.381,6.79456 10.3129,6.7832C 10.1732,6.76086 10.079,6.70801 10.03,6.62463C 9.98108,6.54126 9.95081,6.4314 9.93933,6.29517C 9.91882,6.10217 9.90637,5.83508 9.90198,5.49426C 9.89746,5.15332 9.89563,4.75891 9.89661,4.31104L 9.89661,4.09399C 9.89661,4.04211 9.91785,4.01721 9.96057,4.01953L 11.1563,4.03979C 11.2096,4.03625 11.2523,4.05432 11.2843,4.09399C 11.3907,4.22803 11.5358,4.42102 11.7194,4.67285C 11.903,4.9248 12.0959,5.17993 12.2981,5.4386C 12.5552,5.78516 12.7814,6.0708 12.9766,6.29517C 13.1718,6.51978 13.3679,6.68604 13.5653,6.79407C 13.6764,6.83984 13.8062,6.87231 13.9546,6.89172C 14.1031,6.91113 14.3075,6.92041 14.568,6.91992L 15.1547,6.91992C 15.3147,6.92102 15.3894,6.9054 15.3788,6.87317L 15.2933,6.82666C 15.2472,6.83203 15.1368,6.82104 14.9626,6.79407C 14.8478,6.78564 14.7069,6.73999 14.5399,6.65723C 14.3732,6.57422 14.1655,6.40649 13.9174,6.1543C 13.6456,5.86401 13.3478,5.51733 13.0238,5.11389C 12.6998,4.71057 12.3478,4.26733 11.9677,3.7843C 12.3939,3.41528 12.692,3.06262 12.8618,2.72607C 13.0316,2.3894 13.1132,2.05481 13.1066,1.72192C 13.0944,1.40649 13.0165,1.14368 12.8729,0.933228C 12.7294,0.722778 12.5939,0.574341 12.4661,0.487549C 12.2172,0.327393 11.9397,0.222656 11.6337,0.17334C 11.3275,0.124146 11.0225,0.101807 10.7186,0.106567L 8.4259,0.106567C 8.32275,0.104736 8.27295,0.128662 8.3512,0.249634C 8.39722,0.226074 8.4519,0.213623 8.51526,0.212646C 8.57849,0.21167 8.63049,0.214478 8.67126,0.221191C 8.82117,0.241699 8.92126,0.292236 8.97119,0.373291C 9.02124,0.454346 9.04919,0.572388 9.0553,0.727539C 9.06543,0.848145 9.07166,1.03528 9.07385,1.28906C 9.07605,1.54297 9.07703,2.01282 9.07654,2.69897L 9.07654,4.30005 Z M 9.89661,0.572754C 9.90015,0.52124 9.92505,0.48584 9.97131,0.466431C 10.024,0.454834 10.1134,0.443359 10.2395,0.431763C 10.3656,0.42041 10.5004,0.414063 10.6439,0.413208C 11.1505,0.416748 11.5464,0.571899 11.8315,0.878662C 12.1166,1.18555 12.2616,1.62268 12.2666,2.19019C 12.2631,2.53723 12.2087,2.82764 12.1038,3.06152C 11.9988,3.29541 11.8644,3.46606 11.7007,3.57349C 11.5873,3.64551 11.4698,3.69067 11.3485,3.70923C 11.2269,3.72778 11.1095,3.73596 10.9962,3.73315C 10.7795,3.73206 10.5723,3.71838 10.3743,3.69202C 10.1764,3.66565 10.0385,3.6333 9.96057,3.59485C 9.91785,3.56653 9.89661,3.52747 9.89661,3.47778L 9.89661,0.572754 Z "/>
		<path fill="#FFFFFF" fill-opacity="1" stroke-width="0.2" stroke-linejoin="round" d="M 15.4448,5.97632C 15.3593,6.20752 15.2584,6.39612 15.1422,6.54224C 15.0261,6.68848 14.8639,6.776 14.6559,6.8053C 14.6156,6.81079 14.5681,6.81567 14.5132,6.81995C 14.4584,6.82422 14.4135,6.82629 14.3785,6.82666L 14.2933,6.87317C 14.295,6.9054 14.3555,6.92102 14.4745,6.91992L 16.2659,6.91992C 16.3547,6.92102 16.4009,6.9054 16.4044,6.87317L 16.3085,6.82666L 16.2233,6.82666C 16.1399,6.82764 16.0665,6.80957 16.0033,6.77209C 15.9399,6.73462 15.9066,6.67139 15.9033,6.58215C 15.9069,6.41211 15.953,6.21008 16.0419,5.97632L 16.5751,4.53088C 16.5963,4.47949 16.6283,4.45471 16.671,4.45654L 18.8356,4.45654L 18.9208,4.50952L 19.7631,6.58215C 19.7909,6.65601 19.7914,6.71265 19.6779,6.82666L 19.6139,6.86646L 19.7112,6.89661C 19.7736,6.90063 19.8513,6.90405 19.9445,6.90649C 20.2821,6.91284 20.593,6.91675 20.8773,6.91821C 21.1617,6.91956 21.3447,6.92017 21.4264,6.91992C 21.4821,6.92004 21.5309,6.9165 21.5731,6.90894L 21.64,6.87317L 21.5225,6.82666C 21.4193,6.83008 21.295,6.8125 21.1493,6.77344C 21.0486,6.75488 20.9327,6.68311 20.8014,6.55823C 20.67,6.43323 20.5195,6.17554 20.3495,5.78491C 20.0145,4.98022 19.589,3.94592 19.0728,2.68188C 18.5565,1.41797 18.2322,0.632324 18.0997,0.325317C 18.0544,0.224609 18.0172,0.145264 17.9878,0.0878906C 17.9585,0.0302734 17.9213,0.000976563 17.8759,0L 17.7839,0.0627441C 17.7526,0.108887 17.7086,0.203247 17.652,0.346313L 15.4448,5.97632 Z M 16.799,4.06323L 16.767,4.00024L 17.6412,1.55383C 17.6946,1.41724 17.7479,1.41724 17.8013,1.55383L 18.7289,4.00024L 18.6969,4.06323L 16.799,4.06323 Z "/>
		<path fill="#FFFFFF" fill-opacity="1" stroke-width="0.2" stroke-linejoin="round" d="M 23.1879,1.40686C 23.3448,1.58447 23.6461,1.91357 24.0916,2.39417C 24.537,2.87463 25.0358,3.41125 25.5879,4.00354C 26.1108,4.55872 26.6232,5.09155 27.1251,5.60229C 27.627,6.11292 27.9183,6.40601 27.999,6.48169C 28.25,6.71216 28.4215,6.8623 28.5137,6.93225C 28.6058,7.00208 28.6714,7.03345 28.7106,7.02649L 28.7719,6.92749C 28.7817,6.85132 28.7861,6.67041 28.7853,6.38477L 28.8065,1.01904C 28.801,0.749268 28.8175,0.555908 28.856,0.438477C 28.8944,0.321045 28.9882,0.248779 29.1373,0.22168C 29.244,0.203613 29.3186,0.196289 29.3613,0.199829L 29.4679,0.146606C 29.4591,0.116455 29.4022,0.103149 29.2972,0.106567L 27.5253,0.106567C 27.413,0.103149 27.3531,0.116455 27.3462,0.146606L 27.4199,0.199829C 27.4606,0.199707 27.524,0.202881 27.6107,0.209473C 27.6974,0.215942 27.7847,0.227173 27.8727,0.243164C 28.0109,0.265259 28.1029,0.3396 28.149,0.466797C 28.1951,0.593872 28.2189,0.802979 28.2201,1.09436L 28.3159,5.68433C 28.1571,5.51477 27.8707,5.20483 27.4569,4.75513C 27.0431,4.3053 26.599,3.82837 26.1249,3.32483C 25.3856,2.57275 24.7372,1.9021 24.1797,1.31311C 23.6222,0.724121 23.295,0.378662 23.1984,0.2771C 23.1492,0.223755 23.0914,0.165527 23.0254,0.102661C 22.9594,0.0396729 22.899,0.00549316 22.8447,0L 22.755,0.0932617C 22.7323,0.158936 22.7206,0.280762 22.7198,0.45813L 22.7198,5.64453C 22.7235,6.04614 22.7084,6.32886 22.6746,6.49243C 22.6407,6.65588 22.567,6.74963 22.4532,6.77319C 22.3812,6.79419 22.3092,6.80835 22.2372,6.81592C 22.1652,6.82349 22.1093,6.8269 22.0692,6.82666L 21.9945,6.87317C 21.9963,6.90881 22.046,6.92432 22.1439,6.91992L 24.019,6.91992C 24.1278,6.92102 24.184,6.9054 24.1875,6.87317L 24.1139,6.82666C 24.0682,6.8269 24.0016,6.82349 23.9137,6.81592C 23.826,6.80835 23.7383,6.79419 23.6505,6.77319C 23.5264,6.74878 23.4377,6.66187 23.3846,6.51233C 23.3317,6.36292 23.3009,6.10547 23.2926,5.74036L 23.1879,1.40686 Z "/>
		<path fill="#FFFFFF" fill-opacity="1" stroke-width="0.2" stroke-linejoin="round" d="M 31.5199,4.33472C 31.521,4.7749 31.5188,5.16479 31.5133,5.50439C 31.5077,5.84387 31.4921,6.1095 31.4666,6.30103C 31.4491,6.43579 31.4254,6.54443 31.3959,6.62671C 31.3663,6.70923 31.3081,6.76147 31.2212,6.78369C 31.1252,6.80872 31.0292,6.823 30.9332,6.82666L 30.8585,6.87317C 30.8604,6.9054 30.91,6.92102 31.0079,6.91992C 31.0848,6.91968 31.1737,6.91846 31.2745,6.91565C 31.3752,6.91309 31.4746,6.90991 31.5724,6.90649C 31.6696,6.9176 31.7535,6.92285 31.8243,6.92212C 31.8953,6.92163 31.9373,6.9209 31.9504,6.91992C 31.9752,6.92004 32.0568,6.92493 32.1952,6.93457C 32.3334,6.94409 32.5055,6.95703 32.7113,6.97327C 32.9176,6.98608 33.1359,6.99817 33.3661,7.00903C 33.5963,7.02002 33.8147,7.02588 34.021,7.02649C 34.8129,7.01038 35.4358,6.89355 35.8896,6.67578C 36.3435,6.45813 36.6683,6.23645 36.8639,6.01086C 37.1158,5.74072 37.3326,5.38928 37.5144,4.95654C 37.6962,4.52393 37.7914,4.01929 37.7999,3.44299C 37.7917,2.90112 37.7054,2.43774 37.5411,2.05298C 37.3766,1.66821 37.183,1.35803 36.9598,1.12231C 36.3773,0.598267 35.7295,0.29126 35.0165,0.201416C 34.3036,0.111816 33.6984,0.0800781 33.201,0.106567L 30.8693,0.106567C 30.7661,0.10498 30.7163,0.128052 30.7946,0.245117C 30.8406,0.223633 30.8951,0.212646 30.9586,0.212402C 31.0219,0.212036 31.0739,0.215088 31.1146,0.221802C 31.2645,0.242188 31.3646,0.293091 31.4146,0.374146C 31.4646,0.455322 31.4926,0.57373 31.4987,0.729126C 31.5088,0.849854 31.515,1.03735 31.5172,1.29175C 31.5194,1.54602 31.5204,2.01685 31.5199,2.70435L 31.5199,4.33472 Z M 32.36,0.6604C 32.3563,0.562012 32.3954,0.500977 32.4771,0.477661C 32.5265,0.460938 32.6085,0.446045 32.7233,0.43335C 32.838,0.420654 32.944,0.413818 33.0414,0.413208C 33.6017,0.399414 34.1368,0.456665 34.6466,0.585083C 35.1563,0.713623 35.6328,0.996582 36.076,1.43384C 36.2805,1.62598 36.4757,1.91077 36.6617,2.28809C 36.8477,2.66553 36.947,3.14355 36.9598,3.72229C 36.9598,4.15051 36.8987,4.5592 36.7761,4.94849C 36.6537,5.33765 36.47,5.65247 36.2251,5.89258C 35.6429,6.43701 34.9119,6.71265 34.0316,6.71985C 33.4896,6.71545 33.1068,6.67603 32.8829,6.60168C 32.6592,6.52747 32.5238,6.44495 32.4771,6.35461C 32.4407,6.29907 32.4149,6.20605 32.3998,6.07532C 32.3848,5.94458 32.375,5.81909 32.3705,5.69922C 32.3655,5.60168 32.3624,5.36975 32.3612,5.00354C 32.3601,4.63733 32.3597,4.20667 32.36,3.71155L 32.36,0.6604 Z "/>
		<path fill="#FFFFFF" fill-opacity="1" stroke-width="0.2" stroke-linejoin="round" d="M 43.5773,4.29065C 43.5782,4.74072 43.576,5.13843 43.5706,5.48364C 43.5651,5.8291 43.5494,6.09888 43.5238,6.29321C 43.5063,6.42993 43.4828,6.54016 43.4532,6.62378C 43.4237,6.70752 43.3654,6.7605 43.2786,6.78296C 43.1825,6.80835 43.0865,6.82288 42.9905,6.82666L 42.9159,6.87317C 42.9176,6.9054 42.9674,6.92102 43.0652,6.91992L 45.192,6.91992C 45.2987,6.9176 45.3501,6.9021 45.3464,6.87317L 45.2693,6.82666C 45.2211,6.82617 45.1549,6.82153 45.0708,6.81299C 44.9867,6.80432 44.9095,6.79443 44.8392,6.78296C 44.6949,6.7605 44.5977,6.70752 44.5471,6.62378C 44.4966,6.54016 44.4653,6.42993 44.4534,6.29321C 44.4323,6.09888 44.4193,5.8291 44.4148,5.48389C 44.4102,5.13843 44.4083,4.74072 44.4093,4.29065L 44.4093,0.639893C 44.4075,0.542114 44.4332,0.486084 44.4865,0.472168C 44.542,0.460205 44.6238,0.447266 44.7318,0.432739C 44.8397,0.418457 44.938,0.410645 45.0267,0.409302C 45.1461,0.396973 45.329,0.408203 45.5752,0.442993C 45.8214,0.477783 46.0759,0.609985 46.3387,0.839355C 46.5884,1.0885 46.745,1.33789 46.8086,1.58704C 46.8722,1.83618 46.8993,2.03821 46.8899,2.19299C 46.8805,2.60645 46.7119,2.9469 46.3842,3.21484C 46.0564,3.48254 45.626,3.62122 45.0929,3.63049C 44.9091,3.62524 44.8246,3.65723 44.8392,3.72656C 44.8502,3.77637 44.8834,3.80481 44.9385,3.81201C 44.9706,3.81702 45.0166,3.82007 45.0763,3.82129C 45.136,3.82239 45.182,3.82275 45.2141,3.82251C 45.9694,3.81372 46.5713,3.61816 47.0201,3.23596C 47.469,2.85376 47.699,2.33838 47.7098,1.68921C 47.7035,1.42358 47.6508,1.19409 47.5514,1.00073C 47.452,0.807251 47.3446,0.661621 47.2289,0.563477C 47.1578,0.483643 46.9849,0.390137 46.7098,0.282837C 46.4348,0.175781 45.9913,0.116943 45.3795,0.106567L 42.9265,0.106567C 42.8234,0.105469 42.7736,0.121094 42.8518,0.199829C 42.8978,0.200195 42.9525,0.202393 43.0159,0.206665C 43.0792,0.210938 43.1312,0.215942 43.1719,0.221436C 43.3219,0.241699 43.4219,0.291992 43.4718,0.372314C 43.5219,0.452759 43.5499,0.569946 43.5559,0.723755C 43.566,0.843262 43.5724,1.02893 43.5746,1.28076C 43.5768,1.53247 43.5776,1.99878 43.5773,2.67944L 43.5773,4.29065 Z "/>
		<path fill="#FFFFFF" fill-opacity="1" stroke-width="0.2" stroke-linejoin="round" d="M 50.5466,2.69983C 50.5464,2.01367 50.5468,1.54358 50.548,1.28967C 50.5491,1.03577 50.5521,0.848633 50.5573,0.728027C 50.5643,0.56897 50.5902,0.450806 50.6346,0.373779C 50.6791,0.296875 50.7635,0.246094 50.8879,0.22168C 50.9875,0.203613 51.0658,0.196289 51.1974,0.15332C 51.2008,0.121094 51.1511,0.105469 51.048,0.106567L 49.1732,0.106567C 49.0702,0.105469 49.0204,0.121094 49.0239,0.15332L 49.0985,0.199829C 49.1732,0.199951 49.2692,0.210693 49.3866,0.232422C 49.5768,0.262939 49.6764,0.428223 49.6853,0.728027C 49.6954,0.848633 49.7018,1.03577 49.704,1.28967C 49.7062,1.54358 49.707,2.01367 49.7067,2.69983L 49.7067,4.31604C 49.707,4.76172 49.7035,5.1554 49.6959,5.49719C 49.6884,5.83911 49.6742,6.1062 49.6532,6.29858C 49.6404,6.43384 49.6182,6.54309 49.5865,6.62598C 49.5551,6.70874 49.4955,6.76123 49.4078,6.78345C 49.3119,6.80859 49.2159,6.823 49.1199,6.82666L 49.0453,6.87317C 49.047,6.9054 49.0968,6.92102 49.1946,6.91992L 51.2826,6.91992C 51.3857,6.9176 51.4355,6.9021 51.432,6.87317L 51.3573,6.82666C 51.3109,6.82617 51.2465,6.82153 51.1639,6.81311C 51.0815,6.80444 51.0038,6.79468 50.9307,6.78345C 50.797,6.76123 50.7095,6.70874 50.668,6.62598C 50.6263,6.54309 50.6002,6.43384 50.5892,6.29858C 50.5688,6.1062 50.5564,5.83911 50.5519,5.49719C 50.5475,5.1554 50.5458,4.76172 50.5466,4.31604L 50.5466,2.69983 Z "/>
		<path fill="#FFFFFF" fill-opacity="1" stroke-width="0.2" stroke-linejoin="round" d="M 52.9915,5.97632C 52.9059,6.20752 52.8051,6.39612 52.6888,6.54224C 52.5728,6.68848 52.4105,6.776 52.2025,6.8053C 52.1622,6.81079 52.1147,6.81567 52.0598,6.81995C 52.005,6.82422 51.9601,6.82629 51.9252,6.82666L 51.84,6.87317C 51.8417,6.9054 51.9021,6.92102 52.0211,6.91992L 53.8125,6.91992C 53.9014,6.92102 53.9475,6.9054 53.951,6.87317L 53.8551,6.82666L 53.7699,6.82666C 53.6865,6.82764 53.6132,6.80957 53.5499,6.77209C 53.4866,6.73462 53.4532,6.67139 53.45,6.58215C 53.4535,6.41211 53.4996,6.21008 53.5885,5.97632L 54.1217,4.53088C 54.1429,4.47949 54.1749,4.45471 54.2177,4.45654L 56.3822,4.45654L 56.4674,4.50952L 57.3097,6.58215C 57.3375,6.65601 57.338,6.71265 57.2245,6.82666L 57.1605,6.86646L 57.2578,6.89661C 57.3202,6.90063 57.3979,6.90405 57.4911,6.90649C 57.8287,6.91284 58.1396,6.91675 58.424,6.91821C 58.7084,6.91956 58.8914,6.92017 58.973,6.91992C 59.0287,6.92004 59.0775,6.9165 59.1198,6.90894L 59.1866,6.87317L 59.0691,6.82666C 58.9659,6.83008 58.8417,6.8125 58.6959,6.77344C 58.5952,6.75488 58.4794,6.68311 58.348,6.55823C 58.2167,6.43323 58.0662,6.17554 57.8961,5.78491C 57.5612,4.98022 57.1356,3.94592 56.6194,2.68188C 56.1031,1.41797 55.7788,0.632324 55.6464,0.325317C 55.6011,0.224609 55.5638,0.145264 55.5344,0.0878906C 55.5051,0.0302734 55.4679,0.000976563 55.4225,0L 55.3306,0.0627441C 55.2992,0.108887 55.2552,0.203247 55.1986,0.346313L 52.9915,5.97632 Z M 54.3456,4.06323L 54.3136,4.00024L 55.1879,1.55383C 55.2412,1.41724 55.2946,1.41724 55.3479,1.55383L 56.2755,4.00024L 56.2435,4.06323L 54.3456,4.06323 Z "/>
		<path fill="#FFFFFF" fill-opacity="1" stroke-width="0.2" stroke-linejoin="round" d="M 60.7346,1.40686C 60.8916,1.58447 61.1927,1.91357 61.6383,2.39417C 62.0836,2.87463 62.5824,3.41125 63.1346,4.00354C 63.6576,4.55872 64.1699,5.09155 64.6718,5.60229C 65.1737,6.11292 65.465,6.40601 65.5458,6.48169C 65.7968,6.71216 65.9683,6.8623 66.0604,6.93225C 66.1525,7.00208 66.2181,7.03345 66.2573,7.02649L 66.3186,6.92749C 66.3285,6.85132 66.3329,6.67041 66.3319,6.38477L 66.3533,1.01904C 66.3478,0.749268 66.3641,0.555908 66.4027,0.438477C 66.441,0.321045 66.5349,0.248779 66.684,0.22168C 66.7906,0.203613 66.8654,0.196289 66.9081,0.199829L 67.0146,0.146606C 67.0057,0.116455 66.9489,0.103149 66.844,0.106567L 65.0719,0.106567C 64.9596,0.103149 64.8999,0.116455 64.8929,0.146606L 64.9667,0.199829C 65.0072,0.199707 65.0708,0.202881 65.1575,0.209473C 65.2441,0.215942 65.3314,0.227173 65.4193,0.243164C 65.5575,0.265259 65.6497,0.3396 65.6957,0.466797C 65.7418,0.593872 65.7655,0.802979 65.7668,1.09436L 65.8627,5.68433C 65.7037,5.51477 65.4174,5.20483 65.0035,4.75513C 64.5897,4.3053 64.1458,3.82837 63.6715,3.32483C 62.9323,2.57275 62.2839,1.9021 61.7264,1.31311C 61.1688,0.724121 60.8417,0.378662 60.745,0.2771C 60.6959,0.223755 60.6382,0.165527 60.5721,0.102661C 60.506,0.0396729 60.4458,0.00549316 60.3915,0L 60.3018,0.0932617C 60.2789,0.158936 60.2672,0.280762 60.2666,0.45813L 60.2666,5.64453C 60.2701,6.04614 60.255,6.32886 60.2213,6.49243C 60.1875,6.65588 60.1136,6.74963 59.9999,6.77319C 59.9279,6.79419 59.856,6.80835 59.7839,6.81592C 59.7119,6.82349 59.6559,6.8269 59.6158,6.82666L 59.5413,6.87317C 59.5431,6.90881 59.5928,6.92432 59.6906,6.91992L 61.5658,6.91992C 61.6746,6.92102 61.7307,6.9054 61.7343,6.87317L 61.6605,6.82666C 61.6149,6.8269 61.5482,6.82349 61.4604,6.81592C 61.3727,6.80835 61.285,6.79419 61.1973,6.77319C 61.0731,6.74878 60.9845,6.66187 60.9314,6.51233C 60.8783,6.36292 60.8475,6.10547 60.8392,5.74036L 60.7346,1.40686 Z "/>
		<path fill="#FFFFFF" fill-opacity="1" stroke-width="0.2" stroke-linejoin="round" d="M 67.9999,3.47021C 67.9916,4.32385 68.2766,5.11646 68.8551,5.84839C 69.4333,6.5802 70.3551,6.96973 71.6202,7.0166C 72.7557,6.98828 73.6569,6.62476 74.3235,5.92627C 74.9904,5.22754 75.3313,4.36304 75.3466,3.33313C 75.3243,2.28076 74.9735,1.46411 74.2946,0.883545C 73.6155,0.302856 72.7416,0.00830078 71.6731,0C 70.3966,0.0541992 69.4633,0.451904 68.8734,1.19336C 68.2836,1.93457 67.9924,2.69348 67.9999,3.47021 Z M 68.9465,3.22766C 68.9608,2.25244 69.2123,1.52173 69.7008,1.03564C 70.1893,0.549316 70.8292,0.306274 71.6202,0.306641C 72.3788,0.308716 73.0256,0.586426 73.5609,1.13965C 74.0963,1.69287 74.3759,2.50842 74.3998,3.58618C 74.3473,4.84766 74.0323,5.67822 73.4553,6.07739C 72.8782,6.47681 72.3546,6.65881 71.8845,6.62317C 71.027,6.6123 70.3273,6.30725 69.7854,5.7085C 69.2435,5.1095 68.964,4.28271 68.9465,3.22766 Z "/>
	</g>
</svg>