<?xml version="1.0" encoding="UTF-8"?>
<!DOCTYPE svg PUBLIC "-//W3C//DTD SVG 1.1//EN" "http://www.w3.org/Graphics/SVG/1.1/DTD/svg11.dtd">
<svg xmlns="http://www.w3.org/2000/svg" xmlns:xlink="http://www.w3.org/1999/xlink" version="1.1" baseProfile="full" width="400.001" height="78.0006" viewBox="0 0 400.00 78.00" enable-background="new 0 0 400.00 78.00" xml:space="preserve" preserveAspectRatio="none slice">
	<path fill="#575757" fill-opacity="1" stroke-width="0.2" stroke-linejoin="round" d="M 3.00024,1.7937L 395.726,1.7937C 397.382,1.7937 398.726,3.13721 398.726,4.79443L 398.726,75.0007C 398.726,76.6572 397.382,78.0007 395.726,78.0007L 3.00024,78.0007C 1.34412,78.0007 0.000244141,76.6572 0.000244141,75.0007L 0.000244141,4.79443C 0.000244141,3.13721 1.34412,1.7937 3.00024,1.7937 Z "/>
	<path fill="#1B1A18" fill-opacity="1" stroke-width="0.2" stroke-linejoin="round" d="M 3.71094,0L 397.002,0C 398.657,0 400.001,1.34277 400.001,3.00049L 400.001,74.0278C 400.001,75.6846 398.657,77.0283 397.002,77.0283L 3.71094,77.0283C 2.05408,77.0283 0.711487,75.6846 0.711487,74.0278L 0.711487,3.00049C 0.711487,1.34277 2.05408,0 3.71094,0 Z "/>
	<path fill="#262626" fill-opacity="1" stroke-width="0.2" stroke-linejoin="round" d="M 5.0152,1.54492L 395.281,1.54492C 396.936,1.54492 398.28,2.88794 398.28,4.54443L 398.28,36.7725C 398.28,38.4294 396.936,39.7725 395.281,39.7725L 5.0152,39.7725C 3.3595,39.7725 2.01575,38.4294 2.01575,36.7725L 2.01575,4.54443C 2.01575,2.88794 3.3595,1.54492 5.0152,1.54492 Z "/>
	<path fill="#151515" fill-opacity="1" stroke-width="0.2" stroke-linejoin="round" d="M 4.505,40.3247L 394.792,40.3247C 396.449,40.3247 397.793,41.668 397.793,43.3247L 397.793,71.4963C 397.793,73.1533 396.449,74.4963 394.792,74.4963L 4.505,74.4963C 2.84772,74.4963 1.50397,73.1533 1.50397,71.4963L 1.50397,43.3247C 1.50397,41.668 2.84772,40.3247 4.505,40.3247 Z "/>
</svg>