<?xml version="1.0" encoding="UTF-8"?>
<!DOCTYPE svg PUBLIC "-//W3C//DTD SVG 1.1//EN" "http://www.w3.org/Graphics/SVG/1.1/DTD/svg11.dtd">
<svg xmlns="http://www.w3.org/2000/svg" xmlns:xlink="http://www.w3.org/1999/xlink" version="1.1" baseProfile="full" width="28" height="28" viewBox="0 0 28.00 28.00" enable-background="new 0 0 28.00 28.00" xml:space="preserve" preserveAspectRatio="none slice">
	<path fill="#D9D9D9" fill-opacity="1" stroke-width="0.700002" stroke-linejoin="round" stroke="#474747" stroke-opacity="1" d="M 4.17151,17.7654C 4.17188,17.7654 0.134399,12.7532 3.53394,7.66699C 3.53381,7.66699 5.76514,4.75366 11.449,5.05005L 17.4518,5.05005L 17.7174,1.24756L 24.464,6.82764L 17.8237,12.1113L 17.5581,8.7041L 9.90845,8.65466C 9.9082,8.65466 5.49951,9.39539 6.29614,12.6545C 6.29614,12.6545 6.08374,14.2346 8.52734,16.1111L 4.17151,17.7654 Z "/>
	<path fill="#D9D9D9" fill-opacity="1" stroke-width="0.700002" stroke-linejoin="round" stroke="#474747" stroke-opacity="1" d="M 19.4934,11.9784L 23.8267,10.2754C 23.8267,10.2754 27.8638,15.2875 24.4641,20.3735C 24.4644,20.3735 22.233,23.2871 16.5491,22.9907L 10.5464,22.9907L 10.2808,26.793L 3.53418,21.2131L 10.1744,15.9294L 10.4401,19.3367L 18.0896,19.386C 18.0898,19.386 22.4985,18.6454 21.7019,15.3862C 21.7019,15.3862 21.9138,13.8059 19.4934,11.9784 Z "/>
</svg>