<?xml version="1.0" encoding="UTF-8"?>
<!DOCTYPE svg PUBLIC "-//W3C//DTD SVG 1.1//EN" "http://www.w3.org/Graphics/SVG/1.1/DTD/svg11.dtd">
<svg xmlns="http://www.w3.org/2000/svg" xmlns:xlink="http://www.w3.org/1999/xlink" version="1.1" baseProfile="full" xml:space="preserve" preserveAspectRatio="none slice" width="38" height="7" viewBox="0 0 38.00 7.00" enable-background="new 0 0 38.00 7.00">
	<g>
		<path fill="#FFFFFF" fill-opacity="1" stroke-width="0.2" stroke-linejoin="round" d="M 0.800049,4.30005C 0.801147,4.74841 0.798889,5.14478 0.793335,5.48865C 0.787842,5.83276 0.772278,6.10168 0.746643,6.29517C 0.729126,6.4314 0.705566,6.54126 0.676025,6.62463C 0.646484,6.70789 0.588196,6.76086 0.501343,6.78308C 0.405334,6.80847 0.309326,6.82288 0.213257,6.82654L 0.138672,6.87317C 0.140442,6.9054 0.190186,6.92102 0.287964,6.9198L 2.37799,6.9198C 2.4812,6.9176 2.53101,6.9021 2.5274,6.87317L 2.4527,6.82654C 2.40601,6.82605 2.34192,6.82153 2.26056,6.81287C 2.1792,6.80444 2.10437,6.79456 2.03638,6.78308C 1.89673,6.76086 1.80237,6.70789 1.75348,6.62463C 1.70459,6.54126 1.67432,6.4314 1.66272,6.29517C 1.64221,6.10217 1.62976,5.83508 1.62537,5.49426C 1.62091,5.1532 1.61914,4.75891 1.62,4.31091L 1.62,4.09399C 1.62,4.04211 1.64136,4.01721 1.68408,4.01941L 2.8797,4.03979C 2.93311,4.03625 2.97583,4.05432 3.00781,4.09399C 3.11414,4.22791 3.25916,4.42102 3.44275,4.67273C 3.62646,4.92468 3.8194,5.17993 4.02155,5.4386C 4.27863,5.78503 4.50476,6.07068 4.70001,6.29517C 4.89514,6.51978 5.09137,6.68591 5.2887,6.79407C 5.39978,6.83972 5.5296,6.87231 5.67804,6.89172C 5.82654,6.91101 6.03101,6.92029 6.29138,6.9198L 6.87817,6.9198C 7.03815,6.92102 7.11285,6.9054 7.10217,6.87317L 7.01685,6.82654C 6.97058,6.83191 6.86035,6.82104 6.6861,6.79407C 6.57129,6.78552 6.4303,6.73999 6.26343,6.6571C 6.09656,6.5741 5.88898,6.40649 5.64075,6.15417C 5.36902,5.86401 5.07117,5.51733 4.74719,5.11389C 4.42322,4.71057 4.07117,4.26733 3.69104,3.7843C 4.11731,3.41528 4.41541,3.06262 4.58527,2.72595C 4.75513,2.3894 4.83667,2.05481 4.83008,1.72192C 4.81775,1.40649 4.73987,1.14368 4.59644,0.933228C 4.45288,0.722778 4.31726,0.574341 4.18951,0.487549C 3.94067,0.327393 3.66315,0.222534 3.35706,0.173218C 3.0509,0.124146 2.74591,0.101807 2.44202,0.106567L 0.149292,0.106567C 0.0462036,0.104736 -0.00360107,0.128662 0.074585,0.249634C 0.120667,0.225952 0.175354,0.213623 0.238647,0.212646C 0.302002,0.21167 0.354004,0.214478 0.394653,0.221069C 0.544678,0.241577 0.644653,0.292236 0.694641,0.373291C 0.74469,0.454346 0.772705,0.572388 0.778687,0.727417C 0.788879,0.848022 0.795166,1.03528 0.797363,1.28894C 0.799561,1.54285 0.800415,2.01282 0.800049,2.69897L 0.800049,4.30005 Z M 1.62,0.572632C 1.6236,0.52124 1.6485,0.485718 1.6947,0.466187C 1.74744,0.454834 1.83691,0.443237 1.96295,0.431763C 2.08911,0.420288 2.22388,0.414185 2.36731,0.413208C 2.8739,0.416748 3.26984,0.571899 3.55499,0.878662C 3.84009,1.18542 3.98511,1.62268 3.99005,2.19019C 3.98645,2.53723 3.93219,2.82751 3.82721,3.0614C 3.72223,3.29529 3.58789,3.46606 3.42413,3.57349C 3.31079,3.64539 3.19336,3.69067 3.0719,3.70923C 2.95044,3.72778 2.83301,3.73596 2.7196,3.73315C 2.50299,3.73206 2.29572,3.71838 2.09772,3.69202C 1.89978,3.66565 1.76196,3.63318 1.68408,3.59485C 1.64136,3.56653 1.62,3.52747 1.62,3.47778L 1.62,0.572632 Z "/>
		<path fill="#FFFFFF" fill-opacity="1" stroke-width="0.2" stroke-linejoin="round" d="M 8.04333,4.32678C 8.04443,4.78052 8.04224,5.18042 8.03668,5.52649C 8.03107,5.87268 8.0155,6.1427 7.98999,6.33679C 7.97247,6.47424 7.94885,6.58569 7.91931,6.67151C 7.88977,6.75708 7.83154,6.80884 7.74463,6.82654C 7.64868,6.81042 7.55261,6.81042 7.4566,6.82654L 7.38196,6.87317C 7.38379,6.9635 7.43347,7.00403 7.53131,6.99475C 7.69678,6.99292 7.87793,6.9856 8.07483,6.97278C 8.17737,6.94751 8.26624,6.93201 8.34131,6.92651C 8.41632,6.92102 8.46051,6.9187 8.47388,6.9198C 8.60132,6.91626 8.86084,6.92346 9.25226,6.94116C 9.64288,6.99304 10.1964,7.01819 10.9125,7.01648C 11.0623,7.02161 11.1704,7.01147 11.2369,6.98645C 11.3036,6.96155 11.3511,6.89136 11.3794,6.77612C 11.408,6.65747 11.436,6.49341 11.4634,6.28381C 11.4907,6.07434 11.5054,5.94299 11.4434,5.7229C 11.3953,5.72473 11.3633,5.78052 11.3474,5.89001C 11.3209,6.07019 11.2752,6.20862 11.2105,6.30505C 11.1458,6.40173 11.0612,6.47534 10.9567,6.52612C 10.8333,6.57263 10.6803,6.60095 10.4976,6.61108C 10.3148,6.62122 10.1566,6.62524 10.0227,6.62317C 9.56354,6.6311 9.25836,6.58569 9.10718,6.48706C 8.95587,6.38843 8.88135,6.18958 8.88336,5.89001C 8.87872,5.76428 8.87744,5.5199 8.87939,5.15698C 8.88135,4.79407 8.88269,4.51721 8.88336,4.32678L 8.88336,3.56128L 8.94849,3.49646C 9.06354,3.49634 9.29181,3.49939 9.63342,3.50598C 9.97498,3.51257 10.2278,3.5238 10.3917,3.53979C 10.5714,3.56226 10.6948,3.59802 10.762,3.64758C 10.8291,3.69702 10.8685,3.75452 10.8799,3.82007C 10.9161,3.93689 10.9305,4.03748 10.9233,4.12195L 11.0167,4.03577C 11.0172,3.99426 11.0215,3.91003 11.03,3.78308C 11.0385,3.65637 11.0482,3.54138 11.0593,3.43872C 11.0948,3.12854 11.1198,2.95422 11.134,2.91577L 11.0807,2.8429L 10.97,2.9574C 10.9041,3.03552 10.7583,3.07703 10.5327,3.08228C 10.3788,3.09241 10.1007,3.09839 9.69855,3.10046C 9.29639,3.10278 9.04272,3.10364 8.93756,3.10315C 8.8924,3.10315 8.87433,3.0719 8.88336,3.00952L 8.88336,0.603638L 8.93756,0.509888C 9.03229,0.509888 9.25519,0.512451 9.60626,0.5177C 9.9574,0.522827 10.1938,0.53064 10.3157,0.541138C 10.5684,0.570557 10.7375,0.605225 10.8231,0.645264C 10.9088,0.685181 10.9578,0.740601 10.97,0.81189C 10.983,0.866577 10.9919,0.92395 10.9966,0.983643C 11.0013,1.04358 11.0037,1.09045 11.0033,1.12427C 10.9989,1.19897 11.0211,1.23718 11.0699,1.23889C 11.1145,1.22839 11.1429,1.19714 11.1553,1.14514C 11.1663,1.05994 11.1764,0.946411 11.186,0.804443C 11.1956,0.66272 11.2031,0.564331 11.2086,0.509888C 11.2442,0.272583 11.2691,0.130737 11.2833,0.0847168L 11.2407,-0.00012207C 11.198,0.00866699 11.1553,0.0228271 11.1127,0.0422363C 11.043,0.0773926 10.9183,0.102295 10.7389,0.116455C 10.5535,0.12146 10.1567,0.122925 9.54858,0.12085C 8.94049,0.118774 8.58215,0.11731 8.47388,0.116455C 8.43243,0.115601 8.29907,0.112061 8.07355,0.105835C 7.84802,0.0997314 7.62109,0.0960693 7.39264,0.0950928C 7.28955,0.0926514 7.23975,0.119019 7.24329,0.174438L 7.31793,0.255249C 7.36401,0.228882 7.41858,0.215088 7.48199,0.213623C 7.54529,0.212036 7.59729,0.2146 7.638,0.221436C 7.78796,0.241821 7.888,0.292236 7.93799,0.372803C 7.98804,0.453369 8.01599,0.570679 8.02203,0.724854C 8.03223,0.844849 8.03845,1.03088 8.04065,1.28333C 8.04285,1.53577 8.04376,2.00317 8.04333,2.6853L 8.04333,4.32678 Z "/>
		<path fill="#FFFFFF" fill-opacity="1" stroke-width="0.2" stroke-linejoin="round" d="M 14.4364,1.15942C 14.2822,0.784424 14.1971,0.53186 14.1812,0.4021C 14.1688,0.338135 14.2042,0.28479 14.2876,0.242065C 14.3904,0.212036 14.5038,0.197998 14.6278,0.199829L 14.7235,0.146606C 14.7235,0.119873 14.6385,0.106567 14.4683,0.106567L 12.5012,0.106567C 12.3453,0.103149 12.2637,0.116455 12.2567,0.146606L 12.3311,0.199829C 12.3601,0.199097 12.4083,0.200439 12.476,0.203857C 12.5435,0.207153 12.6157,0.216187 12.6926,0.231323C 12.8412,0.260498 12.9613,0.31958 13.0528,0.408813C 13.1443,0.497925 13.2405,0.666382 13.3412,0.914185L 15.638,6.4718C 15.725,6.68628 15.7928,6.83337 15.8414,6.91321C 15.8899,6.99292 15.939,7.03064 15.9888,7.02649C 16.0316,7.0321 16.079,6.98621 16.1311,6.88928C 16.1832,6.79211 16.2704,6.61023 16.3929,6.34387C 16.5001,6.11584 16.6552,5.76636 16.8582,5.29578C 17.061,4.82507 17.3065,4.25708 17.5945,3.59167C 17.8406,3.02014 18.0608,2.50452 18.255,2.0448C 18.4493,1.58533 18.5765,1.28308 18.6365,1.13806C 18.7572,0.838135 18.8587,0.63269 18.9409,0.522095C 19.0231,0.411377 19.0953,0.339478 19.1575,0.30603C 19.2466,0.255127 19.3343,0.224243 19.4207,0.213135C 19.5071,0.202026 19.5682,0.197632 19.6041,0.199829L 19.71,0.146606C 19.7084,0.119873 19.6589,0.106567 19.5616,0.106567L 17.9135,0.106567C 17.7681,0.105347 17.6973,0.120972 17.7008,0.153198L 17.8071,0.199829C 17.9135,0.19458 18.0198,0.2052 18.1261,0.231323C 18.2166,0.27417 18.259,0.338135 18.2537,0.423462C 18.2466,0.505249 18.2183,0.619019 18.1687,0.764771C 18.0322,1.18005 17.7469,1.93628 17.3127,3.03296C 16.8785,4.12964 16.5081,5.0271 16.2015,5.72522L 14.4364,1.15942 Z "/>
		<path fill="#FFFFFF" fill-opacity="1" stroke-width="0.2" stroke-linejoin="round" d="M 21.11,4.32678C 21.1111,4.78052 21.1089,5.18042 21.1033,5.52649C 21.0978,5.87268 21.0822,6.1427 21.0566,6.33679C 21.0391,6.47424 21.0155,6.58569 20.986,6.67151C 20.9564,6.75708 20.8982,6.80884 20.8113,6.82654C 20.7153,6.81042 20.6193,6.81042 20.5233,6.82654L 20.4486,6.87317C 20.4504,6.9635 20.5001,7.00403 20.598,6.99475C 20.7634,6.99292 20.9446,6.9856 21.1415,6.97278C 21.244,6.94751 21.3329,6.93201 21.408,6.92651C 21.483,6.92102 21.5272,6.9187 21.5405,6.9198C 21.668,6.91626 21.9275,6.92346 22.3189,6.94116C 22.7095,6.99304 23.263,7.01819 23.9791,7.01648C 24.1289,7.02161 24.2371,7.01147 24.3036,6.98645C 24.3702,6.96155 24.4177,6.89136 24.446,6.77612C 24.4747,6.65747 24.5027,6.49341 24.53,6.28381C 24.5574,6.07434 24.572,5.94299 24.51,5.7229C 24.462,5.72473 24.43,5.78052 24.4141,5.89001C 24.3875,6.07019 24.3419,6.20862 24.2772,6.30505C 24.2125,6.40173 24.1278,6.47534 24.0233,6.52612C 23.9,6.57263 23.7469,6.60095 23.5642,6.61108C 23.3815,6.62122 23.2232,6.62524 23.0894,6.62317C 22.6302,6.6311 22.325,6.58569 22.1738,6.48706C 22.0225,6.38843 21.948,6.18958 21.95,5.89001C 21.9454,5.76428 21.9441,5.5199 21.946,5.15698C 21.948,4.79407 21.9493,4.51721 21.95,4.32678L 21.95,3.56128L 22.0151,3.49646C 22.1302,3.49634 22.3585,3.49939 22.7001,3.50598C 23.0416,3.51257 23.2944,3.5238 23.4583,3.53979C 23.638,3.56226 23.7615,3.59802 23.8286,3.64758C 23.8958,3.69702 23.9351,3.75452 23.9466,3.82007C 23.9827,3.93689 23.9972,4.03748 23.99,4.12195L 24.0833,4.03577C 24.0838,3.99426 24.0882,3.91003 24.0967,3.78308C 24.1051,3.65637 24.1149,3.54138 24.126,3.43872C 24.1615,3.12854 24.1864,2.95422 24.2007,2.91577L 24.1473,2.8429L 24.0367,2.9574C 23.9707,3.03552 23.825,3.07703 23.5994,3.08228C 23.4454,3.09241 23.1674,3.09839 22.7652,3.10046C 22.363,3.10278 22.1094,3.10364 22.0042,3.10315C 21.959,3.10315 21.941,3.0719 21.95,3.00952L 21.95,0.603638L 22.0042,0.509888C 22.0989,0.509888 22.3218,0.512451 22.6729,0.5177C 23.024,0.522827 23.2605,0.53064 23.3824,0.541138C 23.635,0.570557 23.8042,0.605225 23.8898,0.645264C 23.9755,0.685181 24.0245,0.740601 24.0367,0.81189C 24.0497,0.866577 24.0586,0.92395 24.0633,0.983643C 24.068,1.04358 24.0703,1.09045 24.0699,1.12427C 24.0656,1.19897 24.0878,1.23718 24.1366,1.23889C 24.1812,1.22839 24.2095,1.19714 24.222,1.14514C 24.2329,1.05994 24.243,0.946411 24.2527,0.804443C 24.2622,0.66272 24.2698,0.564331 24.2753,0.509888C 24.3109,0.272583 24.3358,0.130737 24.35,0.0847168L 24.3074,-0.00012207C 24.2646,0.00866699 24.222,0.0228271 24.1793,0.0422363C 24.1096,0.0773926 23.985,0.102295 23.8055,0.116455C 23.6202,0.12146 23.2234,0.122925 22.6152,0.12085C 22.0071,0.118774 21.6488,0.11731 21.5405,0.116455C 21.4991,0.115601 21.3657,0.112061 21.1402,0.105835C 20.9147,0.0997314 20.6877,0.0960693 20.4593,0.0950928C 20.3562,0.0926514 20.3064,0.119019 20.3099,0.174438L 20.3846,0.255249C 20.4307,0.228882 20.4852,0.215088 20.5486,0.213623C 20.6119,0.212036 20.6639,0.2146 20.7047,0.221436C 20.8546,0.241821 20.9547,0.292236 21.0046,0.372803C 21.0547,0.453369 21.0826,0.570679 21.0887,0.724854C 21.0989,0.844849 21.1051,1.03088 21.1073,1.28333C 21.1095,1.53577 21.1104,2.00317 21.11,2.6853L 21.11,4.32678 Z "/>
		<path fill="#FFFFFF" fill-opacity="1" stroke-width="0.2" stroke-linejoin="round" d="M 26.88,4.30005C 26.8812,4.74841 26.8789,5.14478 26.8734,5.48865C 26.8678,5.83276 26.8523,6.10168 26.8267,6.29517C 26.8091,6.4314 26.7855,6.54126 26.756,6.62463C 26.7264,6.70789 26.6682,6.76086 26.5814,6.78308C 26.4854,6.80847 26.3893,6.82288 26.2933,6.82654L 26.2186,6.87317C 26.2205,6.9054 26.2701,6.92102 26.368,6.9198L 28.458,6.9198C 28.5612,6.9176 28.611,6.9021 28.6074,6.87317L 28.5327,6.82654C 28.486,6.82605 28.4219,6.82153 28.3406,6.81287C 28.2592,6.80444 28.1844,6.79456 28.1163,6.78308C 27.9767,6.76086 27.8824,6.70789 27.8335,6.62463C 27.7845,6.54126 27.7543,6.4314 27.7427,6.29517C 27.7222,6.10217 27.7098,5.83508 27.7054,5.49426C 27.7009,5.1532 27.6991,4.75891 27.7,4.31091L 27.7,4.09399C 27.7,4.04211 27.7213,4.01721 27.764,4.01941L 28.9597,4.03979C 29.0131,4.03625 29.0558,4.05432 29.0878,4.09399C 29.1942,4.22791 29.3392,4.42102 29.5228,4.67273C 29.7064,4.92468 29.8994,5.17993 30.1016,5.4386C 30.3586,5.78503 30.5848,6.07068 30.78,6.29517C 30.9752,6.51978 31.1714,6.68591 31.3687,6.79407C 31.4798,6.83972 31.6096,6.87231 31.7581,6.89172C 31.9066,6.91101 32.111,6.92029 32.3714,6.9198L 32.9581,6.9198C 33.1182,6.92102 33.1929,6.9054 33.1822,6.87317L 33.0968,6.82654C 33.0506,6.83191 32.9403,6.82104 32.7661,6.79407C 32.6512,6.78552 32.5103,6.73999 32.3434,6.6571C 32.1766,6.5741 31.969,6.40649 31.7208,6.15417C 31.449,5.86401 31.1512,5.51733 30.8272,5.11389C 30.5032,4.71057 30.1512,4.26733 29.7711,3.7843C 30.1973,3.41528 30.4954,3.06262 30.6653,2.72595C 30.8351,2.3894 30.9166,2.05481 30.91,1.72192C 30.8978,1.40649 30.8199,1.14368 30.6764,0.933228C 30.5328,0.722778 30.3973,0.574341 30.2695,0.487549C 30.0206,0.327393 29.7432,0.222534 29.4371,0.173218C 29.1309,0.124146 28.8259,0.101807 28.522,0.106567L 26.2293,0.106567C 26.1262,0.104736 26.0764,0.128662 26.1546,0.249634C 26.2007,0.225952 26.2554,0.213623 26.3187,0.212646C 26.382,0.21167 26.434,0.214478 26.4747,0.221069C 26.6246,0.241577 26.7247,0.292236 26.7747,0.373291C 26.8247,0.454346 26.8527,0.572388 26.8587,0.727417C 26.8689,0.848022 26.8751,1.03528 26.8773,1.28894C 26.8795,1.54285 26.8804,2.01282 26.88,2.69897L 26.88,4.30005 Z M 27.7,0.572632C 27.7036,0.52124 27.7285,0.485718 27.7747,0.466187C 27.8275,0.454834 27.9169,0.443237 28.043,0.431763C 28.1691,0.420288 28.3038,0.414185 28.4473,0.413208C 28.9539,0.416748 29.3499,0.571899 29.635,0.878662C 29.92,1.18542 30.0651,1.62268 30.0701,2.19019C 30.0665,2.53723 30.0122,2.82751 29.9072,3.0614C 29.8022,3.29529 29.6678,3.46606 29.5042,3.57349C 29.3907,3.64539 29.2733,3.69067 29.1519,3.70923C 29.0304,3.72778 28.913,3.73596 28.7996,3.73315C 28.583,3.73206 28.3757,3.71838 28.1777,3.69202C 27.9798,3.66565 27.8419,3.63318 27.764,3.59485C 27.7213,3.56653 27.7,3.52747 27.7,3.47778L 27.7,0.572632 Z "/>
		<path fill="#FFFFFF" fill-opacity="1" stroke-width="0.2" stroke-linejoin="round" d="M 34.0267,4.35327C 34.0278,4.78845 34.0255,5.1731 34.02,5.50708C 34.0145,5.84094 33.9989,6.10181 33.9733,6.28979C 33.9558,6.42358 33.9322,6.53491 33.9026,6.6239C 33.8731,6.71301 33.8148,6.76636 33.728,6.78442C 33.632,6.80383 33.5359,6.81775 33.4399,6.82654L 33.3653,6.86548C 33.3671,6.90295 33.4168,6.92114 33.5146,6.9198C 33.6816,6.91858 33.8704,6.91333 34.0806,6.90417C 34.1804,6.91638 34.2667,6.92224 34.3396,6.922C 34.4124,6.92151 34.4556,6.92078 34.4691,6.9198C 34.4946,6.92004 34.5648,6.92224 34.6797,6.92651C 34.7947,6.93079 34.9302,6.93567 35.0865,6.94116C 35.2437,6.9364 35.398,6.93518 35.5497,6.93726C 35.7014,6.93921 35.8231,6.94055 35.9149,6.94116C 36.7252,6.92212 37.3212,6.72107 37.7029,6.33801C 38.0845,5.95483 38.2736,5.50366 38.27,4.98474C 38.2474,4.47839 38.0662,4.06763 37.726,3.75281C 37.3859,3.43787 37.022,3.22644 36.6343,3.11853C 36.8669,2.90833 37.0709,2.67712 37.2465,2.42517C 37.4219,2.1731 37.5142,1.86926 37.5233,1.51355C 37.5399,1.24329 37.4113,0.949585 37.1373,0.632935C 36.8634,0.316162 36.3445,0.143799 35.5808,0.115845L 33.376,0.115845C 33.2728,0.114014 33.223,0.138916 33.3013,0.243896C 33.3473,0.223022 33.402,0.212524 33.4653,0.21228C 33.5286,0.212036 33.5806,0.21521 33.6213,0.221924C 33.7713,0.24353 33.8713,0.298584 33.9213,0.387329C 33.9713,0.47583 33.9993,0.599365 34.0054,0.757568C 34.0155,0.880005 34.0218,1.06995 34.024,1.32739C 34.0262,1.58508 34.0271,2.06189 34.0267,2.75818L 34.0267,4.35327 Z M 34.8467,0.543823C 34.8431,0.495483 34.8826,0.463135 34.9654,0.447021C 35.045,0.43103 35.1314,0.4198 35.2245,0.41333C 35.3176,0.40686 35.3932,0.403564 35.4512,0.403931C 35.9227,0.421631 36.2645,0.579956 36.4769,0.879272C 36.6892,1.17847 36.7936,1.51196 36.79,1.87976C 36.7875,2.09973 36.752,2.29016 36.6833,2.45081C 36.6147,2.61145 36.5279,2.74792 36.4229,2.86011C 36.3323,2.96423 36.2193,3.03064 36.0841,3.05945C 35.949,3.08813 35.7524,3.10083 35.4944,3.09729C 35.149,3.08813 34.9547,3.07385 34.9114,3.05408C 34.8682,3.04871 34.8467,3.01636 34.8467,2.95715L 34.8467,0.543823 Z M 34.8467,3.45874L 34.9006,3.39587C 34.9904,3.39539 35.1185,3.39624 35.2852,3.39856C 35.4519,3.40063 35.572,3.40662 35.6456,3.41675C 35.7649,3.43286 35.8983,3.45227 36.046,3.47485C 36.1938,3.49744 36.3499,3.55688 36.5144,3.6532C 36.8816,3.90344 37.1282,4.18835 37.2542,4.50818C 37.3802,4.82825 37.4388,5.09705 37.43,5.31519C 37.4109,5.88501 37.2556,6.26526 36.964,6.45581C 36.6724,6.64636 36.359,6.73425 36.0239,6.71985C 35.929,6.72192 35.7999,6.71509 35.637,6.69983C 35.4739,6.68433 35.3231,6.64819 35.1846,6.59119C 35.0443,6.52905 34.957,6.45227 34.923,6.3606C 34.8889,6.26917 34.8671,6.11707 34.8575,5.90491C 34.8524,5.80737 34.8492,5.55493 34.848,5.14771C 34.8469,4.74048 34.8464,4.34595 34.8467,3.96411L 34.8467,3.45874 Z "/>
	</g>
</svg>