<?xml version="1.0" encoding="UTF-8"?>
<!DOCTYPE svg PUBLIC "-//W3C//DTD SVG 1.1//EN" "http://www.w3.org/Graphics/SVG/1.1/DTD/svg11.dtd">
<svg xmlns="http://www.w3.org/2000/svg" xmlns:xlink="http://www.w3.org/1999/xlink" version="1.1" baseProfile="full" xml:space="preserve" preserveAspectRatio="none slice" width="125" height="7" viewBox="0 0 125.00 7.00" enable-background="new 0 0 125.00 7.00">
	<g>
		<path fill="#FFFFFF" fill-opacity="1" stroke-width="0.2" stroke-linejoin="round" d="M 0.800049,4.30005C 0.801147,4.74841 0.79895,5.14478 0.793335,5.48865C 0.787842,5.83276 0.772339,6.10168 0.746704,6.29517C 0.729126,6.4314 0.705566,6.54126 0.676025,6.62463C 0.646484,6.70789 0.588257,6.76086 0.501343,6.78308C 0.405396,6.80847 0.309326,6.82288 0.213257,6.82654L 0.138672,6.87317C 0.140503,6.9054 0.190186,6.92102 0.287964,6.9198L 2.37805,6.9198C 2.4812,6.9176 2.53101,6.9021 2.52747,6.87317L 2.45276,6.82654C 2.40601,6.82605 2.34192,6.82153 2.26062,6.81287C 2.1792,6.80444 2.10437,6.79456 2.03638,6.78308C 1.89673,6.76086 1.80237,6.70789 1.75354,6.62463C 1.70459,6.54126 1.67432,6.4314 1.66272,6.29517C 1.64221,6.10217 1.62976,5.83508 1.62537,5.49426C 1.62097,5.1532 1.61914,4.75891 1.62,4.31091L 1.62,4.09399C 1.62,4.04211 1.64136,4.01721 1.68408,4.01941L 2.87976,4.03979C 2.93311,4.03625 2.97583,4.05432 3.00781,4.09399C 3.11414,4.22791 3.25916,4.42102 3.44275,4.67273C 3.62646,4.92468 3.81946,5.17993 4.02161,5.4386C 4.27869,5.78503 4.50476,6.07068 4.70007,6.29517C 4.89514,6.51978 5.09143,6.68591 5.2887,6.79407C 5.39978,6.83972 5.52966,6.87231 5.6781,6.89172C 5.82654,6.91101 6.03101,6.92029 6.29138,6.9198L 6.87817,6.9198C 7.03821,6.92102 7.11292,6.9054 7.10217,6.87317L 7.01685,6.82654C 6.97058,6.83191 6.86035,6.82104 6.68616,6.79407C 6.57129,6.78552 6.4303,6.73999 6.26343,6.6571C 6.09656,6.5741 5.88904,6.40649 5.64075,6.15417C 5.36902,5.86401 5.07117,5.51733 4.74719,5.11389C 4.42322,4.71057 4.07117,4.26733 3.69104,3.7843C 4.11731,3.41528 4.41541,3.06262 4.58533,2.72595C 4.75513,2.3894 4.83667,2.05481 4.83008,1.72192C 4.81775,1.40649 4.73987,1.14368 4.59644,0.933228C 4.45288,0.722778 4.31726,0.574341 4.18958,0.487549C 3.94067,0.327393 3.66321,0.222534 3.35706,0.173218C 3.0509,0.124146 2.74597,0.101807 2.44202,0.106567L 0.149292,0.106567C 0.0462646,0.104736 -0.00354004,0.128662 0.074585,0.249634C 0.120728,0.225952 0.175415,0.213623 0.238647,0.212646C 0.302002,0.21167 0.354004,0.214478 0.394653,0.221069C 0.544678,0.241577 0.644653,0.292236 0.694702,0.373291C 0.744751,0.454346 0.772705,0.572388 0.778687,0.727417C 0.78894,0.848022 0.795166,1.03528 0.797363,1.28894C 0.799561,1.54285 0.800415,2.01282 0.800049,2.69897L 0.800049,4.30005 Z M 1.62,0.572632C 1.62366,0.52124 1.64856,0.485718 1.6947,0.466187C 1.74744,0.454834 1.83691,0.443237 1.96301,0.431763C 2.08911,0.420288 2.22388,0.414185 2.36731,0.413208C 2.8739,0.416748 3.2699,0.571899 3.55505,0.878662C 3.84009,1.18542 3.98511,1.62268 3.99011,2.19019C 3.98645,2.53723 3.93225,2.82751 3.82727,3.0614C 3.72229,3.29529 3.58789,3.46606 3.42419,3.57349C 3.31079,3.64539 3.19336,3.69067 3.0719,3.70923C 2.95044,3.72778 2.83301,3.73596 2.7196,3.73315C 2.50305,3.73206 2.29578,3.71838 2.09778,3.69202C 1.89978,3.66565 1.76196,3.63318 1.68408,3.59485C 1.64136,3.56653 1.62,3.52747 1.62,3.47778L 1.62,0.572632 Z "/>
		<path fill="#FFFFFF" fill-opacity="1" stroke-width="0.2" stroke-linejoin="round" d="M 8.04333,4.32678C 8.04443,4.78052 8.04224,5.18042 8.03674,5.52649C 8.03113,5.87268 8.0155,6.1427 7.98999,6.33679C 7.97253,6.47424 7.94885,6.58569 7.91931,6.67151C 7.88977,6.75708 7.83154,6.80884 7.74463,6.82654C 7.64868,6.81042 7.55261,6.81042 7.45667,6.82654L 7.38196,6.87317C 7.38379,6.9635 7.43347,7.00403 7.53137,6.99475C 7.69678,6.99292 7.87793,6.9856 8.07483,6.97278C 8.17737,6.94751 8.26624,6.93201 8.34131,6.92651C 8.41638,6.92102 8.46057,6.9187 8.47388,6.9198C 8.60132,6.91626 8.86084,6.92346 9.25232,6.94116C 9.64294,6.99304 10.1964,7.01819 10.9125,7.01648C 11.0623,7.02161 11.1704,7.01147 11.2369,6.98645C 11.3036,6.96155 11.3511,6.89136 11.3794,6.77612C 11.4081,6.65747 11.436,6.49341 11.4634,6.28381C 11.4907,6.07434 11.5054,5.94299 11.4434,5.7229C 11.3954,5.72473 11.3634,5.78052 11.3474,5.89001C 11.3209,6.07019 11.2753,6.20862 11.2106,6.30505C 11.1459,6.40173 11.0612,6.47534 10.9567,6.52612C 10.8334,6.57263 10.6803,6.60095 10.4976,6.61108C 10.3148,6.62122 10.1566,6.62524 10.0227,6.62317C 9.5636,6.6311 9.25842,6.58569 9.10718,6.48706C 8.95593,6.38843 8.88135,6.18958 8.88342,5.89001C 8.87878,5.76428 8.87744,5.5199 8.87939,5.15698C 8.88135,4.79407 8.88269,4.51721 8.88342,4.32678L 8.88342,3.56128L 8.94849,3.49646C 9.0636,3.49634 9.29187,3.49939 9.63342,3.50598C 9.97498,3.51257 10.2278,3.5238 10.3917,3.53979C 10.5714,3.56226 10.6948,3.59802 10.762,3.64758C 10.8291,3.69702 10.8685,3.75452 10.88,3.82007C 10.9161,3.93689 10.9305,4.03748 10.9233,4.12195L 11.0167,4.03577C 11.0172,3.99426 11.0216,3.91003 11.03,3.78308C 11.0385,3.65637 11.0482,3.54138 11.0593,3.43872C 11.0948,3.12854 11.1198,2.95422 11.134,2.91577L 11.0807,2.8429L 10.9701,2.9574C 10.9041,3.03552 10.7583,3.07703 10.5327,3.08228C 10.3788,3.09241 10.1007,3.09839 9.69861,3.10046C 9.29639,3.10278 9.04272,3.10364 8.93762,3.10315C 8.89246,3.10315 8.87439,3.0719 8.88342,3.00952L 8.88342,0.603638L 8.93762,0.509888C 9.03235,0.509888 9.25525,0.512451 9.60632,0.5177C 9.9574,0.522827 10.1938,0.53064 10.3158,0.541138C 10.5684,0.570557 10.7375,0.605225 10.8231,0.645264C 10.9088,0.685181 10.9579,0.740601 10.9701,0.81189C 10.983,0.866577 10.9919,0.92395 10.9967,0.983643C 11.0013,1.04358 11.0037,1.09045 11.0033,1.12427C 10.9989,1.19897 11.0211,1.23718 11.0699,1.23889C 11.1145,1.22839 11.1429,1.19714 11.1554,1.14514C 11.1663,1.05994 11.1764,0.946411 11.186,0.804443C 11.1956,0.66272 11.2031,0.564331 11.2086,0.509888C 11.2443,0.272583 11.2692,0.130737 11.2833,0.0847168L 11.2407,-0.00012207C 11.198,0.00866699 11.1554,0.0228271 11.1127,0.0422363C 11.043,0.0773926 10.9183,0.102295 10.7389,0.116455C 10.5536,0.12146 10.1567,0.122925 9.54858,0.12085C 8.94055,0.118774 8.58215,0.11731 8.47388,0.116455C 8.4325,0.115601 8.29907,0.112061 8.07361,0.105835C 7.84802,0.0997314 7.62109,0.0960693 7.3927,0.0950928C 7.28955,0.0926514 7.23975,0.119019 7.24329,0.174438L 7.31799,0.255249C 7.36401,0.228882 7.41858,0.215088 7.48206,0.213623C 7.54529,0.212036 7.59729,0.2146 7.63806,0.221436C 7.78796,0.241821 7.88806,0.292236 7.93799,0.372803C 7.98804,0.453369 8.01599,0.570679 8.02209,0.724854C 8.03223,0.844849 8.03845,1.03088 8.04065,1.28333C 8.04285,1.53577 8.04382,2.00317 8.04333,2.6853L 8.04333,4.32678 Z "/>
		<path fill="#FFFFFF" fill-opacity="1" stroke-width="0.2" stroke-linejoin="round" d="M 17.0298,7.01648C 17.3452,7.01733 17.6586,7.00403 17.97,6.97668C 18.2814,6.94946 18.5382,6.90344 18.7406,6.83862C 18.8177,6.81372 18.8706,6.78625 18.899,6.75623C 18.9276,6.72644 18.9532,6.67505 18.976,6.60217C 19.0267,6.42407 19.0756,6.2019 19.1226,5.93542C 19.1696,5.66907 19.1947,5.50757 19.1981,5.45105C 19.1909,5.37183 19.1625,5.32446 19.1129,5.30872C 19.0602,5.30872 19.0287,5.35608 19.0182,5.45105C 19.002,5.5437 18.963,5.66467 18.9011,5.81409C 18.8394,5.9635 18.7572,6.09241 18.6545,6.20081C 18.4691,6.38013 18.2509,6.4967 17.9995,6.55054C 17.7482,6.60437 17.4465,6.62866 17.0944,6.62317C 16.0673,6.59534 15.2458,6.26831 14.6302,5.64246C 14.0148,5.01648 13.6991,4.2594 13.6833,3.37073C 13.6752,2.91528 13.7294,2.49036 13.8461,2.09558C 13.9629,1.70093 14.192,1.34448 14.5334,1.02649C 14.6921,0.866455 14.9369,0.724365 15.2678,0.599976C 15.5988,0.475708 16.0641,0.410034 16.6639,0.403198C 17.0878,0.406616 17.4613,0.4552 17.7843,0.548462C 18.1073,0.641846 18.3544,0.758911 18.5254,0.899658C 18.6503,0.998413 18.7476,1.1283 18.8173,1.28918C 18.8868,1.44995 18.9222,1.61938 18.9235,1.79724C 18.9164,1.93787 18.9409,2.01526 18.9971,2.02905C 19.0532,2.02039 19.0883,1.94312 19.1023,1.79724C 19.1072,1.72205 19.1107,1.59009 19.1129,1.40125C 19.1151,1.21252 19.1185,1.03833 19.1234,0.878662C 19.1345,0.718994 19.1443,0.602661 19.1527,0.529907C 19.1611,0.456909 19.1656,0.403564 19.166,0.369385C 19.1748,0.307739 19.136,0.274048 19.0497,0.268311C 18.7509,0.247681 18.4291,0.198975 18.0842,0.122192C 17.848,0.0831299 17.6077,0.0545654 17.3634,0.036499C 17.119,0.0184326 16.9003,0.00964355 16.7069,0.0098877C 15.9869,0.0172119 15.396,0.114014 14.9342,0.300415C 14.4725,0.486572 14.1022,0.71814 13.8232,0.994751C 13.4435,1.4104 13.1833,1.84363 13.0428,2.29504C 12.9022,2.74622 12.8358,3.12927 12.8434,3.44458C 12.834,3.88098 12.9041,4.33374 13.0536,4.80298C 13.203,5.27222 13.4883,5.70642 13.9093,6.10571C 14.2754,6.41516 14.7108,6.64441 15.2153,6.79382C 15.72,6.94312 16.3248,7.01733 17.0298,7.01648 Z "/>
		<path fill="#FFFFFF" fill-opacity="1" stroke-width="0.2" stroke-linejoin="round" d="M 20.4167,3.47009C 20.4083,4.32385 20.6935,5.11646 21.2719,5.84839C 21.8502,6.5802 22.772,6.9696 24.0371,7.01648C 25.1725,6.98816 26.0736,6.62476 26.7404,5.92615C 27.4071,5.22742 27.7482,4.36304 27.7633,3.33313C 27.7411,2.28064 27.3904,1.46411 26.7113,0.883545C 26.0322,0.302856 25.1584,0.00817871 24.09,-0.00012207C 22.8134,0.0540771 21.8801,0.451904 21.2903,1.19324C 20.7004,1.93445 20.4093,2.69348 20.4167,3.47009 Z M 21.3634,3.22766C 21.3777,2.25232 21.6292,1.52173 22.1177,1.03552C 22.6062,0.549194 23.246,0.306274 24.0371,0.306519C 24.7955,0.308716 25.4425,0.586304 25.9778,1.13953C 26.5131,1.69275 26.7927,2.50842 26.8168,3.58618C 26.764,4.84753 26.4492,5.6781 25.8721,6.07739C 25.2949,6.47681 24.7714,6.65881 24.3013,6.62317C 23.4437,6.61218 22.744,6.30725 22.2023,5.70837C 21.6604,5.1095 21.3807,4.28259 21.3634,3.22766 Z "/>
		<path fill="#FFFFFF" fill-opacity="1" stroke-width="0.2" stroke-linejoin="round" d="M 29.76,4.30005C 29.7611,4.74841 29.7589,5.14478 29.7533,5.48865C 29.7478,5.83276 29.7323,6.10168 29.7067,6.29517C 29.6891,6.4314 29.6655,6.54126 29.636,6.62463C 29.6064,6.70789 29.5482,6.76086 29.4613,6.78308C 29.3654,6.80847 29.2693,6.82288 29.1732,6.82654L 29.0986,6.87317C 29.1005,6.9054 29.1501,6.92102 29.2479,6.9198L 31.338,6.9198C 31.4412,6.9176 31.491,6.9021 31.4874,6.87317L 31.4127,6.82654C 31.366,6.82605 31.3019,6.82153 31.2206,6.81287C 31.1392,6.80444 31.0643,6.79456 30.9963,6.78308C 30.8567,6.76086 30.7623,6.70789 30.7135,6.62463C 30.6646,6.54126 30.6343,6.4314 30.6227,6.29517C 30.6022,6.10217 30.5897,5.83508 30.5853,5.49426C 30.5809,5.1532 30.5791,4.75891 30.58,4.31091L 30.58,4.09399C 30.58,4.04211 30.6013,4.01721 30.644,4.01941L 31.8397,4.03979C 31.8931,4.03625 31.9358,4.05432 31.9678,4.09399C 32.0741,4.22791 32.2191,4.42102 32.4027,4.67273C 32.5864,4.92468 32.7794,5.17993 32.9816,5.4386C 33.2386,5.78503 33.4647,6.07068 33.66,6.29517C 33.8551,6.51978 34.0514,6.68591 34.2487,6.79407C 34.3597,6.83972 34.4896,6.87231 34.6381,6.89172C 34.7865,6.91101 34.991,6.92029 35.2513,6.9198L 35.8381,6.9198C 35.9982,6.92102 36.0729,6.9054 36.0621,6.87317L 35.9768,6.82654C 35.9305,6.83191 35.8203,6.82104 35.6461,6.79407C 35.5313,6.78552 35.3903,6.73999 35.2234,6.6571C 35.0565,6.5741 34.849,6.40649 34.6007,6.15417C 34.329,5.86401 34.0311,5.51733 33.7072,5.11389C 33.3832,4.71057 33.0311,4.26733 32.651,3.7843C 33.0773,3.41528 33.3754,3.06262 33.5453,2.72595C 33.7151,2.3894 33.7966,2.05481 33.79,1.72192C 33.7777,1.40649 33.6998,1.14368 33.5564,0.933228C 33.4128,0.722778 33.2772,0.574341 33.1495,0.487549C 32.9006,0.327393 32.6232,0.222534 32.317,0.173218C 32.0109,0.124146 31.7059,0.101807 31.402,0.106567L 29.1093,0.106567C 29.0062,0.104736 28.9564,0.128662 29.0345,0.249634C 29.0807,0.225952 29.1354,0.213623 29.1986,0.212646C 29.262,0.21167 29.314,0.214478 29.3546,0.221069C 29.5046,0.241577 29.6046,0.292236 29.6547,0.373291C 29.7047,0.454346 29.7327,0.572388 29.7386,0.727417C 29.7489,0.848022 29.7551,1.03528 29.7573,1.28894C 29.7595,1.54285 29.7604,2.01282 29.76,2.69897L 29.76,4.30005 Z M 30.58,0.572632C 30.5836,0.52124 30.6085,0.485718 30.6547,0.466187C 30.7074,0.454834 30.7969,0.443237 30.923,0.431763C 31.0491,0.420288 31.1838,0.414185 31.3273,0.413208C 31.8339,0.416748 32.2299,0.571899 32.515,0.878662C 32.8,1.18542 32.9451,1.62268 32.9501,2.19019C 32.9464,2.53723 32.8922,2.82751 32.7872,3.0614C 32.6823,3.29529 32.5479,3.46606 32.3842,3.57349C 32.2708,3.64539 32.1533,3.69067 32.0319,3.70923C 31.9104,3.72778 31.793,3.73596 31.6796,3.73315C 31.463,3.73206 31.2557,3.71838 31.0577,3.69202C 30.8597,3.66565 30.7219,3.63318 30.644,3.59485C 30.6013,3.56653 30.58,3.52747 30.58,3.47778L 30.58,0.572632 Z "/>
		<path fill="#FFFFFF" fill-opacity="1" stroke-width="0.2" stroke-linejoin="round" d="M 37.0033,4.33472C 37.0044,4.77478 37.0022,5.16479 36.9967,5.50427C 36.9911,5.84387 36.9755,6.1095 36.95,6.30103C 36.9325,6.43579 36.9088,6.54431 36.8793,6.62671C 36.8497,6.70923 36.7915,6.76147 36.7046,6.78357C 36.6086,6.80872 36.5126,6.823 36.4166,6.82654L 36.3419,6.87317C 36.3438,6.9054 36.3934,6.92102 36.4913,6.9198C 36.5682,6.91968 36.6571,6.91833 36.7579,6.91565C 36.8586,6.91296 36.958,6.90991 37.0558,6.90649C 37.153,6.9176 37.2369,6.92273 37.3077,6.92212C 37.3787,6.92163 37.4207,6.92078 37.4338,6.9198C 37.4586,6.92004 37.5402,6.92493 37.6786,6.93445C 37.8168,6.94409 37.9889,6.95691 38.1947,6.97327C 38.401,6.98608 38.6193,6.99817 38.8495,7.00903C 39.0797,7.0199 39.2981,7.02576 39.5044,7.02649C 40.2963,7.01038 40.9192,6.89343 41.373,6.67566C 41.8269,6.45813 42.1517,6.23645 42.3473,6.01086C 42.5992,5.7406 42.816,5.38928 42.9978,4.95642C 43.1796,4.5238 43.2748,4.01929 43.2833,3.44299C 43.2751,2.90112 43.1888,2.43774 43.0245,2.05298C 42.86,1.66821 42.6664,1.35803 42.4432,1.12231C 41.8607,0.598267 41.2129,0.29126 40.4999,0.201416C 39.787,0.111694 39.1818,0.0799561 38.6844,0.106567L 36.3527,0.106567C 36.2495,0.104858 36.1997,0.128052 36.278,0.244995C 36.324,0.223511 36.3785,0.212646 36.442,0.21228C 36.5052,0.212036 36.5573,0.215088 36.598,0.221802C 36.7479,0.242065 36.848,0.293091 36.8979,0.374146C 36.948,0.455322 36.976,0.573608 36.9821,0.729126C 36.9922,0.849854 36.9984,1.03735 37.0006,1.29175C 37.0028,1.54602 37.0038,2.01685 37.0033,2.70435L 37.0033,4.33472 Z M 37.8434,0.6604C 37.8397,0.56189 37.8788,0.500854 37.9604,0.477661C 38.0099,0.460815 38.0919,0.446045 38.2067,0.43335C 38.3214,0.420654 38.4274,0.413818 38.5248,0.413208C 39.0851,0.399292 39.6202,0.456665 40.13,0.585083C 40.6396,0.713623 41.1162,0.99646 41.5594,1.43384C 41.7639,1.62585 41.9591,1.91077 42.1451,2.28796C 42.3311,2.66541 42.4304,3.14343 42.4432,3.72229C 42.4432,4.15051 42.3821,4.5592 42.2595,4.94849C 42.1371,5.33765 41.9534,5.65247 41.7085,5.89246C 41.1263,6.43689 40.3953,6.71265 39.515,6.71985C 38.973,6.71545 38.5902,6.67603 38.3663,6.60168C 38.1426,6.52747 38.0072,6.44495 37.9604,6.35461C 37.9241,6.29907 37.8983,6.20593 37.8832,6.07532C 37.8682,5.94458 37.8584,5.81909 37.8539,5.6991C 37.8489,5.60168 37.8458,5.36975 37.8446,5.00354C 37.8435,4.63733 37.8431,4.20667 37.8434,3.71155L 37.8434,0.6604 Z "/>
		<path fill="#FFFFFF" fill-opacity="1" stroke-width="0.2" stroke-linejoin="round" d="M 46.4834,2.69983C 46.4832,2.01355 46.4835,1.54358 46.4847,1.28967C 46.4858,1.03577 46.4889,0.848511 46.494,0.727905C 46.5011,0.56897 46.527,0.450806 46.5714,0.373779C 46.6158,0.296753 46.7003,0.245972 46.8247,0.221558C 46.9243,0.203491 47.0026,0.196167 47.1342,0.153198C 47.1376,0.120972 47.0879,0.105347 46.9847,0.106567L 45.11,0.106567C 45.007,0.105347 44.9572,0.120972 44.9607,0.153198L 45.0353,0.199829C 45.11,0.199951 45.2059,0.210693 45.3234,0.2323C 45.5135,0.262939 45.6132,0.428101 45.6221,0.727905C 45.6322,0.848511 45.6385,1.03577 45.6407,1.28967C 45.6429,1.54358 45.6438,2.01355 45.6434,2.69983L 45.6434,4.31604C 45.6438,4.7616 45.6403,5.1554 45.6327,5.49719C 45.6251,5.83911 45.611,6.1062 45.59,6.29858C 45.5771,6.43384 45.5549,6.54309 45.5233,6.62585C 45.4918,6.70874 45.4323,6.76111 45.3446,6.78345C 45.2487,6.80847 45.1527,6.823 45.0566,6.82654L 44.9821,6.87317C 44.9838,6.9054 45.0336,6.92102 45.1313,6.9198L 47.2194,6.9198C 47.3225,6.9176 47.3723,6.9021 47.3688,6.87317L 47.2941,6.82654C 47.2477,6.82605 47.1832,6.82153 47.1007,6.81311C 47.0183,6.80444 46.9406,6.79468 46.8674,6.78345C 46.7338,6.76111 46.6462,6.70874 46.6047,6.62585C 46.5631,6.54309 46.537,6.43384 46.526,6.29858C 46.5056,6.1062 46.4932,5.83911 46.4886,5.49719C 46.4843,5.1554 46.4825,4.7616 46.4834,4.31604L 46.4834,2.69983 Z "/>
		<path fill="#FFFFFF" fill-opacity="1" stroke-width="0.2" stroke-linejoin="round" d="M 49.7914,1.40686C 49.9484,1.58435 50.2495,1.91345 50.6949,2.39417C 51.1404,2.87463 51.6392,3.41125 52.1913,4.00354C 52.7142,4.55872 53.2267,5.09155 53.7285,5.60229C 54.2303,6.11292 54.5217,6.40601 54.6024,6.48169C 54.8534,6.71216 55.025,6.86218 55.1171,6.93225C 55.2092,7.00208 55.2748,7.03345 55.3141,7.02649L 55.3754,6.92749C 55.3851,6.85132 55.3895,6.67029 55.3887,6.38464L 55.41,1.01892C 55.4044,0.749268 55.4209,0.555908 55.4594,0.438354C 55.4978,0.321045 55.5917,0.248779 55.7407,0.221558C 55.8474,0.203491 55.922,0.196167 55.9647,0.199829L 56.0714,0.146606C 56.0625,0.116455 56.0056,0.103149 55.9008,0.106567L 54.1287,0.106567C 54.0164,0.103149 53.9567,0.116455 53.9496,0.146606L 54.0233,0.199829C 54.064,0.199585 54.1276,0.202881 54.2142,0.209351C 54.3009,0.215942 54.3881,0.227173 54.4761,0.243042C 54.6143,0.265259 54.7064,0.3396 54.7524,0.466675C 54.7985,0.593872 54.8223,0.802979 54.8236,1.09436L 54.9193,5.68433C 54.7605,5.51477 54.4741,5.20483 54.0603,4.75513C 53.6465,4.3053 53.2025,3.82837 52.7283,3.32483C 51.989,2.57263 51.3407,1.9021 50.7831,1.31311C 50.2256,0.723999 49.8984,0.378662 49.8018,0.2771C 49.7526,0.223755 49.6949,0.165405 49.6288,0.102661C 49.5627,0.0396729 49.5026,0.00549316 49.4481,-0.00012207L 49.3585,0.0931396C 49.3357,0.158936 49.324,0.28064 49.3234,0.45813L 49.3234,5.64441C 49.3269,6.04614 49.3118,6.32886 49.278,6.49243C 49.2443,6.65588 49.1704,6.74963 49.0566,6.77319C 48.9846,6.79419 48.9127,6.80835 48.8407,6.8158C 48.7687,6.82349 48.7126,6.8269 48.6726,6.82654L 48.598,6.87317C 48.5997,6.90881 48.6495,6.92419 48.7473,6.9198L 50.6224,6.9198C 50.7313,6.92102 50.7875,6.9054 50.7909,6.87317L 50.7173,6.82654C 50.6716,6.8269 50.605,6.82349 50.5172,6.8158C 50.4294,6.80835 50.3417,6.79419 50.254,6.77319C 50.1298,6.74878 50.0411,6.66187 49.9882,6.51233C 49.9351,6.36292 49.9043,6.10535 49.896,5.74036L 49.7914,1.40686 Z "/>
		<path fill="#FFFFFF" fill-opacity="1" stroke-width="0.2" stroke-linejoin="round" d="M 62.4967,6.16675C 62.496,6.25061 62.4786,6.31128 62.4445,6.34888C 62.4104,6.38647 62.3636,6.4198 62.3043,6.44934C 62.1754,6.51831 62.017,6.56506 61.8295,6.58923C 61.6417,6.61353 61.462,6.62476 61.2904,6.62317C 60.8589,6.62708 60.444,6.55408 60.0458,6.40454C 59.6476,6.25476 59.2621,6.00549 58.8892,5.65613C 58.7031,5.49182 58.4963,5.19299 58.2689,4.75964C 58.0414,4.32654 57.9174,3.79968 57.8966,3.17932C 57.9014,2.66541 57.988,2.21985 58.1569,1.84265C 58.3256,1.46558 58.5483,1.17493 58.8252,0.970581C 59.1844,0.716675 59.5304,0.556396 59.863,0.489502C 60.1957,0.422729 60.5043,0.393921 60.7888,0.403198C 61.3885,0.410889 61.8668,0.483154 62.2239,0.619873C 62.5809,0.756592 62.8177,0.911377 62.9344,1.08423C 63.0078,1.19153 63.0604,1.29944 63.0925,1.40796C 63.1246,1.51648 63.1427,1.60132 63.1466,1.66223C 63.141,1.74817 63.1636,1.79285 63.2142,1.79626C 63.2854,1.80652 63.3229,1.74475 63.3267,1.6106C 63.329,1.18286 63.3378,0.882202 63.3534,0.708252C 63.3689,0.534424 63.3778,0.421143 63.38,0.368408C 63.3895,0.314575 63.3492,0.283569 63.2592,0.276001C 63.1346,0.274536 63.0018,0.262939 62.8608,0.241333C 62.7198,0.219482 62.5991,0.196411 62.4987,0.171753C 62.3971,0.144775 62.2098,0.112061 61.9368,0.0734863C 61.6637,0.0349121 61.3728,0.0137939 61.0638,0.0098877C 60.7013,0.00170898 60.3026,0.0354004 59.8683,0.110718C 59.4337,0.186279 59.0033,0.352417 58.5769,0.609497C 58.1539,0.853882 57.7979,1.21899 57.5085,1.70471C 57.2194,2.19031 57.0687,2.78503 57.0568,3.48889C 57.0665,4.04285 57.1759,4.54651 57.3844,4.99939C 57.5931,5.45251 57.8418,5.80542 58.1305,6.05823C 58.67,6.48206 59.225,6.75159 59.7952,6.86646C 60.3654,6.98132 60.8378,7.03149 61.2128,7.01648C 61.5033,7.0188 61.8326,6.99146 62.2004,6.93445C 62.5682,6.87769 62.905,6.7771 63.2107,6.63318C 63.2665,6.61072 63.3019,6.57251 63.317,6.51843C 63.3322,6.46448 63.3386,6.3363 63.3367,6.13416L 63.3367,5.10193C 63.3364,4.9093 63.3369,4.73767 63.338,4.58716C 63.3391,4.43665 63.3422,4.28943 63.3473,4.14575C 63.3553,3.98462 63.3846,3.86414 63.4354,3.78442C 63.486,3.70483 63.5741,3.65503 63.6993,3.63501C 63.799,3.61682 63.8772,3.6095 64.0087,3.56653C 64.0123,3.53101 63.9625,3.51538 63.8594,3.51978L 61.8453,3.51978C 61.7423,3.51538 61.6925,3.53101 61.7706,3.61316C 61.8168,3.6134 61.8715,3.6156 61.9348,3.62C 61.9982,3.62439 62.0502,3.62952 62.0908,3.63501C 62.2759,3.6604 62.3915,3.73206 62.4379,3.84973C 62.4843,3.96741 62.5038,4.20728 62.4967,4.56958L 62.4967,6.16675 Z "/>
		<path fill="#FFFFFF" fill-opacity="1" stroke-width="0.2" stroke-linejoin="round" d="M 72.8698,7.01648C 73.1852,7.01733 73.4984,7.00403 73.8099,6.97668C 74.1212,6.94946 74.3781,6.90344 74.5806,6.83862C 74.6577,6.81372 74.7106,6.78625 74.739,6.75623C 74.7676,6.72644 74.7932,6.67505 74.8159,6.60217C 74.8666,6.42407 74.9154,6.2019 74.9625,5.93542C 75.0095,5.66907 75.0347,5.50757 75.038,5.45105C 75.0309,5.37183 75.0024,5.32446 74.9528,5.30872C 74.9001,5.30872 74.8685,5.35608 74.858,5.45105C 74.8419,5.5437 74.8029,5.66467 74.7411,5.81409C 74.6793,5.9635 74.597,6.09241 74.4945,6.20081C 74.3091,6.38013 74.0907,6.4967 73.8395,6.55054C 73.5881,6.60437 73.2865,6.62866 72.9342,6.62317C 71.9071,6.59534 71.0858,6.26831 70.4702,5.64246C 69.8546,5.01648 69.5389,4.2594 69.5233,3.37073C 69.515,2.91528 69.5692,2.49036 69.686,2.09558C 69.8029,1.70093 70.032,1.34448 70.3734,1.02649C 70.5321,0.866455 70.7769,0.724365 71.1078,0.599976C 71.4386,0.475708 71.9039,0.410034 72.5038,0.403198C 72.9277,0.406616 73.3011,0.4552 73.6243,0.548462C 73.9473,0.641846 74.1943,0.758911 74.3654,0.899658C 74.4902,0.998413 74.5875,1.1283 74.6571,1.28918C 74.7268,1.44995 74.7622,1.61938 74.7633,1.79724C 74.7562,1.93787 74.7809,2.01526 74.837,2.02905C 74.8932,2.02039 74.9282,1.94312 74.9423,1.79724C 74.9471,1.72205 74.9506,1.59009 74.9528,1.40125C 74.955,1.21252 74.9585,1.03833 74.9633,0.878662C 74.9745,0.718994 74.9843,0.602661 74.9927,0.529907C 75.0011,0.456909 75.0055,0.403564 75.006,0.369385C 75.0148,0.307739 74.976,0.274048 74.8896,0.268311C 74.5908,0.247681 74.269,0.198975 73.9242,0.122192C 73.6879,0.0831299 73.4476,0.0545654 73.2032,0.036499C 72.9589,0.0184326 72.7401,0.00964355 72.5469,0.0098877C 71.8269,0.0172119 71.236,0.114014 70.7742,0.300415C 70.3124,0.486572 69.942,0.71814 69.6632,0.994751C 69.2833,1.4104 69.0233,1.84363 68.8827,2.29504C 68.7422,2.74622 68.6757,3.12927 68.6833,3.44458C 68.674,3.88098 68.744,4.33374 68.8934,4.80298C 69.043,5.27222 69.3282,5.70642 69.7493,6.10571C 70.1154,6.41516 70.5507,6.64441 71.0553,6.79382C 71.5599,6.94312 72.1647,7.01733 72.8698,7.01648 Z "/>
		<path fill="#FFFFFF" fill-opacity="1" stroke-width="0.2" stroke-linejoin="round" d="M 76.2567,3.47009C 76.2484,4.32385 76.5334,5.11646 77.1118,5.84839C 77.6902,6.5802 78.6119,6.9696 79.8771,7.01648C 81.0126,6.98816 81.9137,6.62476 82.5804,5.92615C 83.2472,5.22742 83.5881,4.36304 83.6034,3.33313C 83.5812,2.28064 83.2303,1.46411 82.5514,0.883545C 81.8722,0.302856 80.9984,0.00817871 79.9299,-0.00012207C 78.6534,0.0540771 77.7201,0.451904 77.1302,1.19324C 76.5404,1.93445 76.2493,2.69348 76.2567,3.47009 Z M 77.2034,3.22766C 77.2177,2.25232 77.4691,1.52173 77.9576,1.03552C 78.4462,0.549194 79.0861,0.306274 79.8771,0.306519C 80.6356,0.308716 81.2825,0.586304 81.8177,1.13953C 82.353,1.69275 82.6327,2.50842 82.6567,3.58618C 82.6041,4.84753 82.2892,5.6781 81.712,6.07739C 81.1349,6.47681 80.6113,6.65881 80.1412,6.62317C 79.2838,6.61218 78.5841,6.30725 78.0422,5.70837C 77.5004,5.1095 77.2208,4.28259 77.2034,3.22766 Z "/>
		<path fill="#FFFFFF" fill-opacity="1" stroke-width="0.2" stroke-linejoin="round" d="M 85.9513,1.40686C 86.1083,1.58435 86.4095,1.91345 86.855,2.39417C 87.3004,2.87463 87.7992,3.41125 88.3513,4.00354C 88.8743,4.55872 89.3866,5.09155 89.8885,5.60229C 90.3904,6.11292 90.6818,6.40601 90.7625,6.48169C 91.0134,6.71216 91.1849,6.86218 91.2771,6.93225C 91.3693,7.00208 91.4348,7.03345 91.474,7.02649L 91.5353,6.92749C 91.5452,6.85132 91.5496,6.67029 91.5487,6.38464L 91.5699,1.01892C 91.5645,0.749268 91.5809,0.555908 91.6194,0.438354C 91.6578,0.321045 91.7516,0.248779 91.9008,0.221558C 92.0074,0.203491 92.082,0.196167 92.1248,0.199829L 92.2313,0.146606C 92.2225,0.116455 92.1656,0.103149 92.0607,0.106567L 90.2887,0.106567C 90.1764,0.103149 90.1166,0.116455 90.1096,0.146606L 90.1833,0.199829C 90.224,0.199585 90.2875,0.202881 90.3741,0.209351C 90.4608,0.215942 90.5481,0.227173 90.6361,0.243042C 90.7743,0.265259 90.8663,0.3396 90.9125,0.466675C 90.9585,0.593872 90.9823,0.802979 90.9835,1.09436L 91.0793,5.68433C 90.9205,5.51477 90.6342,5.20483 90.2203,4.75513C 89.8065,4.3053 89.3624,3.82837 88.8883,3.32483C 88.149,2.57263 87.5006,1.9021 86.9431,1.31311C 86.3856,0.723999 86.0585,0.378662 85.9618,0.2771C 85.9126,0.223755 85.8549,0.165405 85.7888,0.102661C 85.7228,0.0396729 85.6625,0.00549316 85.6082,-0.00012207L 85.5184,0.0931396C 85.4957,0.158936 85.484,0.28064 85.4833,0.45813L 85.4833,5.64441C 85.4869,6.04614 85.4718,6.32886 85.438,6.49243C 85.4042,6.65588 85.3304,6.74963 85.2167,6.77319C 85.1447,6.79419 85.0726,6.80835 85.0006,6.8158C 84.9286,6.82349 84.8727,6.8269 84.8326,6.82654L 84.7579,6.87317C 84.7598,6.90881 84.8094,6.92419 84.9073,6.9198L 86.7825,6.9198C 86.8912,6.92102 86.9474,6.9054 86.9509,6.87317L 86.8773,6.82654C 86.8317,6.8269 86.765,6.82349 86.6771,6.8158C 86.5895,6.80835 86.5017,6.79419 86.4139,6.77319C 86.2898,6.74878 86.2012,6.66187 86.1481,6.51233C 86.0951,6.36292 86.0643,6.10535 86.056,5.74036L 85.9513,1.40686 Z "/>
		<path fill="#FFFFFF" fill-opacity="1" stroke-width="0.2" stroke-linejoin="round" d="M 96.5634,0.505127L 97.7089,0.526245C 98.1356,0.539185 98.4249,0.590942 98.577,0.681274C 98.7291,0.771729 98.8077,0.887573 98.8126,1.02893L 98.8234,1.12524C 98.8323,1.24292 98.8571,1.29626 98.8981,1.28577C 98.9479,1.28394 98.9762,1.24475 98.9834,1.16809C 98.9847,1.08569 98.99,0.927856 98.9994,0.694458C 99.0087,0.461182 99.014,0.265381 99.0154,0.107056L 98.9727,-0.00012207C 98.9314,0.0032959 98.8434,0.0177002 98.7085,0.0426025C 98.568,0.088501 98.3492,0.111084 98.0525,0.110474L 94.5607,0.110474C 94.4999,0.110718 94.3973,0.107666 94.2526,0.101196C 94.1079,0.0946045 93.9652,0.0836182 93.8246,0.067749C 93.6992,0.0679932 93.6058,0.057373 93.5446,0.036377C 93.4833,0.0152588 93.4379,0.00305176 93.3126,0.170166C 93.2994,0.21936 93.2643,0.369263 93.2072,0.619873C 93.15,0.870483 93.1177,1.0354 93.1099,1.1145L 93.174,1.18933C 93.2166,1.19836 93.2485,1.1698 93.2699,1.10376L 93.3165,0.995483C 93.3341,0.953369 93.3683,0.893311 93.4192,0.815063C 93.4828,0.710083 93.5851,0.636475 93.726,0.59436C 93.8668,0.552368 94.0811,0.529541 94.3685,0.526245L 95.7234,0.505127L 95.7234,4.32349C 95.7242,4.76587 95.7225,5.15662 95.718,5.49622C 95.7135,5.83557 95.7012,6.10071 95.6807,6.29175C 95.6671,6.42651 95.6409,6.5365 95.6021,6.62195C 95.5631,6.70728 95.4969,6.76111 95.4033,6.78381C 95.3109,6.80872 95.2184,6.823 95.126,6.82654L 95.0514,6.86951C 95.0477,6.90417 95.0975,6.92102 95.2007,6.9198L 97.3027,6.9198C 97.4034,6.91736 97.452,6.90063 97.4485,6.86951L 97.3756,6.8158C 97.3296,6.81531 97.2654,6.81091 97.183,6.80249C 97.1005,6.79407 97.0259,6.78406 96.9591,6.77307C 96.8232,6.75085 96.733,6.69885 96.6884,6.61658C 96.6437,6.53442 96.6158,6.42603 96.605,6.29175C 96.5851,6.10071 96.5729,5.83557 96.5686,5.49622C 96.5642,5.15662 96.5625,4.76587 96.5634,4.32349L 96.5634,0.505127 Z "/>
		<path fill="#FFFFFF" fill-opacity="1" stroke-width="0.2" stroke-linejoin="round" d="M 100.96,4.30005C 100.961,4.74841 100.959,5.14478 100.953,5.48865C 100.948,5.83276 100.932,6.10168 100.907,6.29517C 100.889,6.4314 100.866,6.54126 100.836,6.62463C 100.807,6.70789 100.748,6.76086 100.661,6.78308C 100.565,6.80847 100.469,6.82288 100.373,6.82654L 100.299,6.87317C 100.3,6.9054 100.35,6.92102 100.448,6.9198L 102.538,6.9198C 102.641,6.9176 102.691,6.9021 102.687,6.87317L 102.613,6.82654C 102.566,6.82605 102.502,6.82153 102.421,6.81287C 102.339,6.80444 102.264,6.79456 102.196,6.78308C 102.057,6.76086 101.962,6.70789 101.913,6.62463C 101.865,6.54126 101.834,6.4314 101.823,6.29517C 101.802,6.10217 101.79,5.83508 101.785,5.49426C 101.781,5.1532 101.779,4.75891 101.78,4.31091L 101.78,4.09399C 101.78,4.04211 101.801,4.01721 101.844,4.01941L 103.04,4.03979C 103.093,4.03625 103.136,4.05432 103.168,4.09399C 103.274,4.22791 103.419,4.42102 103.603,4.67273C 103.786,4.92468 103.979,5.17993 104.182,5.4386C 104.439,5.78503 104.665,6.07068 104.86,6.29517C 105.055,6.51978 105.251,6.68591 105.449,6.79407C 105.56,6.83972 105.69,6.87231 105.838,6.89172C 105.987,6.91101 106.191,6.92029 106.451,6.9198L 107.038,6.9198C 107.198,6.92102 107.273,6.9054 107.262,6.87317L 107.177,6.82654C 107.131,6.83191 107.02,6.82104 106.846,6.79407C 106.731,6.78552 106.59,6.73999 106.423,6.6571C 106.257,6.5741 106.049,6.40649 105.801,6.15417C 105.529,5.86401 105.231,5.51733 104.907,5.11389C 104.583,4.71057 104.231,4.26733 103.851,3.7843C 104.277,3.41528 104.575,3.06262 104.745,2.72595C 104.915,2.3894 104.997,2.05481 104.99,1.72192C 104.978,1.40649 104.9,1.14368 104.756,0.933228C 104.613,0.722778 104.477,0.574341 104.349,0.487549C 104.101,0.327393 103.823,0.222534 103.517,0.173218C 103.211,0.124146 102.906,0.101807 102.602,0.106567L 100.309,0.106567C 100.206,0.104736 100.156,0.128662 100.235,0.249634C 100.281,0.225952 100.335,0.213623 100.399,0.212646C 100.462,0.21167 100.514,0.214478 100.555,0.221069C 100.705,0.241577 100.805,0.292236 100.855,0.373291C 100.905,0.454346 100.933,0.572388 100.939,0.727417C 100.949,0.848022 100.955,1.03528 100.957,1.28894C 100.96,1.54285 100.96,2.01282 100.96,2.69897L 100.96,4.30005 Z M 101.78,0.572632C 101.784,0.52124 101.808,0.485718 101.855,0.466187C 101.907,0.454834 101.997,0.443237 102.123,0.431763C 102.249,0.420288 102.384,0.414185 102.527,0.413208C 103.034,0.416748 103.43,0.571899 103.715,0.878662C 104,1.18542 104.145,1.62268 104.15,2.19019C 104.146,2.53723 104.092,2.82751 103.987,3.0614C 103.882,3.29529 103.748,3.46606 103.584,3.57349C 103.471,3.64539 103.353,3.69067 103.232,3.70923C 103.11,3.72778 102.993,3.73596 102.88,3.73315C 102.663,3.73206 102.456,3.71838 102.258,3.69202C 102.06,3.66565 101.922,3.63318 101.844,3.59485C 101.801,3.56653 101.78,3.52747 101.78,3.47778L 101.78,0.572632 Z "/>
		<path fill="#FFFFFF" fill-opacity="1" stroke-width="0.2" stroke-linejoin="round" d="M 107.403,3.47009C 107.395,4.32385 107.68,5.11646 108.258,5.84839C 108.837,6.5802 109.759,6.9696 111.024,7.01648C 112.159,6.98816 113.06,6.62476 113.727,5.92615C 114.394,5.22742 114.735,4.36304 114.75,3.33313C 114.728,2.28064 114.377,1.46411 113.698,0.883545C 113.019,0.302856 112.145,0.00817871 111.077,-0.00012207C 109.8,0.0540771 108.867,0.451904 108.277,1.19324C 107.687,1.93445 107.396,2.69348 107.403,3.47009 Z M 108.35,3.22766C 108.364,2.25232 108.616,1.52173 109.104,1.03552C 109.593,0.549194 110.233,0.306274 111.024,0.306519C 111.782,0.308716 112.429,0.586304 112.964,1.13953C 113.5,1.69275 113.779,2.50842 113.803,3.58618C 113.751,4.84753 113.436,5.6781 112.859,6.07739C 112.282,6.47681 111.758,6.65881 111.288,6.62317C 110.43,6.61218 109.731,6.30725 109.189,5.70837C 108.647,5.1095 108.367,4.28259 108.35,3.22766 Z "/>
		<path fill="#FFFFFF" fill-opacity="1" stroke-width="0.2" stroke-linejoin="round" d="M 117.683,2.71069C 117.683,2.02429 117.683,1.55408 117.685,1.30017C 117.686,1.04626 117.689,0.859009 117.694,0.738403C 117.701,0.578735 117.727,0.458862 117.774,0.378662C 117.821,0.298584 117.911,0.245972 118.046,0.221069C 118.102,0.215454 118.158,0.210571 118.217,0.206421C 118.275,0.202271 118.321,0.200073 118.43,0.15686C 118.428,0.121948 118.379,0.105347 118.281,0.106567L 116.193,0.106567C 116.089,0.105347 116.04,0.122192 116.118,0.210205C 116.164,0.210571 116.219,0.212769 116.282,0.217041C 116.345,0.221313 116.397,0.226196 116.438,0.231812C 116.588,0.252197 116.688,0.302979 116.738,0.384033C 116.788,0.465088 116.816,0.583252 116.822,0.738403C 116.832,0.859009 116.839,1.04626 116.841,1.30017C 116.843,1.55408 116.844,2.02429 116.843,2.71069L 116.843,4.32739C 116.844,4.78455 116.842,5.18579 116.837,5.53149C 116.831,5.87708 116.816,6.14624 116.79,6.33923C 116.772,6.47534 116.749,6.58484 116.719,6.66821C 116.69,6.75134 116.631,6.80408 116.545,6.82654C 116.449,6.8158 116.353,6.8158 116.257,6.82654L 116.182,6.87317C 116.184,6.9635 116.234,7.00403 116.331,6.99475C 116.491,6.99292 116.672,6.9856 116.875,6.97278C 117.069,6.92859 117.195,6.91101 117.253,6.9198C 117.515,6.92163 117.854,6.92883 118.27,6.94116C 118.697,6.99841 119.241,7.02368 119.902,7.01648C 120.142,7.01978 120.297,7.00513 120.365,6.97278C 120.433,6.94055 120.478,6.87134 120.5,6.76526C 120.538,6.61438 120.57,6.43958 120.597,6.24084C 120.623,6.04211 120.637,5.91089 120.638,5.84705C 120.638,5.75208 120.617,5.70532 120.574,5.70715C 120.521,5.71423 120.489,5.75378 120.478,5.82556C 120.446,6.01965 120.371,6.19214 120.254,6.34302C 120.14,6.47253 119.984,6.55298 119.789,6.58411C 119.593,6.61536 119.371,6.6283 119.123,6.62317C 118.759,6.62366 118.477,6.60657 118.279,6.57202C 118.081,6.53735 117.947,6.48267 117.875,6.40759C 117.793,6.33533 117.739,6.14038 117.715,5.82288C 117.691,5.50549 117.681,5.01404 117.683,4.349L 117.683,2.71069 Z "/>
		<path fill="#FFFFFF" fill-opacity="1" stroke-width="0.2" stroke-linejoin="round" d="M 123.121,7.01648C 123.38,7.01941 123.641,6.99634 123.904,6.94702C 124.167,6.89783 124.399,6.80542 124.599,6.66956C 124.928,6.45056 125.157,6.21008 125.286,5.94751C 125.414,5.68494 125.475,5.42224 125.47,5.15906C 125.477,4.78601 125.365,4.43127 125.132,4.0946C 124.899,3.75806 124.504,3.4032 123.945,3.0304L 123.681,2.85376C 123.231,2.55847 122.918,2.30286 122.74,2.08667C 122.562,1.87048 122.476,1.62781 122.483,1.35852C 122.493,1.04602 122.614,0.80896 122.847,0.647217C 123.079,0.485474 123.369,0.404053 123.715,0.403198C 124.125,0.414795 124.422,0.474487 124.604,0.582275C 124.787,0.690063 124.891,0.775635 124.917,0.839233C 124.946,0.891846 124.974,0.963135 125.002,1.05347C 125.031,1.14368 125.048,1.21753 125.056,1.27527C 125.057,1.34985 125.086,1.38782 125.141,1.38953C 125.197,1.32361 125.222,1.22974 125.215,1.10803C 125.229,0.508423 125.243,0.19458 125.257,0.166626C 125.263,0.12146 125.231,0.10144 125.162,0.106567C 125.105,0.113647 124.995,0.0993652 124.832,0.0638428C 124.718,0.0632324 124.577,0.0548096 124.408,0.0383301C 124.239,0.0218506 124.06,0.0123291 123.873,0.0098877C 123.255,0.0158691 122.766,0.169678 122.407,0.471313C 122.048,0.772827 121.864,1.18628 121.857,1.71155C 121.849,2.01208 121.941,2.31165 122.134,2.60974C 122.326,2.90784 122.663,3.2384 123.147,3.60144L 123.568,3.91296C 123.976,4.20093 124.273,4.453 124.46,4.66968C 124.647,4.88611 124.739,5.14624 124.737,5.44983C 124.736,5.78943 124.619,6.06812 124.385,6.28577C 124.151,6.5033 123.805,6.61584 123.347,6.62317C 123.02,6.62708 122.715,6.56213 122.431,6.42847C 122.147,6.2948 121.962,6.06897 121.875,5.75085C 121.849,5.61755 121.838,5.51038 121.843,5.42896C 121.842,5.35803 121.815,5.32349 121.763,5.32507C 121.715,5.3269 121.692,5.37537 121.693,5.47058C 121.687,5.54578 121.677,5.66528 121.665,5.82886C 121.652,5.99231 121.645,6.18445 121.643,6.40515C 121.641,6.52075 121.648,6.59973 121.663,6.64221C 121.679,6.68469 121.715,6.72083 121.773,6.75037C 121.967,6.84753 122.185,6.91638 122.426,6.95728C 122.667,6.99792 122.899,7.0177 123.121,7.01648 Z "/>
	</g>
</svg>