<?xml version="1.0" encoding="UTF-8"?>
<!DOCTYPE svg PUBLIC "-//W3C//DTD SVG 1.1//EN" "http://www.w3.org/Graphics/SVG/1.1/DTD/svg11.dtd">
<svg xmlns="http://www.w3.org/2000/svg" xmlns:xlink="http://www.w3.org/1999/xlink" version="1.1" baseProfile="full" width="28" height="28" viewBox="0 0 28.00 28.00" enable-background="new 0 0 28.00 28.00" xml:space="preserve" preserveAspectRatio="none slice">
	<path fill="#FFFFFF" fill-opacity="1" stroke-width="0.700002" stroke-linejoin="round" stroke="#474747" stroke-opacity="1" d="M 4.17041,17.7653C 4.17078,17.7655 0.133301,12.7533 3.53284,7.66711C 3.53271,7.66711 5.76404,4.75354 11.4479,5.04993L 17.4507,5.04993L 17.7163,1.24768L 24.4629,6.82764L 17.8226,12.1113L 17.557,8.7041L 9.90735,8.65479C 9.9071,8.65479 5.49841,9.39539 6.29504,12.6544C 6.29504,12.6544 6.08264,14.2347 8.52625,16.1112L 4.17041,17.7653 Z "/>
	<path fill="#FFFFFF" fill-opacity="1" stroke-width="0.700002" stroke-linejoin="round" stroke="#474747" stroke-opacity="1" d="M 19.4922,11.9784L 23.8253,10.2754C 23.8253,10.2754 27.8624,15.2875 24.4629,20.3735C 24.463,20.3735 22.2318,23.2871 16.5479,22.9907L 10.545,22.9907L 10.2794,26.793L 3.53284,21.213L 10.1732,15.9293L 10.4388,19.3365L 18.0884,19.3859C 18.0885,19.3859 22.4972,18.6454 21.7007,15.3862C 21.7007,15.3862 21.9126,13.8058 19.4922,11.9784 Z "/>
</svg>