<?xml version="1.0" encoding="UTF-8"?>
<!DOCTYPE svg PUBLIC "-//W3C//DTD SVG 1.1//EN" "http://www.w3.org/Graphics/SVG/1.1/DTD/svg11.dtd">
<svg xmlns="http://www.w3.org/2000/svg" xmlns:xlink="http://www.w3.org/1999/xlink" version="1.1" baseProfile="full" width="43" height="7" viewBox="0 0 43.00 7.00" enable-background="new 0 0 43.00 7.00" xml:space="preserve" preserveAspectRatio="none slice">
	<g>
		<path fill="#FFFFFF" fill-opacity="1" stroke-width="0.2" stroke-linejoin="round" d="M 0.800049,4.30005C 0.801147,4.74854 0.79895,5.14478 0.793335,5.48877C 0.787842,5.83276 0.772339,6.10168 0.746704,6.29517C 0.729126,6.4314 0.705566,6.54126 0.676025,6.62463C 0.646484,6.70801 0.588257,6.76086 0.501343,6.7832C 0.405396,6.80859 0.309326,6.82288 0.213257,6.82666L 0.138672,6.87317C 0.140503,6.9054 0.190186,6.92102 0.287964,6.91992L 2.37805,6.91992C 2.4812,6.9176 2.53101,6.9021 2.52747,6.87317L 2.45276,6.82666C 2.40601,6.82617 2.34192,6.82153 2.26062,6.81299C 2.1792,6.80444 2.10437,6.79456 2.03638,6.7832C 1.89673,6.76086 1.80237,6.70801 1.75354,6.62463C 1.70459,6.54126 1.67432,6.4314 1.66272,6.29517C 1.64221,6.10217 1.62976,5.83508 1.62537,5.49426C 1.62097,5.15332 1.61914,4.75891 1.62,4.31104L 1.62,4.09399C 1.62,4.04211 1.64136,4.01721 1.68408,4.01953L 2.87976,4.03979C 2.93311,4.03625 2.97583,4.05432 3.00781,4.09399C 3.11414,4.22803 3.25916,4.42102 3.44275,4.67285C 3.62646,4.9248 3.81946,5.17993 4.02161,5.4386C 4.27869,5.78516 4.50476,6.0708 4.70007,6.29517C 4.89514,6.51978 5.09143,6.68604 5.2887,6.79407C 5.39978,6.83984 5.52966,6.87231 5.6781,6.89172C 5.82654,6.91113 6.03101,6.92041 6.29138,6.91992L 6.87817,6.91992C 7.03821,6.92102 7.11292,6.9054 7.10217,6.87317L 7.01685,6.82666C 6.97058,6.83203 6.86035,6.82104 6.68616,6.79407C 6.57129,6.78564 6.4303,6.73999 6.26343,6.65723C 6.09656,6.57422 5.88904,6.40649 5.64075,6.1543C 5.36902,5.86401 5.07117,5.51733 4.74719,5.11389C 4.42322,4.71057 4.07117,4.26733 3.69104,3.7843C 4.11731,3.41528 4.41541,3.06262 4.58533,2.72607C 4.75513,2.3894 4.83667,2.05481 4.83008,1.72192C 4.81775,1.40649 4.73987,1.14368 4.59644,0.933228C 4.45288,0.722778 4.31726,0.574341 4.18958,0.487549C 3.94067,0.327393 3.66321,0.222656 3.35706,0.17334C 3.0509,0.124146 2.74597,0.101807 2.44202,0.106567L 0.149292,0.106567C 0.0462646,0.104736 -0.00354004,0.128662 0.074585,0.249634C 0.120728,0.226074 0.175415,0.213623 0.238647,0.212646C 0.302002,0.21167 0.354004,0.214478 0.394653,0.221191C 0.544678,0.241699 0.644653,0.292236 0.694702,0.373291C 0.744751,0.454346 0.772705,0.572388 0.778687,0.727539C 0.78894,0.848145 0.795166,1.03528 0.797363,1.28906C 0.799561,1.54297 0.800415,2.01282 0.800049,2.69897L 0.800049,4.30005 Z M 1.62,0.572754C 1.62366,0.52124 1.64856,0.48584 1.6947,0.466309C 1.74744,0.454834 1.83691,0.443359 1.96301,0.431763C 2.08911,0.42041 2.22388,0.414185 2.36731,0.413208C 2.8739,0.416748 3.2699,0.571899 3.55505,0.878662C 3.84009,1.18555 3.98511,1.62268 3.99011,2.19019C 3.98645,2.53723 3.93225,2.82764 3.82727,3.06152C 3.72229,3.29541 3.58789,3.46606 3.42419,3.57349C 3.31079,3.64551 3.19336,3.69067 3.0719,3.70923C 2.95044,3.72778 2.83301,3.73596 2.7196,3.73315C 2.50305,3.73206 2.29578,3.71838 2.09778,3.69202C 1.89978,3.66565 1.76196,3.6333 1.68408,3.59485C 1.64136,3.56653 1.62,3.52747 1.62,3.47778L 1.62,0.572754 Z "/>
		<path fill="#FFFFFF" fill-opacity="1" stroke-width="0.2" stroke-linejoin="round" d="M 8.04333,4.32678C 8.04443,4.78052 8.04224,5.18042 8.03674,5.52649C 8.03113,5.87268 8.0155,6.1427 7.98999,6.33691C 7.97253,6.47424 7.94885,6.58569 7.91931,6.67151C 7.88977,6.75708 7.83154,6.80884 7.74463,6.82666C 7.64868,6.81055 7.55261,6.81055 7.45667,6.82666L 7.38196,6.87317C 7.38379,6.9635 7.43347,7.00403 7.53137,6.99475C 7.69678,6.99292 7.87793,6.9856 8.07483,6.97278C 8.17737,6.94751 8.26624,6.93213 8.34131,6.92651C 8.41638,6.92102 8.46057,6.9187 8.47388,6.91992C 8.60132,6.91626 8.86084,6.92346 9.25232,6.94116C 9.64294,6.99316 10.1964,7.01819 10.9125,7.0166C 11.0623,7.02161 11.1704,7.01147 11.2369,6.98645C 11.3036,6.96155 11.3511,6.89136 11.3794,6.77612C 11.4081,6.65747 11.436,6.49341 11.4634,6.28381C 11.4907,6.07434 11.5054,5.94299 11.4434,5.7229C 11.3954,5.72473 11.3634,5.78052 11.3474,5.89014C 11.3209,6.07031 11.2753,6.20862 11.2106,6.30518C 11.1459,6.40186 11.0612,6.47534 10.9567,6.52612C 10.8334,6.57275 10.6803,6.60107 10.4976,6.61108C 10.3148,6.62122 10.1566,6.62524 10.0227,6.62317C 9.5636,6.6311 9.25842,6.58569 9.10718,6.48706C 8.95593,6.38843 8.88135,6.18958 8.88342,5.89014C 8.87878,5.76428 8.87744,5.52002 8.87939,5.15698C 8.88135,4.79407 8.88269,4.51721 8.88342,4.32678L 8.88342,3.56128L 8.94849,3.49658C 9.0636,3.49634 9.29187,3.49951 9.63342,3.50598C 9.97498,3.5127 10.2278,3.52393 10.3917,3.53979C 10.5714,3.56226 10.6948,3.59814 10.762,3.64758C 10.8291,3.69702 10.8685,3.75452 10.88,3.82007C 10.9161,3.93701 10.9305,4.0376 10.9233,4.12207L 11.0167,4.03577C 11.0172,3.99426 11.0216,3.91016 11.03,3.7832C 11.0385,3.65637 11.0482,3.5415 11.0593,3.43872C 11.0948,3.12854 11.1198,2.95422 11.134,2.91577L 11.0807,2.8429L 10.9701,2.95752C 10.9041,3.03564 10.7583,3.07715 10.5327,3.08228C 10.3788,3.09241 10.1007,3.09839 9.69861,3.10059C 9.29639,3.10278 9.04272,3.10364 8.93762,3.10315C 8.89246,3.10315 8.87439,3.0719 8.88342,3.00952L 8.88342,0.603638L 8.93762,0.509888C 9.03235,0.509888 9.25525,0.512451 9.60632,0.5177C 9.9574,0.522949 10.1938,0.530762 10.3158,0.541138C 10.5684,0.570557 10.7375,0.605225 10.8231,0.645264C 10.9088,0.685181 10.9579,0.740723 10.9701,0.812012C 10.983,0.866699 10.9919,0.92395 10.9967,0.983643C 11.0013,1.04358 11.0037,1.09045 11.0033,1.12427C 10.9989,1.19897 11.0211,1.2373 11.0699,1.23889C 11.1145,1.22852 11.1429,1.19727 11.1554,1.14514C 11.1663,1.06006 11.1764,0.946411 11.186,0.804443C 11.1956,0.66272 11.2031,0.564453 11.2086,0.509888C 11.2443,0.272583 11.2692,0.130859 11.2833,0.0847168L 11.2407,0C 11.198,0.00878906 11.1554,0.0229492 11.1127,0.0422363C 11.043,0.0773926 10.9183,0.102295 10.7389,0.116455C 10.5536,0.121582 10.1567,0.123047 9.54858,0.12085C 8.94055,0.118774 8.58215,0.11731 8.47388,0.116455C 8.4325,0.115723 8.29907,0.112061 8.07361,0.105957C 7.84802,0.0997314 7.62109,0.0961914 7.3927,0.0952148C 7.28955,0.0927734 7.23975,0.119141 7.24329,0.174438L 7.31799,0.255371C 7.36401,0.229004 7.41858,0.215088 7.48206,0.213623C 7.54529,0.212036 7.59729,0.2146 7.63806,0.221436C 7.78796,0.241821 7.88806,0.292236 7.93799,0.372803C 7.98804,0.453369 8.01599,0.570801 8.02209,0.724854C 8.03223,0.844849 8.03845,1.03088 8.04065,1.28333C 8.04285,1.53577 8.04382,2.00317 8.04333,2.6853L 8.04333,4.32678 Z "/>
		<path fill="#FFFFFF" fill-opacity="1" stroke-width="0.2" stroke-linejoin="round" d="M 17.0298,7.0166C 17.3452,7.01733 17.6586,7.00403 17.97,6.97668C 18.2814,6.94946 18.5382,6.90344 18.7406,6.83862C 18.8177,6.81372 18.8706,6.78625 18.899,6.75635C 18.9276,6.72656 18.9532,6.67505 18.976,6.60217C 19.0267,6.42407 19.0756,6.2019 19.1226,5.93555C 19.1696,5.66907 19.1947,5.50757 19.1981,5.45117C 19.1909,5.37183 19.1625,5.32446 19.1129,5.30872C 19.0602,5.30872 19.0287,5.35608 19.0182,5.45117C 19.002,5.5437 18.963,5.66467 18.9011,5.81409C 18.8394,5.9635 18.7572,6.09241 18.6545,6.20081C 18.4691,6.38013 18.2509,6.4967 17.9995,6.55054C 17.7482,6.60449 17.4465,6.62866 17.0944,6.62317C 16.0673,6.59534 15.2458,6.26831 14.6302,5.64258C 14.0148,5.0166 13.6991,4.2594 13.6833,3.37073C 13.6752,2.91528 13.7294,2.49036 13.8461,2.0957C 13.9629,1.70093 14.192,1.34448 14.5334,1.02649C 14.6921,0.866455 14.9369,0.724365 15.2678,0.600098C 15.5988,0.475708 16.0641,0.410156 16.6639,0.40332C 17.0878,0.406738 17.4613,0.4552 17.7843,0.548462C 18.1073,0.641846 18.3544,0.758911 18.5254,0.899658C 18.6503,0.998535 18.7476,1.12842 18.8173,1.28918C 18.8868,1.44995 18.9222,1.61938 18.9235,1.79736C 18.9164,1.93799 18.9409,2.01526 18.9971,2.02905C 19.0532,2.02051 19.0883,1.94312 19.1023,1.79736C 19.1072,1.72217 19.1107,1.59009 19.1129,1.40137C 19.1151,1.21252 19.1185,1.03833 19.1234,0.878662C 19.1345,0.718994 19.1443,0.602661 19.1527,0.529907C 19.1611,0.457031 19.1656,0.403564 19.166,0.369385C 19.1748,0.307739 19.136,0.274048 19.0497,0.268311C 18.7509,0.247681 18.4291,0.198975 18.0842,0.122192C 17.848,0.0831299 17.6077,0.0546875 17.3634,0.0366211C 17.119,0.0185547 16.9003,0.00976563 16.7069,0.0098877C 15.9869,0.0172119 15.396,0.114014 14.9342,0.300415C 14.4725,0.486572 14.1022,0.718262 13.8232,0.994751C 13.4435,1.4104 13.1833,1.84375 13.0428,2.29504C 12.9022,2.74622 12.8358,3.12939 12.8434,3.44458C 12.834,3.88098 12.9041,4.33374 13.0536,4.80298C 13.203,5.27222 13.4883,5.70654 13.9093,6.10571C 14.2754,6.41516 14.7108,6.64453 15.2153,6.79395C 15.72,6.94312 16.3248,7.01733 17.0298,7.0166 Z "/>
		<path fill="#FFFFFF" fill-opacity="1" stroke-width="0.2" stroke-linejoin="round" d="M 20.4167,3.47021C 20.4083,4.32385 20.6935,5.11646 21.2719,5.84839C 21.8502,6.5802 22.772,6.96973 24.0371,7.0166C 25.1725,6.98828 26.0736,6.62476 26.7404,5.92627C 27.4071,5.22754 27.7482,4.36304 27.7633,3.33313C 27.7411,2.28076 27.3904,1.46411 26.7113,0.883545C 26.0322,0.302856 25.1584,0.00830078 24.09,0C 22.8134,0.0541992 21.8801,0.451904 21.2903,1.19336C 20.7004,1.93457 20.4093,2.69348 20.4167,3.47021 Z M 21.3634,3.22766C 21.3777,2.25244 21.6292,1.52173 22.1177,1.03564C 22.6062,0.549316 23.246,0.306274 24.0371,0.306641C 24.7955,0.308716 25.4425,0.586426 25.9778,1.13965C 26.5131,1.69287 26.7927,2.50842 26.8168,3.58618C 26.764,4.84766 26.4492,5.67822 25.8721,6.07739C 25.2949,6.47681 24.7714,6.65881 24.3013,6.62317C 23.4437,6.6123 22.744,6.30725 22.2023,5.7085C 21.6604,5.1095 21.3807,4.28271 21.3634,3.22766 Z "/>
		<path fill="#FFFFFF" fill-opacity="1" stroke-width="0.2" stroke-linejoin="round" d="M 29.76,4.30005C 29.7611,4.74854 29.7589,5.14478 29.7533,5.48877C 29.7478,5.83276 29.7323,6.10168 29.7067,6.29517C 29.6891,6.4314 29.6655,6.54126 29.636,6.62463C 29.6064,6.70801 29.5482,6.76086 29.4613,6.7832C 29.3654,6.80859 29.2693,6.82288 29.1732,6.82666L 29.0986,6.87317C 29.1005,6.9054 29.1501,6.92102 29.2479,6.91992L 31.338,6.91992C 31.4412,6.9176 31.491,6.9021 31.4874,6.87317L 31.4127,6.82666C 31.366,6.82617 31.3019,6.82153 31.2206,6.81299C 31.1392,6.80444 31.0643,6.79456 30.9963,6.7832C 30.8567,6.76086 30.7623,6.70801 30.7135,6.62463C 30.6646,6.54126 30.6343,6.4314 30.6227,6.29517C 30.6022,6.10217 30.5897,5.83508 30.5853,5.49426C 30.5809,5.15332 30.5791,4.75891 30.58,4.31104L 30.58,4.09399C 30.58,4.04211 30.6013,4.01721 30.644,4.01953L 31.8397,4.03979C 31.8931,4.03625 31.9358,4.05432 31.9678,4.09399C 32.0741,4.22803 32.2191,4.42102 32.4027,4.67285C 32.5864,4.9248 32.7794,5.17993 32.9816,5.4386C 33.2386,5.78516 33.4647,6.0708 33.66,6.29517C 33.8551,6.51978 34.0514,6.68604 34.2487,6.79407C 34.3597,6.83984 34.4896,6.87231 34.6381,6.89172C 34.7865,6.91113 34.991,6.92041 35.2513,6.91992L 35.8381,6.91992C 35.9982,6.92102 36.0729,6.9054 36.0621,6.87317L 35.9768,6.82666C 35.9305,6.83203 35.8203,6.82104 35.6461,6.79407C 35.5313,6.78564 35.3903,6.73999 35.2234,6.65723C 35.0565,6.57422 34.849,6.40649 34.6007,6.1543C 34.329,5.86401 34.0311,5.51733 33.7072,5.11389C 33.3832,4.71057 33.0311,4.26733 32.651,3.7843C 33.0773,3.41528 33.3754,3.06262 33.5453,2.72607C 33.7151,2.3894 33.7966,2.05481 33.79,1.72192C 33.7777,1.40649 33.6998,1.14368 33.5564,0.933228C 33.4128,0.722778 33.2772,0.574341 33.1495,0.487549C 32.9006,0.327393 32.6232,0.222656 32.317,0.17334C 32.0109,0.124146 31.7059,0.101807 31.402,0.106567L 29.1093,0.106567C 29.0062,0.104736 28.9564,0.128662 29.0345,0.249634C 29.0807,0.226074 29.1354,0.213623 29.1986,0.212646C 29.262,0.21167 29.314,0.214478 29.3546,0.221191C 29.5046,0.241699 29.6046,0.292236 29.6547,0.373291C 29.7047,0.454346 29.7327,0.572388 29.7386,0.727539C 29.7489,0.848145 29.7551,1.03528 29.7573,1.28906C 29.7595,1.54297 29.7604,2.01282 29.76,2.69897L 29.76,4.30005 Z M 30.58,0.572754C 30.5836,0.52124 30.6085,0.48584 30.6547,0.466309C 30.7074,0.454834 30.7969,0.443359 30.923,0.431763C 31.0491,0.42041 31.1838,0.414185 31.3273,0.413208C 31.8339,0.416748 32.2299,0.571899 32.515,0.878662C 32.8,1.18555 32.9451,1.62268 32.9501,2.19019C 32.9464,2.53723 32.8922,2.82764 32.7872,3.06152C 32.6823,3.29541 32.5479,3.46606 32.3842,3.57349C 32.2708,3.64551 32.1533,3.69067 32.0319,3.70923C 31.9104,3.72778 31.793,3.73596 31.6796,3.73315C 31.463,3.73206 31.2557,3.71838 31.0577,3.69202C 30.8597,3.66565 30.7219,3.6333 30.644,3.59485C 30.6013,3.56653 30.58,3.52747 30.58,3.47778L 30.58,0.572754 Z "/>
		<path fill="#FFFFFF" fill-opacity="1" stroke-width="0.2" stroke-linejoin="round" d="M 37.0033,4.33472C 37.0044,4.7749 37.0022,5.16479 36.9967,5.50439C 36.9911,5.84387 36.9755,6.1095 36.95,6.30103C 36.9325,6.43579 36.9088,6.54443 36.8793,6.62671C 36.8497,6.70923 36.7915,6.76147 36.7046,6.78369C 36.6086,6.80872 36.5126,6.823 36.4166,6.82666L 36.3419,6.87317C 36.3438,6.9054 36.3934,6.92102 36.4913,6.91992C 36.5682,6.91968 36.6571,6.91846 36.7579,6.91565C 36.8586,6.91309 36.958,6.90991 37.0558,6.90649C 37.153,6.9176 37.2369,6.92285 37.3077,6.92212C 37.3787,6.92163 37.4207,6.9209 37.4338,6.91992C 37.4586,6.92004 37.5402,6.92493 37.6786,6.93457C 37.8168,6.94409 37.9889,6.95703 38.1947,6.97327C 38.401,6.98608 38.6193,6.99817 38.8495,7.00903C 39.0797,7.02002 39.2981,7.02588 39.5044,7.02649C 40.2963,7.01038 40.9192,6.89355 41.373,6.67578C 41.8269,6.45813 42.1517,6.23645 42.3473,6.01086C 42.5992,5.74072 42.816,5.38928 42.9978,4.95654C 43.1796,4.52393 43.2748,4.01929 43.2833,3.44299C 43.2751,2.90112 43.1888,2.43774 43.0245,2.05298C 42.86,1.66821 42.6664,1.35803 42.4432,1.12231C 41.8607,0.598267 41.2129,0.29126 40.4999,0.201416C 39.787,0.111816 39.1818,0.0800781 38.6844,0.106567L 36.3527,0.106567C 36.2495,0.10498 36.1997,0.128052 36.278,0.245117C 36.324,0.223633 36.3785,0.212646 36.442,0.212402C 36.5052,0.212036 36.5573,0.215088 36.598,0.221802C 36.7479,0.242188 36.848,0.293091 36.8979,0.374146C 36.948,0.455322 36.976,0.57373 36.9821,0.729126C 36.9922,0.849854 36.9984,1.03735 37.0006,1.29175C 37.0028,1.54602 37.0038,2.01685 37.0033,2.70435L 37.0033,4.33472 Z M 37.8434,0.6604C 37.8397,0.562012 37.8788,0.500977 37.9604,0.477661C 38.0099,0.460938 38.0919,0.446045 38.2067,0.43335C 38.3214,0.420654 38.4274,0.413818 38.5248,0.413208C 39.0851,0.399414 39.6202,0.456665 40.13,0.585083C 40.6396,0.713623 41.1162,0.996582 41.5594,1.43384C 41.7639,1.62598 41.9591,1.91077 42.1451,2.28809C 42.3311,2.66553 42.4304,3.14355 42.4432,3.72229C 42.4432,4.15051 42.3821,4.5592 42.2595,4.94849C 42.1371,5.33765 41.9534,5.65247 41.7085,5.89258C 41.1263,6.43701 40.3953,6.71265 39.515,6.71985C 38.973,6.71545 38.5902,6.67603 38.3663,6.60168C 38.1426,6.52747 38.0072,6.44495 37.9604,6.35461C 37.9241,6.29907 37.8983,6.20605 37.8832,6.07532C 37.8682,5.94458 37.8584,5.81909 37.8539,5.69922C 37.8489,5.60168 37.8458,5.36975 37.8446,5.00354C 37.8435,4.63733 37.8431,4.20667 37.8434,3.71155L 37.8434,0.6604 Z "/>
	</g>
</svg>