<?xml version="1.0" encoding="UTF-8"?>
<!DOCTYPE svg PUBLIC "-//W3C//DTD SVG 1.1//EN" "http://www.w3.org/Graphics/SVG/1.1/DTD/svg11.dtd">
<svg xmlns="http://www.w3.org/2000/svg" xmlns:xlink="http://www.w3.org/1999/xlink" version="1.1" baseProfile="full" width="99.4615" height="34.7201" viewBox="0 0 99.46 34.72" enable-background="new 0 0 99.46 34.72" xml:space="preserve" preserveAspectRatio="none slice">
	<g>
		<path fill="#000000" fill-opacity="1" stroke-width="0.2" stroke-linejoin="round" d="M 19.8848,8.66504C 19.8837,6.66748 19.8859,5.30029 19.8915,4.5636C 19.897,3.82703 19.9126,3.28284 19.9381,2.93115C 19.9576,2.46985 20.0387,2.11816 20.1815,1.87598C 20.3243,1.63367 20.5721,1.48096 20.9249,1.41797C 21.2137,1.36487 21.436,1.3385 21.5916,1.3385C 21.7161,1.3385 21.7872,1.30518 21.8049,1.23865C 21.8094,1.14404 21.6671,1.09961 21.3782,1.1051L 15.8694,1.1051C 15.577,1.09961 15.4331,1.14404 15.4376,1.23865C 15.4556,1.30518 15.5276,1.3385 15.6534,1.3385C 15.7845,1.3385 15.9408,1.34521 16.1224,1.3584C 16.304,1.37158 16.4536,1.39148 16.5711,1.41797C 17.0057,1.50586 17.3038,1.66846 17.4651,1.90576C 17.6265,2.14307 17.7154,2.48486 17.7317,2.93115C 17.7571,3.28284 17.7726,3.82703 17.7781,4.5636C 17.7837,5.30029 17.7859,6.66748 17.7848,8.66504L 17.7848,9.22253C 17.7716,9.34192 17.7179,9.39514 17.6238,9.38184L 6.18005,9.38184C 6.08557,9.39514 6.03162,9.34192 6.01813,9.22253L 6.01813,8.66504C 6.01697,6.66748 6.01929,5.30029 6.0249,4.5636C 6.03052,3.82703 6.04626,3.28284 6.07208,2.93115C 6.0918,2.46985 6.17389,2.11816 6.31842,1.87598C 6.46289,1.63367 6.71368,1.48096 7.0708,1.41797C 7.3631,1.36487 7.58801,1.3385 7.74548,1.3385C 7.8714,1.3385 7.94342,1.30518 7.96143,1.23865C 7.96588,1.14404 7.8219,1.09961 7.5296,1.1051L 2.02472,1.1051C 1.73584,1.09961 1.59357,1.14404 1.59796,1.23865C 1.61578,1.30518 1.68689,1.3385 1.81134,1.3385C 1.9408,1.3385 2.09528,1.34521 2.27472,1.3584C 2.45416,1.37158 2.60193,1.39148 2.71808,1.41797C 3.14752,1.50586 3.44202,1.66846 3.60144,1.90576C 3.76086,2.14307 3.84869,2.48486 3.86481,2.93115C 3.89038,3.28284 3.90588,3.82703 3.91144,4.5636C 3.91705,5.30029 3.91925,6.66748 3.91809,8.66504L 3.91809,13.3905C 3.92096,14.6971 3.91534,15.8551 3.90149,16.8649C 3.88757,17.8746 3.84869,18.6685 3.78479,19.2465C 3.73926,19.6439 3.6637,19.9756 3.55811,20.2416C 3.45251,20.5073 3.27032,20.6704 3.01147,20.7306C 2.74475,20.7936 2.47809,20.8296 2.21143,20.8385C 2.0603,20.8468 1.98914,20.8802 1.99805,20.9385C 1.99353,21.0331 2.1358,21.0775 2.42468,21.0719L 8.20435,21.0719C 8.4967,21.0692 8.64063,21.0245 8.63611,20.9385C 8.64514,20.8802 8.57312,20.8468 8.42023,20.8385C 8.28693,20.8374 8.10138,20.8262 7.86359,20.8048C 7.62573,20.7833 7.40637,20.7588 7.20569,20.7306C 6.81262,20.6704 6.54614,20.5073 6.40613,20.2416C 6.26611,19.9756 6.18176,19.6439 6.15308,19.2465C 6.08844,18.6685 6.04907,17.8746 6.03497,16.8649C 6.021,15.8551 6.01538,14.6971 6.01813,13.3905L 6.01813,10.557C 6.03162,10.4355 6.08557,10.3817 6.18005,10.3951L 17.6238,10.3951C 17.7179,10.3951 17.7716,10.4491 17.7848,10.557L 17.7848,13.3905C 17.7876,14.6971 17.782,15.8551 17.7681,16.8649C 17.754,17.8746 17.715,18.6685 17.6507,19.2465C 17.6046,19.6439 17.5281,19.9756 17.4213,20.2416C 17.3145,20.5073 17.13,20.6704 16.868,20.7306C 16.5981,20.7936 16.3282,20.8296 16.0583,20.8385C 15.9054,20.8468 15.8334,20.8802 15.8424,20.9385C 15.838,21.0331 15.9818,21.0775 16.2742,21.0719L 22.0449,21.0719C 22.3339,21.0692 22.4761,21.0245 22.4717,20.9385C 22.4805,20.8802 22.4094,20.8468 22.2583,20.8385C 22.1266,20.8374 21.9432,20.8262 21.7083,20.8048C 21.4732,20.7833 21.2566,20.7588 21.0582,20.7306C 20.6698,20.6704 20.4065,20.5073 20.2682,20.2416C 20.1299,19.9756 20.0465,19.6439 20.0181,19.2465C 19.9542,18.6685 19.9153,17.8746 19.9015,16.8649C 19.8876,15.8551 19.8821,14.6971 19.8848,13.3905L 19.8848,8.66504 Z "/>
		<path fill="#000000" fill-opacity="1" stroke-width="0.2" stroke-linejoin="round" d="M 35.0848,2.08948L 38.4702,2.14014C 39.7313,2.1748 40.5944,2.32678 41.0596,2.59619C 41.5247,2.8656 41.7631,3.20544 41.7749,3.6156L 41.8015,3.91064C 41.8192,4.25049 41.8904,4.40247 42.0148,4.3667C 42.1304,4.37122 42.1926,4.255 42.2015,4.01807C 42.2048,3.8551 42.2181,3.45215 42.2415,2.80896C 42.2649,2.16565 42.2781,1.61621 42.2815,1.16003C 42.3038,0.972778 42.2593,0.865601 42.1482,0.838501C 42.0464,0.856812 41.7966,0.901489 41.3987,0.973145C 40.9778,1.07727 40.3419,1.12976 39.4911,1.13025L 29.598,1.13025C 29.4185,1.12976 29.124,1.11755 28.7146,1.09363C 28.3051,1.0697 27.8973,1.03748 27.4912,0.996948C 27.1389,1.03613 26.8767,1.02295 26.7044,0.957031C 26.5322,0.891235 26.4033,0.851685 26.3177,0.838501C 26.2633,0.849487 26.2122,0.913208 26.1644,1.02979C 26.1166,1.14612 26.0789,1.24963 26.0511,1.33997C 26.0033,1.44128 25.8988,1.83105 25.7377,2.50928C 25.5765,3.18738 25.4855,3.63672 25.4644,3.85706C 25.4688,4.01807 25.5132,4.09851 25.5977,4.09851C 25.7,4.11633 25.7888,4.02698 25.8644,3.8302C 25.9,3.74182 25.9489,3.63684 26.011,3.51501C 26.0733,3.39319 26.1755,3.22107 26.3177,2.99854C 26.5145,2.68274 26.8145,2.46252 27.2178,2.33801C 27.6212,2.21338 28.2278,2.14746 29.0379,2.14014L 32.9849,2.08948L 32.9849,13.4342C 32.9876,14.7333 32.9821,15.8844 32.9681,16.8883C 32.9542,17.8921 32.9153,18.6812 32.8514,19.2557C 32.8059,19.6509 32.7303,19.9806 32.6248,20.245C 32.5193,20.5093 32.337,20.6714 32.0781,20.7313C 31.8114,20.7938 31.5447,20.8296 31.2781,20.8385C 31.127,20.8468 31.0558,20.8802 31.0647,20.9385C 31.0603,21.0331 31.2025,21.0775 31.4915,21.0719L 37.2611,21.0719C 37.5521,21.0692 37.6954,21.0245 37.691,20.9385C 37.7,20.8802 37.6283,20.8468 37.4761,20.8385C 37.3434,20.8374 37.1587,20.8262 36.9219,20.8051C 36.6851,20.7837 36.4669,20.7592 36.267,20.7313C 35.8757,20.6714 35.6104,20.5093 35.471,20.245C 35.3317,19.9806 35.2477,19.6509 35.2191,19.2557C 35.1548,18.6812 35.1156,17.8921 35.1016,16.8883C 35.0876,15.8844 35.082,14.7333 35.0848,13.4342L 35.0848,2.08948 Z "/>
		<path fill="#000000" fill-opacity="1" stroke-width="0.2" stroke-linejoin="round" d="M 65.2462,1.55164C 65.2063,1.0625 65.0996,0.824829 64.9263,0.838501C 64.753,0.860229 64.6197,1.00085 64.5264,1.26062L 56.6883,17.8754L 48.5303,1.23401C 48.4104,0.956665 48.2771,0.824829 48.1304,0.838501C 47.9661,0.85144 47.8682,1.00964 47.8372,1.31348L 45.9176,18.5634C 45.8815,19.0846 45.8004,19.5565 45.6744,19.9786C 45.5482,20.4009 45.2739,20.6611 44.8512,20.7592C 44.4913,20.8253 44.2247,20.8517 44.0514,20.8385C 43.8959,20.8413 43.807,20.8691 43.7848,20.9219C 43.8026,21.0303 43.9537,21.0802 44.238,21.0719L 48.9568,21.0719C 49.2769,21.0802 49.4368,21.0303 49.4368,20.9219C 49.419,20.8691 49.3479,20.8413 49.2234,20.8385C 49.0325,20.8473 48.6947,20.8032 48.2104,20.7062C 47.7794,20.5917 47.5483,20.3182 47.5172,19.8861C 47.5128,19.4232 47.5217,18.9733 47.5439,18.5367L 48.6104,6.26086L 48.7169,6.26086C 48.9769,6.85779 49.5701,8.14417 50.4965,10.1202C 51.4229,12.0962 52.0028,13.3232 52.2361,13.8011C 52.3811,14.0914 52.8309,14.9855 53.5858,16.483C 54.3406,17.9806 54.9304,19.1327 55.3553,19.939C 55.5997,20.3929 55.7774,20.6929 55.8885,20.8385C 55.9996,20.9844 56.0974,21.0511 56.1818,21.0386C 56.2884,21.056 56.3951,20.9838 56.5017,20.8218C 56.6084,20.6597 56.795,20.3037 57.0616,19.7538L 63.5933,5.99622L 63.6733,5.99622L 64.9529,19.6479C 64.9802,19.8944 64.9857,20.1094 64.9696,20.2928C 64.9535,20.4764 64.9124,20.579 64.8463,20.6005C 64.7175,20.6224 64.6553,20.6842 64.6597,20.7856C 64.6525,20.8363 64.7003,20.8761 64.803,20.9048C 64.9058,20.9336 65.1068,20.9559 65.4063,20.9718C 65.9866,20.9979 66.7786,21.0209 67.7823,21.0406C 68.7859,21.0604 69.478,21.0708 69.8585,21.0719C 70.205,21.0719 70.3915,21.0219 70.4181,20.9219C 70.4137,20.8608 70.3428,20.833 70.2051,20.8385C 70.0645,20.8434 69.839,20.8336 69.5286,20.8087C 69.2181,20.7841 68.8658,20.7145 68.4722,20.6005C 67.9172,20.381 67.5474,19.9865 67.3624,19.4165C 67.1774,18.8466 67.0674,18.3065 67.0325,17.796L 65.2462,1.55164 Z "/>
		<path fill="#000000" fill-opacity="1" stroke-width="0.2" stroke-linejoin="round" d="M 77.3514,8.76318C 77.3504,6.73889 77.3526,5.35352 77.3582,4.60706C 77.3636,3.86047 77.3793,3.30908 77.4048,2.95264C 77.4232,2.48523 77.5065,2.12891 77.6548,1.8833C 77.8032,1.63782 78.0665,1.48328 78.4449,1.41931C 78.8049,1.3656 79.0983,1.3385 79.325,1.3385C 79.4493,1.3385 79.5205,1.30518 79.5383,1.23865C 79.5427,1.14404 79.4005,1.09961 79.1116,1.1051L 73.358,1.1051C 73.0692,1.09961 72.9269,1.14404 72.9313,1.23865C 72.9491,1.30518 73.0203,1.3385 73.1447,1.3385C 73.2742,1.3385 73.4286,1.34521 73.608,1.35876C 73.7875,1.37219 73.9353,1.39246 74.0514,1.41931C 74.4808,1.50842 74.7754,1.67322 74.9348,1.91357C 75.0942,2.15417 75.182,2.50037 75.1981,2.95264C 75.2237,3.30908 75.2393,3.86047 75.2448,4.60706C 75.2504,5.35352 75.2526,6.73889 75.2515,8.76318L 75.2515,13.4976C 75.2543,14.7853 75.2487,15.9302 75.2349,16.932C 75.2209,17.934 75.182,18.7227 75.1182,19.2982C 75.0726,19.6935 74.9971,20.0236 74.8914,20.2881C 74.7859,20.5527 74.6036,20.7148 74.3448,20.7748C 74.0781,20.8011 73.8114,20.8224 73.5447,20.8385C 73.3936,20.8468 73.3225,20.8802 73.3314,20.9385C 73.3269,21.0331 73.4691,21.0775 73.7581,21.0719C 74.1984,21.0692 74.7045,21.058 75.2765,21.0386C 75.8182,21.0796 76.1598,21.0908 76.3015,21.0719C 76.9873,21.0719 77.8707,21.0985 78.9515,21.1519C 79.5061,21.2074 80.1439,21.248 80.8651,21.2744C 81.5862,21.3008 82.424,21.3138 83.3785,21.3135C 84.0552,21.3214 84.4886,21.2804 84.6786,21.1906C 84.8687,21.1007 84.9952,20.9149 85.0587,20.6327C 85.1686,20.2075 85.262,19.7046 85.3386,19.1239C 85.4153,18.5431 85.4553,18.1563 85.4586,17.963C 85.472,17.6805 85.4186,17.546 85.2986,17.5594C 85.1519,17.5685 85.0719,17.6851 85.0587,17.9092C 85.0164,18.1732 84.9341,18.4523 84.8119,18.7465C 84.6897,19.0406 84.5408,19.2997 84.3652,19.5233C 84.0391,19.8981 83.598,20.1302 83.0418,20.2192C 82.4857,20.3085 81.8512,20.3453 81.1384,20.3302C 80.1216,20.3314 79.3816,20.2821 78.9183,20.1823C 78.4549,20.0825 78.1282,19.9257 77.9382,19.7114C 77.7037,19.4901 77.546,18.8971 77.4648,17.9327C 77.3837,16.9683 77.3459,15.5078 77.3514,13.5514L 77.3514,8.76318 Z "/>
		<path fill="#000000" fill-opacity="1" stroke-width="0.2" stroke-linejoin="round" d="M 91.2645,2.67188L 96.3748,2.67188C 97.4029,2.67957 98.0629,2.83545 98.3548,3.13965C 98.6467,3.44385 98.7756,3.8501 98.7415,4.3584C 98.7415,4.56482 98.7947,4.67908 98.9014,4.70105C 99.0126,4.67029 99.0837,4.57361 99.1148,4.41113C 99.3636,2.47034 99.4792,1.36755 99.4615,1.10254C 99.4526,0.90918 99.3904,0.821289 99.2748,0.838501C 99.2083,0.851929 99.0214,0.87854 98.7144,0.918335C 98.4097,1.04736 97.8897,1.10974 97.1547,1.1051L 90.835,1.1051C 90.5303,1.08875 90.3599,1.19641 90.3241,1.42859L 89.7056,8.07385C 89.6563,8.36377 89.8893,8.52185 90.4048,8.54822C 91.5735,8.59607 92.95,9.146 94.5342,10.1984C 96.1185,11.2509 96.9875,12.8351 97.1414,14.9515C 97.086,16.7554 96.5851,18.062 95.6389,18.8711C 94.6926,19.6803 93.6333,20.0778 92.4611,20.0635C 91.46,20.0981 90.6102,19.8839 89.9117,19.4213C 89.2131,18.9585 88.8486,18.0394 88.8181,16.6642C 88.826,16.3568 88.7625,16.2075 88.6277,16.2163C 88.5323,16.2427 88.461,16.4008 88.4134,16.6906C 88.3561,17.142 88.325,17.6886 88.3201,18.3309C 88.3151,18.9733 88.3145,19.5332 88.3181,20.0109C 88.3116,20.1504 88.3365,20.2852 88.3926,20.4155C 88.4485,20.5459 88.5745,20.6748 88.7705,20.8021C 89.1107,20.9976 89.5002,21.1324 89.939,21.207C 90.3777,21.2816 90.8018,21.317 91.2113,21.3135C 93.8939,21.2192 95.896,20.4169 97.2173,18.9066C 98.5387,17.3964 99.1979,15.7441 99.1949,13.9502C 99.0599,11.6285 98.0984,9.90137 96.3099,8.76892C 94.5215,7.63635 92.7156,6.95667 90.8922,6.72998L 91.2645,2.67188 Z "/>
	</g>
	<g>
		<path fill="#000000" fill-opacity="1" stroke-width="0.2" stroke-linejoin="round" d="M 42.8465,31.3002C 42.8479,31.8628 42.8451,32.3599 42.8382,32.7915C 42.8312,33.2233 42.8118,33.5605 42.7798,33.8033C 42.7579,33.9742 42.7284,34.1122 42.6915,34.2167C 42.6545,34.3213 42.5818,34.3876 42.4731,34.4156C 42.3531,34.4474 42.2332,34.4655 42.1131,34.4701L 42.0198,34.5283C 42.022,34.5687 42.0842,34.588 42.2064,34.5868L 44.8651,34.5868C 44.9983,34.584 45.0626,34.5645 45.058,34.5283L 44.9615,34.4701C 44.9012,34.4696 44.8186,34.4639 44.7134,34.4531C 44.6084,34.4423 44.512,34.4298 44.4241,34.4156C 44.2437,34.3876 44.1219,34.3213 44.0588,34.2167C 43.9957,34.1122 43.9566,33.9742 43.9417,33.8033C 43.9153,33.5605 43.8992,33.2233 43.8934,32.7915C 43.8877,32.3599 43.8854,31.8628 43.8865,31.3002L 43.8865,26.7368C 43.8843,26.6144 43.9164,26.5444 43.983,26.527C 44.0526,26.5122 44.1548,26.496 44.2897,26.4779C 44.4246,26.4598 44.5475,26.4501 44.6583,26.4484C 44.8077,26.4331 45.0362,26.4471 45.344,26.4906C 45.6517,26.5342 45.9698,26.6992 46.2984,26.986C 46.6105,27.2975 46.8063,27.609 46.8858,27.9205C 46.9653,28.2321 46.9991,28.4847 46.9874,28.6781C 46.9756,29.1948 46.7649,29.6206 46.3552,29.9552C 45.9454,30.29 45.4075,30.4633 44.741,30.4751C 44.5114,30.4684 44.4056,30.5083 44.4241,30.5951C 44.4378,30.6572 44.4791,30.6929 44.5481,30.7017C 44.5883,30.7081 44.6458,30.712 44.7203,30.7134C 44.795,30.7148 44.8524,30.7153 44.8926,30.715C 45.8365,30.704 46.5891,30.4596 47.1502,29.9819C 47.7112,29.504 47.9987,28.8597 48.0123,28.0485C 48.0044,27.7164 47.9383,27.4296 47.8142,27.1879C 47.69,26.9459 47.5557,26.7638 47.411,26.6411C 47.3223,26.5414 47.1061,26.4244 46.7623,26.2905C 46.4185,26.1564 45.8643,26.083 45.0994,26.0699L 42.0331,26.0699C 41.9042,26.0687 41.842,26.088 41.8464,26.1284L 41.9398,26.1866C 41.9973,26.187 42.0657,26.1898 42.1448,26.1952C 42.2239,26.2006 42.2889,26.2067 42.3398,26.2137C 42.5273,26.2389 42.6523,26.3019 42.7148,26.4023C 42.7773,26.5028 42.8123,26.6493 42.8198,26.8414C 42.8326,26.9908 42.8404,27.2231 42.8431,27.5377C 42.8459,27.8525 42.847,28.4354 42.8465,29.2861L 42.8465,31.3002 Z "/>
		<path fill="#000000" fill-opacity="1" stroke-width="0.2" stroke-linejoin="round" d="M 51.5582,29.3116C 51.5579,28.454 51.5585,27.8663 51.5599,27.549C 51.5613,27.2316 51.5652,26.9976 51.5716,26.847C 51.5804,26.6479 51.6127,26.5004 51.6683,26.4042C 51.7238,26.308 51.8293,26.2445 51.9849,26.2139C 52.1094,26.1913 52.2072,26.1821 52.2783,26.1866L 52.3716,26.1284C 52.376,26.088 52.3138,26.0687 52.1849,26.0699L 49.8416,26.0699C 49.7126,26.0687 49.6504,26.088 49.6548,26.1284L 49.7482,26.1866C 49.8416,26.1869 49.9615,26.2003 50.1082,26.2274C 50.346,26.2655 50.4705,26.472 50.4816,26.847C 50.4944,26.9976 50.5021,27.2316 50.5049,27.549C 50.5077,27.8663 50.5088,28.454 50.5082,29.3116L 50.5082,31.3319C 50.5088,31.8888 50.5044,32.381 50.4949,32.8085C 50.4854,33.2357 50.4677,33.5697 50.4415,33.8101C 50.4254,33.9794 50.3977,34.1157 50.3582,34.2192C 50.3187,34.3228 50.2444,34.3883 50.1349,34.4161C 50.0149,34.4476 49.8948,34.4655 49.7749,34.4701L 49.6815,34.5283C 49.6837,34.5687 49.746,34.588 49.8682,34.5868L 52.4783,34.5868C 52.6072,34.584 52.6694,34.5645 52.6649,34.5283L 52.5716,34.4701C 52.5135,34.4696 52.433,34.4639 52.33,34.4532C 52.2269,34.4425 52.1296,34.4302 52.0382,34.4161C 51.8713,34.3883 51.7618,34.3228 51.71,34.2192C 51.658,34.1157 51.6251,33.9794 51.6116,33.8101C 51.586,33.5697 51.5704,33.2357 51.5649,32.8085C 51.5593,32.381 51.5571,31.8888 51.5582,31.3319L 51.5582,29.3116 Z "/>
		<path fill="#000000" fill-opacity="1" stroke-width="0.2" stroke-linejoin="round" d="M 54.6144,33.4072C 54.5074,33.6962 54.3814,33.932 54.2361,34.1147C 54.0909,34.2974 53.8882,34.4069 53.6281,34.4435C 53.5779,34.4503 53.5184,34.4565 53.4498,34.4618C 53.3812,34.4669 53.3252,34.4697 53.2816,34.4701L 53.1749,34.5283C 53.1771,34.5687 53.2527,34.588 53.4015,34.5868L 55.6406,34.5868C 55.7517,34.588 55.8094,34.5687 55.8138,34.5283L 55.6939,34.4701L 55.5873,34.4701C 55.4832,34.4713 55.3916,34.4487 55.3124,34.402C 55.2333,34.3551 55.1917,34.276 55.1875,34.1646C 55.1919,33.952 55.2496,33.6996 55.3607,33.4072L 56.0272,31.6005C 56.0538,31.5363 56.0938,31.5054 56.1471,31.5074L 58.8527,31.5074C 58.9082,31.5031 58.9437,31.5253 58.9593,31.5739L 60.0122,34.1646C 60.0469,34.257 60.0475,34.3278 60.0139,34.3771L 59.9056,34.4701L 59.8257,34.52L 59.9473,34.5576C 60.0253,34.5629 60.1224,34.5669 60.2388,34.5699C 60.6609,34.578 61.0496,34.5829 61.405,34.5846C 61.7604,34.5864 61.9893,34.587 62.0914,34.5868C 62.1608,34.5869 62.222,34.5824 62.2748,34.5732L 62.3583,34.5283C 62.3426,34.4882 62.2936,34.4686 62.2113,34.4701C 62.0825,34.4745 61.927,34.4523 61.7449,34.4037C 61.619,34.3804 61.4741,34.2906 61.3101,34.1346C 61.1459,33.9785 60.9576,33.6563 60.7452,33.1681C 60.3265,32.1622 59.7945,30.8693 59.1492,29.2892C 58.5039,27.7091 58.0985,26.7274 57.933,26.3436C 57.8763,26.2174 57.8297,26.1185 57.7931,26.0465C 57.7564,25.9747 57.7098,25.9381 57.6531,25.9366L 57.5382,26.0155C 57.4991,26.0729 57.4441,26.1909 57.3733,26.3698L 54.6144,33.4072 Z M 56.307,31.016L 56.2671,30.9371L 57.3599,27.879C 57.4266,27.7085 57.4932,27.7085 57.5599,27.879L 58.7194,30.9371C 58.7394,30.9896 58.7261,31.016 58.6794,31.016L 56.307,31.016 Z "/>
		<path fill="#000000" fill-opacity="1" stroke-width="0.2" stroke-linejoin="round" d="M 64.2932,27.6954C 64.4894,27.9174 64.866,28.3287 65.4227,28.9296C 65.9796,29.5303 66.603,30.2008 67.2931,30.9414C 67.9468,31.6353 68.5873,32.3014 69.2147,32.9398C 69.842,33.5781 70.2062,33.9445 70.3071,34.0391C 70.6207,34.3271 70.8352,34.5148 70.9503,34.6021C 71.0655,34.6895 71.1476,34.7289 71.1965,34.7201L 71.2733,34.5963C 71.2855,34.501 71.291,34.2749 71.2899,33.9178L 71.3165,27.2106C 71.3096,26.8735 71.3301,26.6317 71.3782,26.485C 71.4263,26.3383 71.5435,26.2479 71.7299,26.2139C 71.8633,26.1913 71.9566,26.1821 72.0099,26.1866C 72.0944,26.1769 72.1388,26.1548 72.1433,26.1201C 72.1321,26.0825 72.061,26.0659 71.9299,26.0699L 69.7148,26.0699C 69.5745,26.0659 69.4998,26.0825 69.4911,26.1201L 69.5833,26.1866C 69.6339,26.1865 69.7134,26.1904 69.8218,26.1986C 69.9301,26.2069 70.0392,26.2208 70.1492,26.2408C 70.3218,26.2684 70.4371,26.3615 70.4946,26.5204C 70.5522,26.6792 70.5818,26.9406 70.5835,27.3048L 70.7032,33.0424C 70.5046,32.8302 70.1467,32.443 69.6295,31.8807C 69.1122,31.3184 68.5571,30.7225 67.9644,30.0928C 67.0403,29.1527 66.2299,28.3145 65.533,27.5781C 64.836,26.8419 64.4271,26.4103 64.3062,26.2833C 64.2448,26.2164 64.1727,26.1437 64.0901,26.0651C 64.0074,25.9865 63.9322,25.9437 63.8643,25.9366C 63.8179,25.9323 63.7805,25.9712 63.7521,26.0533C 63.7236,26.1357 63.709,26.2877 63.7083,26.5096L 63.7083,32.9926C 63.7126,33.4946 63.6937,33.848 63.6515,34.0524C 63.6093,34.2568 63.5171,34.3739 63.3748,34.4034C 63.2848,34.4296 63.1948,34.4473 63.1048,34.4567C 63.0148,34.4662 62.9448,34.4706 62.8948,34.4701L 62.8015,34.5283C 62.8037,34.5728 62.866,34.5923 62.9882,34.5868L 65.3321,34.5868C 65.4681,34.588 65.5383,34.5687 65.5427,34.5283L 65.4506,34.4701C 65.3936,34.4706 65.3102,34.4662 65.2005,34.4567C 65.0908,34.4473 64.9812,34.4296 64.8715,34.4034C 64.7163,34.373 64.6055,34.2643 64.5392,34.0773C 64.4728,33.8905 64.4344,33.5687 64.424,33.1123L 64.2932,27.6954 Z "/>
		<path fill="#000000" fill-opacity="1" stroke-width="0.2" stroke-linejoin="round" d="M 73.3749,30.2745C 73.3645,31.3417 73.7208,32.3325 74.4438,33.2474C 75.1668,34.1621 76.319,34.6489 77.9004,34.7075C 79.3197,34.6722 80.4461,34.2179 81.2795,33.3446C 82.1129,32.4712 82.5392,31.3907 82.5582,30.1031C 82.5304,28.7877 82.092,27.7671 81.2432,27.0411C 80.3943,26.3154 79.3021,25.9473 77.9664,25.9366C 76.3707,26.0045 75.2042,26.5018 74.4669,27.4283C 73.7296,28.3551 73.3656,29.3037 73.3749,30.2745 Z M 74.5582,29.9713C 74.5762,28.7524 74.8904,27.839 75.5011,27.2313C 76.1118,26.6235 76.9116,26.3198 77.9004,26.3199C 78.8485,26.3228 79.6571,26.6699 80.3262,27.3615C 80.9954,28.0529 81.345,29.0723 81.3749,30.4196C 81.3091,31.9965 80.9156,33.0345 80.1942,33.5337C 79.4727,34.0331 78.8182,34.2604 78.2307,34.2158C 77.1588,34.2021 76.2841,33.8209 75.6068,33.0724C 74.9295,32.3237 74.58,31.2902 74.5582,29.9713 Z "/>
	</g>
	<g>
		<linearGradient id="SVGID_Fill1_" gradientUnits="objectBoundingBox" x1="2.66736" y1="0.269238" x2="5.60561" y2="0.269238" gradientTransform="rotate(89.319405 2.667356 0.269238)">
			<stop offset="0" stop-color="#FF0054" stop-opacity="1"/>
			<stop offset="0.483333" stop-color="#A00138" stop-opacity="1"/>
			<stop offset="1" stop-color="#42021C" stop-opacity="1"/>
		</linearGradient>
		<path fill="url(#SVGID_Fill1_)" stroke-width="0.2" stroke-linejoin="round" d="M 18.2867,7.82654C 18.2856,5.82898 18.2878,4.46179 18.2935,3.7251C 18.299,2.9884 18.3145,2.44434 18.3401,2.09265C 18.3595,1.63135 18.4407,1.27966 18.5834,1.03748C 18.7262,0.795044 18.974,0.642456 19.3268,0.579468C 19.6157,0.526367 19.838,0.5 19.9935,0.5C 20.118,0.5 20.1891,0.466675 20.2068,0.400024C 20.2113,0.305542 20.0691,0.261108 19.7802,0.266602L 14.2713,0.266602C 13.979,0.261108 13.835,0.305542 13.8395,0.400024C 13.8575,0.466675 13.9295,0.5 14.0554,0.5C 14.1864,0.5 14.3428,0.506714 14.5244,0.519897C 14.7059,0.533081 14.8555,0.552856 14.973,0.579468C 15.4077,0.667358 15.7057,0.829956 15.8671,1.06726C 16.0284,1.30457 16.1173,1.64636 16.1336,2.09265C 16.1591,2.44434 16.1746,2.9884 16.1801,3.7251C 16.1856,4.46179 16.1879,5.82898 16.1868,7.82654L 16.1868,8.38391C 16.1736,8.50342 16.1199,8.55664 16.0257,8.54333L 4.58203,8.54333C 4.48755,8.55664 4.43359,8.50342 4.42004,8.38391L 4.42004,7.82654C 4.41895,5.82898 4.4212,4.46179 4.42682,3.7251C 4.43243,2.9884 4.44824,2.44434 4.47412,2.09265C 4.49371,1.63135 4.57581,1.27966 4.72034,1.03748C 4.86481,0.795044 5.1156,0.642456 5.47272,0.579468C 5.76501,0.526367 5.98999,0.5 6.14746,0.5C 6.27344,0.5 6.34534,0.466675 6.36334,0.400024C 6.3678,0.305542 6.22394,0.261108 5.93152,0.266602L 0.426636,0.266602C 0.137756,0.261108 -0.0045166,0.305542 0,0.400024C 0.0177002,0.466675 0.0888672,0.5 0.213257,0.5C 0.342773,0.5 0.497192,0.506714 0.676636,0.519897C 0.856079,0.533081 1.00391,0.552856 1.12,0.579468C 1.54944,0.667358 1.84399,0.829956 2.00342,1.06726C 2.16284,1.30457 2.25061,1.64636 2.26672,2.09265C 2.2923,2.44434 2.30786,2.9884 2.31335,3.7251C 2.31897,4.46179 2.32117,5.82898 2.32007,7.82654L 2.32007,12.5519C 2.32288,13.8585 2.31726,15.0166 2.30347,16.0264C 2.28955,17.0361 2.25061,17.83 2.18677,18.4078C 2.14117,18.8053 2.06567,19.1371 1.96002,19.403C 1.85449,19.6688 1.67224,19.8319 1.41339,19.8921C 1.14673,19.9551 0.880005,19.9911 0.613342,20C 0.462219,20.0083 0.391113,20.0416 0.399963,20.1C 0.395508,20.1945 0.53772,20.2389 0.82666,20.2334L 6.60626,20.2334C 6.89868,20.2306 7.04254,20.186 7.03809,20.1C 7.04712,20.0416 6.9751,20.0083 6.82214,20C 6.68884,19.9989 6.5033,19.9877 6.2655,19.9663C 6.02765,19.9448 5.80835,19.9203 5.60767,19.8921C 5.2146,19.8319 4.94806,19.6688 4.80811,19.403C 4.66803,19.1371 4.58374,18.8053 4.55499,18.4078C 4.49036,17.83 4.45099,17.0361 4.43689,16.0264C 4.42291,15.0166 4.4173,13.8585 4.42004,12.5519L 4.42004,9.71838C 4.43359,9.59705 4.48755,9.54309 4.58203,9.55664L 16.0257,9.55664C 16.1199,9.55664 16.1736,9.61047 16.1868,9.71838L 16.1868,12.5519C 16.1895,13.8585 16.184,15.0166 16.17,16.0264C 16.156,17.0361 16.1169,17.83 16.0526,18.4078C 16.0066,18.8053 15.9301,19.1371 15.8232,19.403C 15.7164,19.6688 15.532,19.8319 15.27,19.8921C 15.0001,19.9551 14.7302,19.9911 14.4603,20C 14.3074,20.0083 14.2354,20.0416 14.2444,20.1C 14.2399,20.1945 14.3838,20.2389 14.6761,20.2334L 20.4469,20.2334C 20.7358,20.2306 20.878,20.186 20.8736,20.1C 20.8824,20.0416 20.8113,20.0083 20.6602,20C 20.5286,19.9989 20.3452,19.9877 20.1102,19.9663C 19.8751,19.9448 19.6585,19.9203 19.4602,19.8921C 19.0718,19.8319 18.8084,19.6688 18.67,19.403C 18.5318,19.1371 18.4485,18.8053 18.42,18.4078C 18.3562,17.83 18.3173,17.0361 18.3035,16.0264C 18.2896,15.0166 18.284,13.8585 18.2867,12.5519L 18.2867,7.82654 Z "/>
		<linearGradient id="SVGID_Fill2_" gradientUnits="objectBoundingBox" x1="1.89108" y1="0.27885" x2="4.79079" y2="0.27885" gradientTransform="rotate(89.458633 1.891084 0.278850)">
			<stop offset="0" stop-color="#FF0054" stop-opacity="1"/>
			<stop offset="0.483333" stop-color="#A00138" stop-opacity="1"/>
			<stop offset="1" stop-color="#42021C" stop-opacity="1"/>
		</linearGradient>
		<path fill="url(#SVGID_Fill2_)" stroke-width="0.2" stroke-linejoin="round" d="M 33.4868,1.25098L 36.8721,1.30164C 38.1332,1.3363 38.9963,1.48828 39.4615,1.75769C 39.9266,2.02698 40.165,2.36682 40.1768,2.77698L 40.2034,3.07214C 40.2212,3.41199 40.2923,3.56396 40.4167,3.5282C 40.5323,3.53271 40.5945,3.4165 40.6034,3.17957C 40.6068,3.0166 40.6201,2.61365 40.6434,1.97034C 40.6668,1.32715 40.6801,0.77771 40.6834,0.321411C 40.7057,0.134277 40.6612,0.0269775 40.5501,0C 40.4483,0.0181885 40.1985,0.0629883 39.8007,0.134644C 39.3797,0.23877 38.7439,0.291138 37.8931,0.291626L 27.9999,0.291626C 27.8204,0.291138 27.5259,0.278931 27.1165,0.255005C 26.707,0.231079 26.2992,0.198853 25.8931,0.158325C 25.5408,0.197632 25.2786,0.184448 25.1063,0.11853C 24.9341,0.0527344 24.8052,0.0131836 24.7197,0C 24.6653,0.0108643 24.6141,0.074707 24.5664,0.191284C 24.5186,0.307617 24.4808,0.411133 24.453,0.501465C 24.4053,0.602661 24.3008,0.992554 24.1396,1.67078C 23.9785,2.34875 23.8875,2.79822 23.8663,3.01855C 23.8707,3.17957 23.9152,3.25989 23.9996,3.25989C 24.1019,3.27783 24.1907,3.18848 24.2664,2.9917C 24.3019,2.90332 24.3508,2.79834 24.413,2.67639C 24.4752,2.55469 24.5775,2.38245 24.7197,2.16003C 24.9164,1.84424 25.2164,1.62402 25.6198,1.49951C 26.0231,1.37488 26.6298,1.30896 27.4398,1.30164L 31.3868,1.25098L 31.3868,12.5957C 31.3895,13.8947 31.384,15.0459 31.3701,16.0498C 31.3562,17.0536 31.3173,17.8427 31.2534,18.4171C 31.2078,18.8124 31.1323,19.1421 31.0267,19.4064C 30.9212,19.6708 30.7389,19.8329 30.48,19.8927C 30.2134,19.9552 29.9467,19.9911 29.68,20C 29.5289,20.0083 29.4578,20.0416 29.4666,20.1C 29.4622,20.1945 29.6045,20.2389 29.8934,20.2334L 35.6631,20.2334C 35.9541,20.2306 36.0974,20.186 36.0929,20.1C 36.1019,20.0416 36.0303,20.0083 35.878,20C 35.7454,19.9989 35.5606,19.9877 35.3239,19.9664C 35.087,19.9452 34.8688,19.9205 34.6689,19.8927C 34.2776,19.8329 34.0123,19.6708 33.873,19.4064C 33.7336,19.1421 33.6497,18.8124 33.6211,18.4171C 33.5567,17.8427 33.5176,17.0536 33.5035,16.0498C 33.4896,15.0459 33.4839,13.8947 33.4868,12.5957L 33.4868,1.25098 Z "/>
		<linearGradient id="SVGID_Fill3_" gradientUnits="objectBoundingBox" x1="0.506609" y1="0.278878" x2="3.40595" y2="0.278878" gradientTransform="rotate(89.143234 0.506609 0.278878)">
			<stop offset="0" stop-color="#FF0054" stop-opacity="1"/>
			<stop offset="0.483333" stop-color="#A00138" stop-opacity="1"/>
			<stop offset="1" stop-color="#42021C" stop-opacity="1"/>
		</linearGradient>
		<path fill="url(#SVGID_Fill3_)" stroke-width="0.2" stroke-linejoin="round" d="M 63.6482,0.713013C 63.6082,0.223999 63.5015,-0.0136719 63.3282,0C 63.1549,0.0216064 63.0216,0.162231 62.9283,0.421997L 55.0902,17.0367L 46.9323,0.395508C 46.8123,0.118164 46.679,-0.0136719 46.5323,0C 46.368,0.0128174 46.2701,0.171021 46.2391,0.474976L 44.3196,17.7247C 44.2834,18.2461 44.2024,18.7179 44.0763,19.1401C 43.9502,19.5624 43.6758,19.8226 43.2532,19.9205C 42.8932,19.9868 42.6266,20.0132 42.4534,20C 42.2979,20.0028 42.209,20.0306 42.1868,20.0834C 42.2045,20.1918 42.3556,20.2417 42.64,20.2334L 47.3588,20.2334C 47.6788,20.2417 47.8387,20.1918 47.8387,20.0834C 47.8209,20.0306 47.7498,20.0028 47.6254,20C 47.4344,20.0088 47.0967,19.9647 46.6124,19.8677C 46.1813,19.7531 45.9503,19.4796 45.9192,19.0475C 45.9147,18.5846 45.9236,18.1348 45.9459,17.6982L 47.0123,5.42236L 47.1189,5.42236C 47.3788,6.01917 47.972,7.30566 48.8984,9.28174C 49.8248,11.2577 50.4048,12.4847 50.638,12.9625C 50.783,13.2529 51.2329,14.147 51.9877,15.6445C 52.7425,17.1421 53.3323,18.2941 53.7572,19.1005C 54.0016,19.5543 54.1793,19.8544 54.2904,20C 54.4015,20.1459 54.4993,20.2125 54.5837,20.2001C 54.6903,20.2174 54.797,20.1451 54.9036,19.9833C 55.0103,19.8212 55.1969,19.4652 55.4635,18.9152L 61.9952,5.15771L 62.0753,5.15771L 63.3549,18.8094C 63.3821,19.0558 63.3877,19.2709 63.3716,19.4542C 63.3555,19.6378 63.3143,19.7404 63.2483,19.7618C 63.1194,19.7838 63.0572,19.8457 63.0616,19.9471C 63.0544,19.9977 63.1022,20.0376 63.205,20.0663C 63.3077,20.0951 63.5088,20.1173 63.8082,20.1333C 64.3885,20.1593 65.1805,20.1823 66.1842,20.2021C 67.1879,20.2218 67.8799,20.2323 68.2604,20.2334C 68.6069,20.2334 68.7935,20.1832 68.8201,20.0834C 68.8157,20.0223 68.7447,19.9945 68.607,20C 68.4664,20.0049 68.241,19.9951 67.9305,19.9702C 67.62,19.9454 67.2679,19.876 66.8741,19.7618C 66.3192,19.5425 65.9493,19.1479 65.7643,18.578C 65.5793,18.0079 65.4694,17.4679 65.4344,16.9575L 63.6482,0.713013 Z "/>
		<linearGradient id="SVGID_Fill4_" gradientUnits="objectBoundingBox" x1="-1.24937" y1="0.266013" x2="1.65401" y2="0.266013" gradientTransform="rotate(89.596428 -1.249366 0.266013)">
			<stop offset="0" stop-color="#FF0054" stop-opacity="1"/>
			<stop offset="0.483333" stop-color="#A00138" stop-opacity="1"/>
			<stop offset="1" stop-color="#42021C" stop-opacity="1"/>
		</linearGradient>
		<path fill="url(#SVGID_Fill4_)" stroke-width="0.2" stroke-linejoin="round" d="M 75.7534,7.92468C 75.7523,5.90039 75.7545,4.51501 75.7601,3.76855C 75.7656,3.02197 75.7813,2.47058 75.8068,2.11414C 75.8251,1.64661 75.9084,1.29041 76.0568,1.0448C 76.2051,0.799316 76.4685,0.644653 76.8468,0.580688C 77.2068,0.526978 77.5002,0.5 77.7269,0.5C 77.8513,0.5 77.9224,0.466675 77.9402,0.400024C 77.9446,0.305542 77.8025,0.261108 77.5135,0.266602L 71.76,0.266602C 71.4711,0.261108 71.3289,0.305542 71.3333,0.400024C 71.3511,0.466675 71.4222,0.5 71.5466,0.5C 71.6761,0.5 71.8306,0.506714 72.01,0.520142C 72.1895,0.533691 72.3372,0.553833 72.4534,0.580688C 72.8828,0.669922 73.1773,0.834595 73.3367,1.07507C 73.4962,1.31555 73.584,1.66174 73.6001,2.11414C 73.6256,2.47058 73.6412,3.02197 73.6467,3.76855C 73.6523,4.51501 73.6545,5.90039 73.6534,7.92468L 73.6534,12.6591C 73.6563,13.9468 73.6506,15.0917 73.6368,16.0934C 73.6229,17.0953 73.584,17.8842 73.5201,18.4596C 73.4745,18.855 73.399,19.1851 73.2933,19.4496C 73.1878,19.7142 73.0056,19.8763 72.7467,19.9362C 72.48,19.9625 72.2134,19.9839 71.9467,20C 71.7955,20.0083 71.7244,20.0416 71.7333,20.1C 71.7288,20.1945 71.8711,20.2389 72.16,20.2334C 72.6003,20.2306 73.1064,20.2194 73.6785,20.2001C 74.2201,20.2411 74.5618,20.2523 74.7034,20.2334C 75.3892,20.2334 76.2726,20.2599 77.3535,20.3134C 77.908,20.3688 78.5458,20.4095 79.267,20.4359C 79.9881,20.4623 80.8259,20.4752 81.7804,20.475C 82.4572,20.4829 82.8905,20.4419 83.0806,20.3521C 83.2706,20.2622 83.3972,20.0763 83.4606,19.7941C 83.5706,19.369 83.6639,18.8661 83.7405,18.2853C 83.8172,17.7046 83.8572,17.3177 83.8606,17.1245C 83.8739,16.8419 83.8206,16.7075 83.7006,16.7208C 83.5538,16.73 83.4739,16.8466 83.4606,17.0707C 83.4183,17.3346 83.3361,17.6138 83.2139,17.9078C 83.0916,18.2021 82.9427,18.4611 82.7672,18.6847C 82.441,19.0596 81.9999,19.2916 81.4437,19.3807C 80.8876,19.4698 80.2532,19.5068 79.5403,19.4917C 78.5236,19.4928 77.7835,19.4435 77.3202,19.3438C 76.8568,19.244 76.5301,19.087 76.3401,18.8729C 76.1057,18.6515 75.9479,18.0586 75.8668,17.0942C 75.7856,16.1298 75.7479,14.6693 75.7534,12.7129L 75.7534,7.92468 Z "/>
		<linearGradient id="SVGID_Fill5_" gradientUnits="objectBoundingBox" x1="-2.78434" y1="0.275638" x2="0.081244" y2="0.275638" gradientTransform="rotate(89.645523 -2.784341 0.275638)">
			<stop offset="0" stop-color="#FF0054" stop-opacity="1"/>
			<stop offset="0.483333" stop-color="#A00138" stop-opacity="1"/>
			<stop offset="1" stop-color="#42021C" stop-opacity="1"/>
		</linearGradient>
		<path fill="url(#SVGID_Fill5_)" stroke-width="0.2" stroke-linejoin="round" d="M 89.6664,1.83337L 94.7767,1.83337C 95.8048,1.84094 96.4648,1.99695 96.7567,2.30115C 97.0486,2.60535 97.1776,3.0116 97.1434,3.5199C 97.1434,3.7262 97.1967,3.84045 97.3033,3.86243C 97.4146,3.83167 97.4857,3.73499 97.5167,3.57263C 97.7656,1.63184 97.8812,0.528931 97.8634,0.264038C 97.8546,0.0706787 97.7923,-0.0172119 97.6768,0C 97.6102,0.0133057 97.4233,0.0400391 97.1163,0.0797119C 96.8116,0.208862 96.2916,0.271118 95.5566,0.266602L 89.2369,0.266602C 88.9322,0.250122 88.7618,0.35791 88.7261,0.589966L 88.1075,7.23535C 88.0582,7.52527 88.2913,7.68323 88.8067,7.70959C 89.9754,7.75745 91.3519,8.3075 92.9362,9.35986C 94.5204,10.4122 95.3895,11.9966 95.5433,14.1129C 95.4879,15.9169 94.9871,17.2235 94.0408,18.0326C 93.0945,18.8418 92.0352,19.2393 90.863,19.225C 89.8619,19.2596 89.0122,19.0454 88.3136,18.5826C 87.6151,18.12 87.2505,17.2008 87.22,15.8257C 87.228,15.5182 87.1644,15.369 87.0296,15.3778C 86.9343,15.4042 86.8629,15.5621 86.8153,15.8521C 86.7579,16.3033 86.7269,16.8501 86.722,17.4923C 86.717,18.1348 86.7164,18.6947 86.72,19.1724C 86.7136,19.3119 86.7384,19.4467 86.7945,19.577C 86.8505,19.7074 86.9764,19.8363 87.1724,19.9635C 87.5127,20.1591 87.9022,20.2939 88.3409,20.3685C 88.7796,20.443 89.2037,20.4785 89.6133,20.475C 92.2959,20.3807 94.2979,19.5782 95.6193,18.068C 96.9407,16.5577 97.5999,14.9056 97.5968,13.1117C 97.4619,10.79 96.5003,9.06287 94.7119,7.9303C 92.9235,6.79785 91.1176,6.11816 89.2942,5.89148L 89.6664,1.83337 Z "/>
	</g>
	<g>
		<linearGradient id="SVGID_Fill6_" gradientUnits="objectBoundingBox" x1="2.34032" y1="-2.32052" x2="9.22939" y2="-2.32052" gradientTransform="rotate(89.528664 2.340321 -2.320517)">
			<stop offset="0" stop-color="#FF0054" stop-opacity="1"/>
			<stop offset="0.483333" stop-color="#A00138" stop-opacity="1"/>
			<stop offset="1" stop-color="#42021C" stop-opacity="1"/>
		</linearGradient>
		<path fill="url(#SVGID_Fill6_)" stroke-width="0.2" stroke-linejoin="round" d="M 42.2484,30.6366C 42.2498,31.1992 42.2471,31.6963 42.2401,32.1279C 42.2332,32.5597 42.2137,32.897 42.1818,33.1398C 42.1598,33.3107 42.1304,33.4486 42.0934,33.5531C 42.0565,33.6577 41.9837,33.724 41.8751,33.7521C 41.7551,33.7838 41.6351,33.8019 41.515,33.8065L 41.4217,33.8647C 41.424,33.9052 41.4861,33.9244 41.6084,33.9232L 44.267,33.9232C 44.4002,33.9204 44.4646,33.9009 44.46,33.8647L 44.3635,33.8065C 44.3032,33.806 44.2205,33.8003 44.1154,33.7896C 44.0103,33.7787 43.9139,33.7662 43.826,33.7521C 43.6456,33.724 43.5239,33.6577 43.4608,33.5531C 43.3976,33.4486 43.3585,33.3107 43.3436,33.1398C 43.3172,32.897 43.3011,32.5597 43.2954,32.1279C 43.2896,31.6963 43.2874,31.1992 43.2885,30.6366L 43.2885,26.0732C 43.2862,25.9508 43.3184,25.8809 43.385,25.8634C 43.4545,25.8486 43.5567,25.8324 43.6917,25.8143C 43.8265,25.7963 43.9495,25.7865 44.0603,25.7848C 44.2096,25.7695 44.4381,25.7836 44.7459,25.827C 45.0537,25.8706 45.3718,26.0356 45.7003,26.3224C 46.0125,26.6339 46.2083,26.9454 46.2877,27.257C 46.3672,27.5685 46.4011,27.8212 46.3893,28.0145C 46.3775,28.5313 46.1668,28.957 45.7571,29.2916C 45.3474,29.6265 44.8094,29.7997 44.1429,29.8115C 43.9133,29.8048 43.8076,29.8447 43.826,29.9315C 43.8397,29.9937 43.8811,30.0293 43.95,30.0381C 43.9902,30.0446 44.0477,30.0485 44.1223,30.0498C 44.1969,30.0513 44.2544,30.0518 44.2946,30.0514C 45.2385,30.0404 45.991,29.796 46.5521,29.3184C 47.1132,28.8405 47.4006,28.1962 47.4143,27.3849C 47.4063,27.0529 47.3402,26.766 47.2161,26.5243C 47.0919,26.2823 46.9576,26.1002 46.813,25.9775C 46.7242,25.8778 46.5081,25.7609 46.1643,25.627C 45.8204,25.4928 45.2662,25.4194 44.5013,25.4064L 41.4351,25.4064C 41.3062,25.4052 41.244,25.4244 41.2484,25.4648L 41.3417,25.5231C 41.3992,25.5234 41.4676,25.5262 41.5467,25.5316C 41.6259,25.537 41.6909,25.5431 41.7418,25.5502C 41.9293,25.5753 42.0543,25.6383 42.1168,25.7388C 42.1793,25.8392 42.2142,25.9857 42.2217,26.1779C 42.2345,26.3273 42.2423,26.5596 42.2451,26.8741C 42.2479,27.189 42.249,27.7719 42.2484,28.6226L 42.2484,30.6366 Z "/>
		<linearGradient id="SVGID_Fill7_" gradientUnits="objectBoundingBox" x1="2.19973" y1="-2.32052" x2="9.09151" y2="-2.32052" gradientTransform="rotate(89.769897 2.199734 -2.320517)">
			<stop offset="0" stop-color="#FF0054" stop-opacity="1"/>
			<stop offset="0.483333" stop-color="#A00138" stop-opacity="1"/>
			<stop offset="1" stop-color="#42021C" stop-opacity="1"/>
		</linearGradient>
		<path fill="url(#SVGID_Fill7_)" stroke-width="0.2" stroke-linejoin="round" d="M 50.9602,28.6481C 50.9598,27.7904 50.9604,27.2028 50.9618,26.8854C 50.9632,26.568 50.9671,26.334 50.9735,26.1832C 50.9824,25.9844 51.0146,25.8368 51.0702,25.7406C 51.1257,25.6444 51.2313,25.5809 51.3868,25.5503C 51.5113,25.5277 51.6091,25.5186 51.6802,25.5231L 51.7736,25.4648C 51.778,25.4244 51.7158,25.4052 51.5869,25.4064L 49.2435,25.4064C 49.1146,25.4052 49.0523,25.4244 49.0568,25.4648L 49.1501,25.5231C 49.2435,25.5233 49.3635,25.5367 49.5101,25.5638C 49.7479,25.6019 49.8724,25.8085 49.8835,26.1832C 49.8963,26.334 49.9041,26.568 49.9068,26.8854C 49.9097,27.2028 49.9107,27.7904 49.9102,28.6481L 49.9102,30.6683C 49.9107,31.2252 49.9063,31.7174 49.8969,32.1449C 49.8873,32.5721 49.8696,32.9061 49.8435,33.1465C 49.8274,33.3158 49.7996,33.4521 49.7601,33.5557C 49.7207,33.6592 49.6463,33.7247 49.5369,33.7526C 49.4168,33.7841 49.2968,33.8019 49.1768,33.8065L 49.0835,33.8647C 49.0857,33.9052 49.1479,33.9244 49.2701,33.9232L 51.8802,33.9232C 52.0091,33.9204 52.0714,33.9009 52.0669,33.8647L 51.9735,33.8065C 51.9155,33.806 51.835,33.8003 51.7319,33.7897C 51.6288,33.7789 51.5316,33.7666 51.4402,33.7526C 51.2733,33.7247 51.1638,33.6592 51.1119,33.5557C 51.0599,33.4521 51.0271,33.3158 51.0135,33.1465C 50.9879,32.9061 50.9724,32.5721 50.9669,32.1449C 50.9612,31.7174 50.959,31.2252 50.9602,30.6683L 50.9602,28.6481 Z "/>
		<linearGradient id="SVGID_Fill8_" gradientUnits="objectBoundingBox" x1="0.337797" y1="-2.26937" x2="7.1203" y2="-2.26937" gradientTransform="rotate(89.308891 0.337797 -2.269369)">
			<stop offset="0" stop-color="#FF0054" stop-opacity="1"/>
			<stop offset="0.483333" stop-color="#A00138" stop-opacity="1"/>
			<stop offset="1" stop-color="#42021C" stop-opacity="1"/>
		</linearGradient>
		<path fill="url(#SVGID_Fill8_)" stroke-width="0.2" stroke-linejoin="round" d="M 54.0162,32.7437C 53.9094,33.0326 53.7833,33.2684 53.6381,33.4512C 53.4929,33.6338 53.2902,33.7433 53.03,33.7799C 52.9798,33.7867 52.9203,33.793 52.8518,33.7982C 52.7832,33.8033 52.7271,33.8062 52.6835,33.8065L 52.5769,33.8647C 52.5791,33.9052 52.6546,33.9244 52.8035,33.9232L 55.0425,33.9232C 55.1536,33.9244 55.2114,33.9052 55.2158,33.8647L 55.0958,33.8065L 54.9893,33.8065C 54.8851,33.808 54.7935,33.7852 54.7144,33.7384C 54.6353,33.6915 54.5936,33.6124 54.5894,33.501C 54.5938,33.2885 54.6516,33.036 54.7627,32.7437L 55.4291,30.9369C 55.4557,30.8727 55.4957,30.8418 55.5491,30.8439L 58.2546,30.8439C 58.3101,30.8395 58.3457,30.8617 58.3612,30.9103L 59.4141,33.501C 59.4489,33.5934 59.4495,33.6642 59.4158,33.7135L 59.3075,33.8065L 59.2276,33.8564L 59.3492,33.894C 59.4272,33.8993 59.5244,33.9033 59.6407,33.9064C 60.0628,33.9144 60.4515,33.9193 60.8069,33.921C 61.1624,33.9229 61.3912,33.9235 61.4933,33.9232C 61.5627,33.9233 61.6239,33.9188 61.6768,33.9097L 61.7603,33.8647C 61.7445,33.8246 61.6956,33.8051 61.6133,33.8065C 61.4844,33.8109 61.3289,33.7887 61.1468,33.7401C 61.021,33.7168 60.876,33.6271 60.712,33.4711C 60.5479,33.3149 60.3596,32.9927 60.1472,32.5045C 59.7285,31.4987 59.1964,30.2057 58.5511,28.6256C 57.9058,27.0455 57.5005,26.0638 57.335,25.6801C 57.2783,25.5538 57.2317,25.455 57.1951,25.3829C 57.1583,25.3112 57.1117,25.2745 57.0551,25.2731L 56.9402,25.3519C 56.901,25.4093 56.846,25.5273 56.7752,25.7062L 54.0162,32.7437 Z M 55.709,30.3524L 55.669,30.2736L 56.7618,27.2155C 56.8285,27.0449 56.8951,27.0449 56.9618,27.2155L 58.1213,30.2736C 58.1414,30.326 58.128,30.3524 58.0814,30.3524L 55.709,30.3524 Z "/>
		<linearGradient id="SVGID_Fill9_" gradientUnits="objectBoundingBox" x1="-0.698411" y1="-2.23451" x2="5.98003" y2="-2.23451" gradientTransform="rotate(89.307693 -0.698411 -2.234513)">
			<stop offset="0" stop-color="#FF0054" stop-opacity="1"/>
			<stop offset="0.483333" stop-color="#A00138" stop-opacity="1"/>
			<stop offset="1" stop-color="#42021C" stop-opacity="1"/>
		</linearGradient>
		<path fill="url(#SVGID_Fill9_)" stroke-width="0.2" stroke-linejoin="round" d="M 63.6951,27.0319C 63.8914,27.2538 64.2679,27.6652 64.8247,28.266C 65.3815,28.8667 66.0049,29.5372 66.6951,30.2777C 67.3488,30.9717 67.9893,31.6378 68.6166,32.2762C 69.244,32.9146 69.6082,33.2809 69.709,33.3755C 70.0227,33.6636 70.2371,33.8512 70.3523,33.9385C 70.4674,34.0259 70.5496,34.0653 70.5984,34.0565L 70.6752,33.9327C 70.6874,33.8374 70.6929,33.6113 70.6918,33.2543L 70.7185,26.547C 70.7115,26.21 70.7321,25.9681 70.7802,25.8214C 70.8282,25.6747 70.9454,25.5844 71.1318,25.5503C 71.2652,25.5277 71.3585,25.5186 71.4119,25.5231C 71.4963,25.5133 71.5408,25.4912 71.5452,25.4565C 71.5341,25.4189 71.463,25.4023 71.3318,25.4064L 69.1168,25.4064C 68.9764,25.4023 68.9017,25.4189 68.8931,25.4565L 68.9852,25.5231C 69.0359,25.5229 69.1154,25.5269 69.2237,25.535C 69.332,25.5433 69.4412,25.5573 69.5511,25.5773C 69.7238,25.6049 69.839,25.6979 69.8965,25.8568C 69.9542,26.0156 69.9837,26.277 69.9854,26.6412L 70.1051,32.3789C 69.9066,32.1666 69.5486,31.7794 69.0314,31.2172C 68.5142,30.6548 67.959,30.059 67.3663,29.4292C 66.4423,28.4891 65.6318,27.6509 64.9349,26.9146C 64.2379,26.1783 63.829,25.7467 63.7081,25.6198C 63.6467,25.5529 63.5746,25.4801 63.492,25.4015C 63.4094,25.3229 63.3341,25.2802 63.2662,25.2731C 63.2198,25.2687 63.1824,25.3076 63.1541,25.3898C 63.1255,25.4722 63.111,25.6241 63.1102,25.8461L 63.1102,32.329C 63.1146,32.8311 63.0957,33.1844 63.0535,33.3888C 63.0112,33.5933 62.919,33.7103 62.7767,33.7399C 62.6868,33.766 62.5967,33.7837 62.5067,33.7931C 62.4167,33.8026 62.3467,33.807 62.2968,33.8065L 62.2034,33.8647C 62.2056,33.9092 62.2679,33.9287 62.3901,33.9232L 64.734,33.9232C 64.8701,33.9244 64.9402,33.9052 64.9446,33.8647L 64.8525,33.8065C 64.7955,33.807 64.7122,33.8026 64.6024,33.7931C 64.4927,33.7837 64.3831,33.766 64.2734,33.7399C 64.1182,33.7095 64.0074,33.6007 63.941,33.4137C 63.8748,33.2269 63.8363,32.9052 63.8259,32.4487L 63.6951,27.0319 Z "/>
		<linearGradient id="SVGID_Fill10_" gradientUnits="objectBoundingBox" x1="-1.86176" y1="-2.23815" x2="4.82743" y2="-2.23815" gradientTransform="rotate(89.318367 -1.861761 -2.238146)">
			<stop offset="0" stop-color="#FF0054" stop-opacity="1"/>
			<stop offset="0.483333" stop-color="#A00138" stop-opacity="1"/>
			<stop offset="1" stop-color="#42021C" stop-opacity="1"/>
		</linearGradient>
		<path fill="url(#SVGID_Fill10_)" stroke-width="0.2" stroke-linejoin="round" d="M 72.7769,29.611C 72.7664,30.6781 73.1228,31.6689 73.8458,32.5839C 74.5687,33.4985 75.7209,33.9854 77.3023,34.0439C 78.7217,34.0087 79.848,33.5543 80.6815,32.681C 81.5149,31.8076 81.9412,30.7272 81.9602,29.4396C 81.9324,28.1241 81.494,27.1035 80.6451,26.3776C 79.7963,25.6519 78.704,25.2837 77.3684,25.2731C 75.7727,25.3409 74.6062,25.8383 73.8689,26.7648C 73.1316,27.6915 72.7676,28.6401 72.7769,29.611 Z M 73.9602,29.3077C 73.9781,28.0889 74.2924,27.1754 74.9031,26.5677C 75.5137,25.96 76.3135,25.6563 77.3023,25.6564C 78.2505,25.6592 79.0591,26.0063 79.7281,26.6979C 80.3973,27.3893 80.7469,28.4087 80.7769,29.756C 80.7111,31.3329 80.3175,32.371 79.5961,32.8701C 78.8746,33.3695 78.2202,33.5968 77.6326,33.5522C 76.5607,33.5386 75.686,33.1573 75.0088,32.4088C 74.3314,31.6602 73.9819,30.6266 73.9602,29.3077 Z "/>
	</g>
</svg>