<?xml version="1.0" encoding="UTF-8"?>
<!DOCTYPE svg PUBLIC "-//W3C//DTD SVG 1.1//EN" "http://www.w3.org/Graphics/SVG/1.1/DTD/svg11.dtd">
<svg xmlns="http://www.w3.org/2000/svg" xmlns:xlink="http://www.w3.org/1999/xlink" version="1.1" baseProfile="full" xml:space="preserve" preserveAspectRatio="none slice" width="36" height="7" viewBox="0 0 35.00 7.00" enable-background="new 0 0 35.00 7.00">
	<g>
		<path fill="#FFFFFF" fill-opacity="1" stroke-width="0.2" stroke-linejoin="round" d="M 0.800049,4.33472C 0.801147,4.7749 0.79895,5.16479 0.793457,5.50439C 0.787842,5.84387 0.772217,6.1095 0.746704,6.30103C 0.729248,6.43579 0.705566,6.54443 0.676025,6.62671C 0.646484,6.70923 0.588257,6.76147 0.501343,6.78369C 0.405396,6.80872 0.309326,6.823 0.213379,6.82666L 0.138672,6.87317C 0.140503,6.9054 0.190186,6.92102 0.288086,6.91992C 0.36499,6.91968 0.453857,6.91846 0.554688,6.91565C 0.655396,6.91309 0.754761,6.90991 0.852539,6.90649C 0.949707,6.9176 1.03369,6.92285 1.10449,6.92212C 1.17542,6.92163 1.21741,6.9209 1.23059,6.91992C 1.25537,6.92004 1.33691,6.92493 1.47534,6.93457C 1.61353,6.94409 1.78564,6.95703 1.99146,6.97327C 2.19775,6.98608 2.41602,6.99817 2.64624,7.00903C 2.87646,7.02002 3.09485,7.02588 3.30115,7.02649C 4.09302,7.01038 4.71594,6.89355 5.1698,6.67578C 5.62366,6.45813 5.94849,6.23645 6.14404,6.01086C 6.396,5.74072 6.61279,5.38928 6.79456,4.95654C 6.97632,4.52393 7.07153,4.01929 7.08008,3.44299C 7.0719,2.90112 6.9856,2.43774 6.82129,2.05298C 6.65674,1.66821 6.46313,1.35803 6.23999,1.12231C 5.65747,0.598267 5.00964,0.29126 4.29663,0.201416C 3.58374,0.111816 2.97852,0.0800781 2.4812,0.106567L 0.149414,0.106567C 0.0462646,0.10498 -0.00354004,0.128052 0.074707,0.245117C 0.120728,0.223633 0.175293,0.212646 0.23877,0.212402C 0.302002,0.212036 0.354004,0.215088 0.394775,0.221802C 0.544678,0.242188 0.644775,0.293091 0.694702,0.374146C 0.744751,0.455322 0.772705,0.57373 0.778809,0.729126C 0.78894,0.849854 0.795166,1.03735 0.797363,1.29175C 0.799561,1.54602 0.800537,2.01685 0.800049,2.70435L 0.800049,4.33472 Z M 1.64014,0.6604C 1.63647,0.562012 1.67554,0.500977 1.7572,0.477661C 1.80664,0.460938 1.88867,0.446045 2.00342,0.43335C 2.11816,0.420654 2.22412,0.413818 2.32153,0.413208C 2.88184,0.399414 3.41699,0.456665 3.92676,0.585083C 4.4364,0.713623 4.91296,0.996582 5.3562,1.43384C 5.56067,1.62598 5.75586,1.91077 5.94189,2.28809C 6.12781,2.66553 6.22717,3.14355 6.23999,3.72229C 6.23999,4.15051 6.17883,4.5592 6.05627,4.94849C 5.93384,5.33765 5.75012,5.65247 5.50525,5.89258C 4.9231,6.43701 4.19202,6.71265 3.31177,6.71985C 2.76978,6.71545 2.38696,6.67603 2.16309,6.60168C 1.93933,6.52747 1.80396,6.44495 1.7572,6.35461C 1.72083,6.29907 1.69507,6.20605 1.67993,6.07532C 1.66492,5.94458 1.65515,5.81909 1.65063,5.69922C 1.64563,5.60168 1.64258,5.36975 1.64136,5.00354C 1.64026,4.63733 1.63989,4.20667 1.64014,3.71155L 1.64014,0.6604 Z "/>
		<path fill="#FFFFFF" fill-opacity="1" stroke-width="0.2" stroke-linejoin="round" d="M 9.44006,4.32678C 9.44116,4.78052 9.43896,5.18042 9.43335,5.52649C 9.42786,5.87268 9.41223,6.1427 9.38672,6.33691C 9.36914,6.47424 9.34558,6.58569 9.31604,6.67151C 9.2865,6.75708 9.22827,6.80884 9.14136,6.82666C 9.04541,6.81055 8.94934,6.81055 8.85327,6.82666L 8.77869,6.87317C 8.78052,6.9635 8.8302,7.00403 8.92798,6.99475C 9.09351,6.99292 9.27466,6.9856 9.47156,6.97278C 9.5741,6.94751 9.66296,6.93213 9.73804,6.92651C 9.81299,6.92102 9.85718,6.9187 9.87061,6.91992C 9.99805,6.91626 10.2576,6.92346 10.6489,6.94116C 11.0396,6.99316 11.593,7.01819 12.3092,7.0166C 12.459,7.02161 12.5671,7.01147 12.6337,6.98645C 12.7003,6.96155 12.7478,6.89136 12.7761,6.77612C 12.8047,6.65747 12.8328,6.49341 12.8601,6.28381C 12.8875,6.07434 12.9021,5.94299 12.8401,5.7229C 12.792,5.72473 12.76,5.78052 12.7441,5.89014C 12.7175,6.07031 12.6719,6.20862 12.6072,6.30518C 12.5425,6.40186 12.4579,6.47534 12.3534,6.52612C 12.23,6.57275 12.077,6.60107 11.8943,6.61108C 11.7115,6.62122 11.5532,6.62524 11.4194,6.62317C 10.9602,6.6311 10.655,6.58569 10.5039,6.48706C 10.3525,6.38843 10.2781,6.18958 10.28,5.89014C 10.2754,5.76428 10.2742,5.52002 10.2761,5.15698C 10.2781,4.79407 10.2794,4.51721 10.28,4.32678L 10.28,3.56128L 10.3452,3.49658C 10.4602,3.49634 10.6885,3.49951 11.0302,3.50598C 11.3717,3.5127 11.6245,3.52393 11.7883,3.53979C 11.968,3.56226 12.0916,3.59814 12.1587,3.64758C 12.2258,3.69702 12.2651,3.75452 12.2766,3.82007C 12.3127,3.93701 12.3273,4.0376 12.3201,4.12207L 12.4133,4.03577C 12.4138,3.99426 12.4182,3.91016 12.4268,3.7832C 12.4352,3.65637 12.4449,3.5415 12.4561,3.43872C 12.4916,3.12854 12.5165,2.95422 12.5308,2.91577L 12.4774,2.8429L 12.3667,2.95752C 12.3008,3.03564 12.155,3.07715 11.9294,3.08228C 11.7755,3.09241 11.4974,3.09839 11.0952,3.10059C 10.6931,3.10278 10.4395,3.10364 10.3342,3.10315C 10.2891,3.10315 10.271,3.0719 10.28,3.00952L 10.28,0.603638L 10.3342,0.509888C 10.429,0.509888 10.6519,0.512451 11.0029,0.5177C 11.3541,0.522949 11.5906,0.530762 11.7124,0.541138C 11.9651,0.570557 12.1343,0.605225 12.2198,0.645264C 12.3055,0.685181 12.3545,0.740723 12.3667,0.812012C 12.3798,0.866699 12.3887,0.92395 12.3933,0.983643C 12.3981,1.04358 12.4004,1.09045 12.4,1.12427C 12.3956,1.19897 12.4178,1.2373 12.4667,1.23889C 12.5112,1.22852 12.5396,1.19727 12.552,1.14514C 12.563,1.06006 12.5731,0.946411 12.5828,0.804443C 12.5923,0.66272 12.5999,0.564453 12.6053,0.509888C 12.6409,0.272583 12.6658,0.130859 12.6801,0.0847168L 12.6375,0C 12.5947,0.00878906 12.552,0.0229492 12.5094,0.0422363C 12.4397,0.0773926 12.3151,0.102295 12.1356,0.116455C 11.9502,0.121582 11.5535,0.123047 10.9453,0.12085C 10.3372,0.118774 9.97888,0.11731 9.87061,0.116455C 9.8291,0.115723 9.6958,0.112061 9.47021,0.105957C 9.24475,0.0997314 9.01782,0.0961914 8.78931,0.0952148C 8.68628,0.0927734 8.63647,0.119141 8.64001,0.174438L 8.7146,0.255371C 8.76074,0.229004 8.81531,0.215088 8.87866,0.213623C 8.94202,0.212036 8.99402,0.2146 9.03467,0.221436C 9.18469,0.241821 9.28467,0.292236 9.33472,0.372803C 9.38477,0.453369 9.41272,0.570801 9.4187,0.724854C 9.42896,0.844849 9.43518,1.03088 9.43738,1.28333C 9.43958,1.53577 9.44043,2.00317 9.44006,2.6853L 9.44006,4.32678 Z "/>
		<path fill="#FFFFFF" fill-opacity="1" stroke-width="0.2" stroke-linejoin="round" d="M 17.3201,0.505127L 18.4656,0.526367C 18.8923,0.539185 19.1816,0.590942 19.3337,0.681274C 19.4858,0.771729 19.5645,0.887695 19.5693,1.02893L 19.5801,1.12524C 19.589,1.24292 19.6138,1.29639 19.6548,1.28577C 19.7046,1.28394 19.7329,1.24475 19.7401,1.16809C 19.7415,1.08569 19.7467,0.927856 19.7561,0.694458C 19.7654,0.461182 19.7708,0.265381 19.7721,0.107056L 19.7294,0C 19.6881,0.00341797 19.6001,0.0177002 19.4652,0.0426025C 19.3247,0.088501 19.106,0.111084 18.8092,0.110474L 15.3174,0.110474C 15.2566,0.11084 15.1541,0.107666 15.0093,0.101196C 14.8646,0.0947266 14.7219,0.0836182 14.5813,0.0678711C 14.4559,0.0679932 14.3625,0.057373 14.3013,0.036377C 14.24,0.0152588 14.1946,0.00305176 14.0693,0.170166C 14.0562,0.21936 14.021,0.369263 13.9639,0.619873C 13.9067,0.870605 13.8744,1.0354 13.8666,1.1145L 13.9307,1.18945C 13.9733,1.19836 14.0052,1.16992 14.0266,1.10376L 14.0732,0.995605C 14.0908,0.953369 14.125,0.893311 14.1759,0.815063C 14.2395,0.710083 14.3418,0.636475 14.4827,0.59436C 14.6235,0.552368 14.8378,0.529541 15.1252,0.526367L 16.4801,0.505127L 16.4801,4.32349C 16.481,4.76587 16.4792,5.15674 16.4747,5.49622C 16.4702,5.83557 16.4579,6.10071 16.4374,6.29175C 16.4238,6.42651 16.3976,6.53662 16.3588,6.62207C 16.3198,6.70728 16.2537,6.76123 16.16,6.78381C 16.0676,6.80872 15.9751,6.823 15.8827,6.82666L 15.8081,6.86963C 15.8044,6.9043 15.8542,6.92102 15.9574,6.91992L 18.0594,6.91992C 18.1602,6.91748 18.2087,6.90063 18.2052,6.86963L 18.1323,6.81592C 18.0863,6.81543 18.0221,6.81104 17.9397,6.80249C 17.8572,6.79407 17.7826,6.78418 17.7158,6.77307C 17.58,6.75098 17.4897,6.69885 17.4451,6.6167C 17.4004,6.53442 17.3726,6.42603 17.3617,6.29175C 17.3418,6.10071 17.3296,5.83557 17.3253,5.49622C 17.3209,5.15674 17.3192,4.76587 17.3201,4.32349L 17.3201,0.505127 Z "/>
		<path fill="#FFFFFF" fill-opacity="1" stroke-width="0.2" stroke-linejoin="round" d="M 20.4049,5.97632C 20.3193,6.20752 20.2185,6.39612 20.1023,6.54224C 19.9862,6.68848 19.824,6.776 19.616,6.8053C 19.5757,6.81079 19.5282,6.81567 19.4733,6.81995C 19.4185,6.82422 19.3735,6.82629 19.3386,6.82666L 19.2534,6.87317C 19.2551,6.9054 19.3156,6.92102 19.4346,6.91992L 21.226,6.91992C 21.3148,6.92102 21.361,6.9054 21.3645,6.87317L 21.2686,6.82666L 21.1833,6.82666C 21.1,6.82764 21.0266,6.80957 20.9634,6.77209C 20.9,6.73462 20.8667,6.67139 20.8634,6.58215C 20.8669,6.41211 20.9131,6.21008 21.002,5.97632L 21.5352,4.53088C 21.5564,4.47949 21.5884,4.45471 21.6311,4.45654L 23.7957,4.45654L 23.8809,4.50952L 24.7231,6.58215C 24.751,6.65601 24.7515,6.71265 24.6379,6.82666L 24.574,6.86646L 24.6713,6.89661C 24.7336,6.90063 24.8114,6.90405 24.9045,6.90649C 25.2422,6.91284 25.5531,6.91675 25.8374,6.91821C 26.1218,6.91956 26.3048,6.92017 26.3865,6.91992C 26.4421,6.92004 26.491,6.9165 26.5332,6.90894L 26.6001,6.87317L 26.4825,6.82666C 26.3794,6.83008 26.2551,6.8125 26.1094,6.77344C 26.0087,6.75488 25.8928,6.68311 25.7615,6.55823C 25.6301,6.43323 25.4796,6.17554 25.3096,5.78491C 24.9746,4.98022 24.5491,3.94592 24.0328,2.68188C 23.5166,1.41797 23.1923,0.632324 23.0598,0.325317C 23.0145,0.224609 22.9773,0.145264 22.9479,0.0878906C 22.9186,0.0302734 22.8813,0.000976563 22.8359,0L 22.744,0.0627441C 22.7126,0.108887 22.6687,0.203247 22.6121,0.346313L 20.4049,5.97632 Z M 21.759,4.06323L 21.7271,4.00024L 22.6013,1.55383C 22.6547,1.41724 22.708,1.41724 22.7614,1.55383L 23.689,4.00024L 23.657,4.06323L 21.759,4.06323 Z "/>
		<path fill="#FFFFFF" fill-opacity="1" stroke-width="0.2" stroke-linejoin="round" d="M 28.7334,2.69983C 28.7332,2.01367 28.7336,1.54358 28.7347,1.28967C 28.7358,1.03577 28.739,0.848633 28.7441,0.728027C 28.7512,0.56897 28.777,0.450806 28.8214,0.373779C 28.8658,0.296875 28.9503,0.246094 29.0747,0.22168C 29.1743,0.203613 29.2526,0.196289 29.3842,0.15332C 29.3877,0.121094 29.3379,0.105469 29.2347,0.106567L 27.3601,0.106567C 27.257,0.105469 27.2072,0.121094 27.2107,0.15332L 27.2854,0.199829C 27.3601,0.199951 27.4561,0.210693 27.5734,0.232422C 27.7637,0.262939 27.8632,0.428223 27.8721,0.728027C 27.8823,0.848633 27.8885,1.03577 27.8907,1.28967C 27.8929,1.54358 27.8938,2.01367 27.8934,2.69983L 27.8934,4.31604C 27.8938,4.76172 27.8903,5.1554 27.8828,5.49719C 27.8752,5.83911 27.861,6.1062 27.8401,6.29858C 27.8271,6.43384 27.8049,6.54309 27.7734,6.62598C 27.7418,6.70874 27.6823,6.76123 27.5947,6.78345C 27.4988,6.80859 27.4027,6.823 27.3066,6.82666L 27.2321,6.87317C 27.2339,6.9054 27.2836,6.92102 27.3813,6.91992L 29.4695,6.91992C 29.5725,6.9176 29.6223,6.9021 29.6188,6.87317L 29.5442,6.82666C 29.4977,6.82617 29.4332,6.82153 29.3508,6.81311C 29.2683,6.80444 29.1906,6.79468 29.1174,6.78345C 28.9839,6.76123 28.8962,6.70874 28.8547,6.62598C 28.8132,6.54309 28.787,6.43384 28.7761,6.29858C 28.7556,6.1062 28.7432,5.83911 28.7388,5.49719C 28.7344,5.1554 28.7325,4.76172 28.7334,4.31604L 28.7334,2.69983 Z "/>
		<path fill="#FFFFFF" fill-opacity="1" stroke-width="0.2" stroke-linejoin="round" d="M 32.6267,2.71069C 32.6265,2.02441 32.627,1.5542 32.6281,1.30029C 32.6292,1.04639 32.6323,0.859009 32.6375,0.738403C 32.644,0.578735 32.6707,0.458984 32.7174,0.378662C 32.764,0.298584 32.8547,0.246094 32.9894,0.221191C 33.0449,0.215454 33.1018,0.210571 33.1602,0.206543C 33.2183,0.202271 33.2645,0.200195 33.3734,0.15686C 33.3716,0.12207 33.3219,0.105469 33.2241,0.106567L 31.136,0.106567C 31.033,0.105469 30.9832,0.122192 31.0613,0.210205C 31.1074,0.210571 31.162,0.212891 31.2253,0.217041C 31.2887,0.221313 31.3407,0.226196 31.3813,0.231934C 31.5314,0.252197 31.6313,0.302979 31.6814,0.384033C 31.7314,0.465088 31.7594,0.583252 31.7654,0.738403C 31.7756,0.859009 31.7819,1.04639 31.7841,1.30029C 31.7863,1.5542 31.7871,2.02441 31.7867,2.71069L 31.7867,4.32739C 31.7878,4.78467 31.7856,5.18579 31.78,5.53149C 31.7745,5.87708 31.7589,6.14624 31.7334,6.33936C 31.7158,6.47534 31.6923,6.58496 31.6627,6.66821C 31.6332,6.75146 31.575,6.8042 31.488,6.82666C 31.3921,6.81592 31.296,6.81592 31.2,6.82666L 31.1254,6.87317C 31.1272,6.9635 31.1769,7.00403 31.2747,6.99475C 31.4348,6.99292 31.616,6.9856 31.8182,6.97278C 32.0125,6.92871 32.1384,6.91113 32.1963,6.91992C 32.4585,6.92163 32.7975,6.92883 33.2134,6.94116C 33.6401,6.99854 34.1841,7.02368 34.8455,7.0166C 35.0857,7.01978 35.24,7.00513 35.3082,6.97278C 35.3765,6.94055 35.4214,6.87134 35.4429,6.76526C 35.4813,6.61438 35.5138,6.43958 35.5403,6.24084C 35.5667,6.04211 35.5804,5.91089 35.5815,5.84717C 35.5815,5.75208 35.5603,5.70532 35.5176,5.70715C 35.4642,5.71436 35.4323,5.75391 35.4216,5.82568C 35.3895,6.01965 35.3149,6.19214 35.1975,6.34302C 35.0831,6.47266 34.928,6.55298 34.7322,6.58411C 34.5364,6.61536 34.3146,6.62842 34.0668,6.62317C 33.7021,6.62366 33.4208,6.60657 33.2228,6.57202C 33.0248,6.53735 32.8901,6.48267 32.8187,6.40771C 32.7361,6.33545 32.6827,6.14038 32.6587,5.82288C 32.6348,5.50549 32.624,5.01416 32.6267,4.34912L 32.6267,2.71069 Z "/>
	</g>
</svg>