<?xml version="1.0" encoding="UTF-8"?>
<!DOCTYPE svg PUBLIC "-//W3C//DTD SVG 1.1//EN" "http://www.w3.org/Graphics/SVG/1.1/DTD/svg11.dtd">
<svg xmlns="http://www.w3.org/2000/svg" xmlns:xlink="http://www.w3.org/1999/xlink" version="1.1" baseProfile="full" xml:space="preserve" preserveAspectRatio="none slice" height="7" width="88" viewBox="0 0 88.00 7.00" enable-background="new 0 0 88.00 7.00">
	<g>
		<path fill="#FFFFFF" fill-opacity="1" stroke-width="0.2" stroke-linejoin="round" d="M 7.57141,0.245239C 7.54663,0.0782471 7.50037,-0.00341797 7.43286,0C 7.37238,0.00708008 7.32263,0.0568848 7.28351,0.149414L 4.55353,5.76172L 1.71692,0.138794C 1.65826,0.0391846 1.5943,-0.00708008 1.52496,0C 1.46808,0.00537109 1.4325,0.0587158 1.41827,0.159912L 0.73584,6.07043C 0.721313,6.24634 0.694214,6.40295 0.654541,6.54028C 0.614746,6.67773 0.520996,6.76245 0.373169,6.79456C 0.24884,6.81592 0.156372,6.82666 0.0959473,6.82666L 0,6.86646C 0.00537109,6.9043 0.0586548,6.92212 0.159973,6.91992L 1.82355,6.91992C 1.93372,6.92212 1.9906,6.9043 1.91949,6.82666C 1.84668,6.83008 1.72583,6.81226 1.55695,6.77319C 1.41296,6.74133 1.33838,6.65625 1.33301,6.5177C 1.33118,6.35986 1.33478,6.20715 1.34363,6.05981L 1.70618,1.97046L 1.7489,1.97046C 1.85132,2.20044 2.03571,2.58704 2.30206,3.12988C 2.56848,3.67285 2.78223,4.10986 2.94324,4.44104C 3.07629,4.71484 3.25812,5.06982 3.48853,5.50598C 3.71887,5.94214 3.9032,6.28662 4.04163,6.53906C 4.12897,6.69189 4.19434,6.79224 4.23761,6.84058L 4.36157,6.90649C 4.4007,6.91223 4.44244,6.88745 4.48688,6.83264C 4.53131,6.77759 4.59973,6.65845 4.6922,6.4751L 6.95294,1.85327L 6.97424,1.85327L 7.42218,6.43262C 7.44531,6.6189 7.43103,6.72534 7.37952,6.75208L 7.36487,6.86157C 7.40063,6.87158 7.47302,6.87988 7.58215,6.88647C 7.78473,6.89673 8.06738,6.90479 8.42993,6.91077C 8.79254,6.91663 9.04309,6.91968 9.18176,6.91992C 9.29889,6.9187 9.36279,6.901 9.37335,6.86646L 9.29907,6.82666C 9.24841,6.82837 9.16846,6.82483 9.05914,6.81592C 8.94977,6.80713 8.82715,6.78223 8.69122,6.74133C 8.50525,6.66626 8.38123,6.53418 8.31934,6.34473C 8.25732,6.15527 8.22131,5.9751 8.2113,5.8042L 7.57141,0.245239 Z "/>
		<path fill="#FFFFFF" fill-opacity="1" stroke-width="0.2" stroke-linejoin="round" d="M 10.4849,5.97632C 10.3993,6.20752 10.2985,6.39612 10.1823,6.54224C 10.0662,6.68848 9.90393,6.776 9.69586,6.8053C 9.65564,6.81079 9.60815,6.81567 9.55322,6.81995C 9.49835,6.82422 9.45349,6.82629 9.41858,6.82666L 9.33331,6.87317C 9.33508,6.9054 9.39551,6.92102 9.51453,6.91992L 11.3059,6.91992C 11.3948,6.92102 11.4409,6.9054 11.4445,6.87317L 11.3485,6.82666L 11.2632,6.82666C 11.1799,6.82764 11.1066,6.80957 11.0433,6.77209C 10.98,6.73462 10.9467,6.67139 10.9434,6.58215C 10.9469,6.41211 10.993,6.21008 11.0819,5.97632L 11.6151,4.53088C 11.6364,4.47949 11.6683,4.45471 11.7111,4.45654L 13.8755,4.45654L 13.9608,4.50952L 14.8031,6.58215C 14.8309,6.65601 14.8314,6.71265 14.7178,6.82666L 14.6539,6.86646L 14.7512,6.89661C 14.8136,6.90063 14.8914,6.90405 14.9844,6.90649C 15.3221,6.91284 15.6331,6.91675 15.9174,6.91821C 16.2017,6.91956 16.3848,6.92017 16.4664,6.91992C 16.522,6.92004 16.5709,6.9165 16.6132,6.90894L 16.68,6.87317L 16.5625,6.82666C 16.4594,6.83008 16.335,6.8125 16.1893,6.77344C 16.0886,6.75488 15.9727,6.68311 15.8414,6.55823C 15.7101,6.43323 15.5596,6.17554 15.3895,5.78491C 15.0546,4.98022 14.629,3.94592 14.1128,2.68188C 13.5965,1.41797 13.2722,0.632324 13.1398,0.325317C 13.0945,0.224609 13.0572,0.145264 13.0278,0.0878906C 12.9985,0.0302734 12.9612,0.000976563 12.9159,0L 12.824,0.0627441C 12.7926,0.108887 12.7486,0.203247 12.692,0.346313L 10.4849,5.97632 Z M 11.839,4.06323L 11.807,4.00024L 12.6813,1.55383C 12.7346,1.41724 12.788,1.41724 12.8413,1.55383L 13.7689,4.00024L 13.7369,4.06323L 11.839,4.06323 Z "/>
		<path fill="#FFFFFF" fill-opacity="1" stroke-width="0.2" stroke-linejoin="round" d="M 18.491,7.0166C 18.75,7.01953 19.0109,6.99634 19.2737,6.94702C 19.5367,6.89795 19.7686,6.80542 19.9694,6.66956C 20.2982,6.45068 20.5269,6.21008 20.6554,5.94751C 20.7839,5.68506 20.8455,5.42212 20.8399,5.15918C 20.8472,4.78613 20.7344,4.43127 20.5018,4.09473C 20.2692,3.75806 19.8735,3.40332 19.3147,3.0304L 19.0507,2.85376C 18.6013,2.55859 18.2876,2.30286 18.1095,2.08667C 17.9315,1.87061 17.8461,1.62793 17.8533,1.35852C 17.8624,1.04602 17.9835,0.809082 18.2166,0.647217C 18.4495,0.485474 18.739,0.404053 19.0852,0.40332C 19.4952,0.414795 19.7915,0.474609 19.9742,0.582275C 20.157,0.690063 20.2613,0.775635 20.2872,0.839355C 20.3157,0.891846 20.344,0.963135 20.3723,1.05347C 20.4006,1.14368 20.4183,1.21753 20.4254,1.27539C 20.4272,1.34985 20.4556,1.38782 20.5105,1.38965C 20.5671,1.32373 20.5919,1.22974 20.5848,1.10803C 20.599,0.508423 20.6132,0.19458 20.6274,0.166626C 20.6327,0.121582 20.6008,0.101563 20.5317,0.106567C 20.4751,0.11377 20.3652,0.0993652 20.2023,0.0639648C 20.0881,0.0632324 19.9466,0.0548096 19.7776,0.0383301C 19.6085,0.0219727 19.4304,0.0123291 19.243,0.0098877C 18.6248,0.0158691 18.136,0.169678 17.7769,0.471313C 17.4177,0.772949 17.2343,1.18628 17.2266,1.71155C 17.219,2.01221 17.3113,2.31165 17.5035,2.60986C 17.6957,2.90784 18.0333,3.2384 18.5166,3.60156L 18.9377,3.91309C 19.3458,4.20093 19.6432,4.45313 19.8301,4.66968C 20.0171,4.88623 20.1092,5.14624 20.1066,5.44983C 20.106,5.78955 19.9888,6.06812 19.7551,6.28577C 19.5215,6.50342 19.1754,6.61584 18.7166,6.62317C 18.3903,6.62708 18.0851,6.56213 17.8011,6.42847C 17.5172,6.29492 17.3318,6.06897 17.2449,5.75098C 17.2186,5.61768 17.208,5.51038 17.2133,5.42896C 17.2115,5.35803 17.1849,5.32349 17.1333,5.3252C 17.085,5.3269 17.0616,5.37549 17.0633,5.4707C 17.0568,5.5459 17.0472,5.66528 17.0345,5.82886C 17.0218,5.99231 17.0147,6.18457 17.0132,6.40527C 17.0112,6.52075 17.0179,6.59973 17.0333,6.64221C 17.0486,6.68469 17.0853,6.72083 17.1433,6.75049C 17.337,6.84766 17.5545,6.9165 17.7959,6.95728C 18.0372,6.99805 18.2689,7.0177 18.491,7.0166 Z "/>
		<path fill="#FFFFFF" fill-opacity="1" stroke-width="0.2" stroke-linejoin="round" d="M 25.5333,0.505127L 26.6788,0.526367C 27.1055,0.539185 27.3949,0.590942 27.547,0.681274C 27.6991,0.771729 27.7776,0.887695 27.7826,1.02893L 27.7933,1.12524C 27.8022,1.24292 27.827,1.29639 27.868,1.28577C 27.9178,1.28394 27.9462,1.24475 27.9534,1.16809C 27.9547,1.08569 27.96,0.927856 27.9693,0.694458C 27.9786,0.461182 27.9839,0.265381 27.9854,0.107056L 27.9426,0C 27.9014,0.00341797 27.8133,0.0177002 27.6785,0.0426025C 27.5379,0.088501 27.3192,0.111084 27.0225,0.110474L 23.5306,0.110474C 23.4698,0.11084 23.3672,0.107666 23.2225,0.101196C 23.0779,0.0947266 22.9352,0.0836182 22.7945,0.0678711C 22.6692,0.0679932 22.5758,0.057373 22.5145,0.036377C 22.4532,0.0152588 22.4078,0.00305176 22.2825,0.170166C 22.2693,0.21936 22.2343,0.369263 22.1771,0.619873C 22.12,0.870605 22.0876,1.0354 22.0798,1.1145L 22.1439,1.18945C 22.1865,1.19836 22.2185,1.16992 22.2398,1.10376L 22.2865,0.995605C 22.304,0.953369 22.3383,0.893311 22.3892,0.815063C 22.4527,0.710083 22.555,0.636475 22.6959,0.59436C 22.8367,0.552368 23.051,0.529541 23.3385,0.526367L 24.6934,0.505127L 24.6934,4.32349C 24.6942,4.76587 24.6924,5.15674 24.688,5.49622C 24.6835,5.83557 24.6711,6.10071 24.6506,6.29175C 24.6371,6.42651 24.6108,6.53662 24.572,6.62207C 24.5331,6.70728 24.4669,6.76123 24.3733,6.78381C 24.2808,6.80872 24.1884,6.823 24.0959,6.82666L 24.0213,6.86963C 24.0177,6.9043 24.0675,6.92102 24.1707,6.91992L 26.2727,6.91992C 26.3734,6.91748 26.4219,6.90063 26.4185,6.86963L 26.3455,6.81592C 26.2996,6.81543 26.2354,6.81104 26.1529,6.80249C 26.0704,6.79407 25.9958,6.78418 25.929,6.77307C 25.7932,6.75098 25.7029,6.69885 25.6583,6.6167C 25.6136,6.53442 25.5858,6.42603 25.575,6.29175C 25.555,6.10071 25.5428,5.83557 25.5386,5.49622C 25.5342,5.15674 25.5325,4.76587 25.5333,4.32349L 25.5333,0.505127 Z "/>
		<path fill="#FFFFFF" fill-opacity="1" stroke-width="0.2" stroke-linejoin="round" d="M 30.0267,4.32678C 30.0277,4.78052 30.0255,5.18042 30.02,5.52649C 30.0145,5.87268 29.9988,6.1427 29.9733,6.33691C 29.9558,6.47424 29.9322,6.58569 29.9026,6.67151C 29.8731,6.75708 29.8148,6.80884 29.7279,6.82666C 29.632,6.81055 29.5359,6.81055 29.4399,6.82666L 29.3653,6.87317C 29.3671,6.9635 29.4168,7.00403 29.5146,6.99475C 29.6801,6.99292 29.8612,6.9856 30.0582,6.97278C 30.1607,6.94751 30.2496,6.93213 30.3246,6.92651C 30.3997,6.92102 30.4438,6.9187 30.4572,6.91992C 30.5846,6.91626 30.8441,6.92346 31.2356,6.94116C 31.6262,6.99316 32.1797,7.01819 32.8958,7.0166C 33.0455,7.02161 33.1537,7.01147 33.2203,6.98645C 33.2869,6.96155 33.3344,6.89136 33.3627,6.77612C 33.3914,6.65747 33.4193,6.49341 33.4467,6.28381C 33.474,6.07434 33.4886,5.94299 33.4266,5.7229C 33.3787,5.72473 33.3467,5.78052 33.3307,5.89014C 33.3042,6.07031 33.2585,6.20862 33.1938,6.30518C 33.1292,6.40186 33.0445,6.47534 32.94,6.52612C 32.8167,6.57275 32.6636,6.60107 32.4808,6.61108C 32.2982,6.62122 32.1399,6.62524 32.006,6.62317C 31.5469,6.6311 31.2417,6.58569 31.0905,6.48706C 30.9392,6.38843 30.8646,6.18958 30.8667,5.89014C 30.8621,5.76428 30.8607,5.52002 30.8627,5.15698C 30.8646,4.79407 30.866,4.51721 30.8667,4.32678L 30.8667,3.56128L 30.9318,3.49658C 31.0469,3.49634 31.2751,3.49951 31.6168,3.50598C 31.9583,3.5127 32.2111,3.52393 32.375,3.53979C 32.5547,3.56226 32.6781,3.59814 32.7452,3.64758C 32.8124,3.69702 32.8518,3.75452 32.8633,3.82007C 32.8994,3.93701 32.9139,4.0376 32.9066,4.12207L 33,4.03577C 33.0005,3.99426 33.0049,3.91016 33.0133,3.7832C 33.0218,3.65637 33.0316,3.5415 33.0426,3.43872C 33.0782,3.12854 33.1031,2.9541 33.1173,2.91577L 33.064,2.8429L 32.9534,2.95752C 32.8873,3.03564 32.7416,3.07715 32.516,3.08228C 32.3621,3.09241 32.084,3.09839 31.6819,3.10059C 31.2797,3.10278 31.026,3.10364 30.9209,3.10315C 30.8757,3.10315 30.8577,3.0719 30.8667,3.00952L 30.8667,0.603638L 30.9209,0.509888C 31.0156,0.509888 31.2385,0.512451 31.5896,0.5177C 31.9407,0.522949 32.1771,0.530762 32.2991,0.541138C 32.5516,0.570557 32.7208,0.605469 32.8065,0.645264C 32.8922,0.685181 32.9412,0.740723 32.9534,0.812012C 32.9664,0.866699 32.9752,0.92395 32.98,0.983643C 32.9847,1.04358 32.9869,1.09045 32.9866,1.12427C 32.9822,1.19897 33.0045,1.2373 33.0533,1.23889C 33.0978,1.22852 33.1262,1.19727 33.1387,1.14514C 33.1495,1.06006 33.1597,0.946411 33.1693,0.804443C 33.1788,0.66272 33.1864,0.564453 33.192,0.509888C 33.2275,0.272583 33.2524,0.130859 33.2667,0.0847168L 33.224,0C 33.1813,0.00878906 33.1387,0.0229492 33.096,0.0422363C 33.0262,0.0773926 32.9017,0.102295 32.7222,0.116455C 32.5369,0.121582 32.14,0.123047 31.5319,0.12085C 30.9238,0.118774 30.5655,0.11731 30.4572,0.116455C 30.4158,0.115723 30.2823,0.112061 30.0569,0.105957C 29.8314,0.0997314 29.6044,0.0961914 29.376,0.0952148C 29.2728,0.0927734 29.223,0.119141 29.2266,0.174438L 29.3013,0.255371C 29.3473,0.229004 29.4019,0.215088 29.4653,0.213623C 29.5286,0.212036 29.5806,0.2146 29.6213,0.221436C 29.7713,0.241821 29.8713,0.292236 29.9213,0.372803C 29.9713,0.453369 29.9993,0.570801 30.0054,0.724854C 30.0155,0.844849 30.0218,1.03088 30.024,1.28333C 30.0262,1.53577 30.0271,2.00317 30.0267,2.6853L 30.0267,4.32678 Z "/>
		<path fill="#FFFFFF" fill-opacity="1" stroke-width="0.2" stroke-linejoin="round" d="M 35.7966,4.30005C 35.7977,4.74854 35.7955,5.14478 35.7899,5.48877C 35.7844,5.83276 35.7689,6.10168 35.7432,6.29517C 35.7257,6.4314 35.7021,6.54126 35.6726,6.62463C 35.6431,6.70801 35.5848,6.76086 35.4979,6.7832C 35.4019,6.80859 35.3059,6.82288 35.2098,6.82666L 35.1353,6.87317C 35.137,6.9054 35.1868,6.92102 35.2845,6.91992L 37.3746,6.91992C 37.4778,6.9176 37.5276,6.9021 37.524,6.87317L 37.4493,6.82666C 37.4026,6.82617 37.3385,6.82153 37.2571,6.81299C 37.1758,6.80444 37.101,6.79456 37.033,6.7832C 36.8933,6.76086 36.799,6.70801 36.7501,6.62463C 36.7012,6.54126 36.6709,6.4314 36.6593,6.29517C 36.6388,6.10217 36.6263,5.83508 36.6219,5.49426C 36.6175,5.15332 36.6157,4.75891 36.6166,4.31104L 36.6166,4.09399C 36.6166,4.04211 36.6379,4.01721 36.6807,4.01953L 37.8763,4.03979C 37.9297,4.03625 37.9724,4.05432 38.0044,4.09399C 38.1107,4.22803 38.2557,4.42102 38.4393,4.67285C 38.623,4.9248 38.816,5.17993 39.0181,5.4386C 39.2752,5.78516 39.5013,6.0708 39.6966,6.29517C 39.8917,6.51978 40.088,6.68604 40.2853,6.79407C 40.3964,6.83984 40.5262,6.87231 40.6746,6.89172C 40.8231,6.91113 41.0276,6.92041 41.288,6.91992L 41.8748,6.91992C 42.0347,6.92102 42.1094,6.9054 42.0988,6.87317L 42.0134,6.82666C 41.9672,6.83203 41.8569,6.82104 41.6827,6.79407C 41.5679,6.78564 41.4269,6.73999 41.26,6.65723C 41.0931,6.57422 40.8856,6.40649 40.6373,6.1543C 40.3656,5.86401 40.0677,5.51733 39.7438,5.11389C 39.4198,4.71057 39.0677,4.26733 38.6876,3.7843C 39.1139,3.41528 39.412,3.06262 39.5818,2.72607C 39.7517,2.3894 39.8333,2.05481 39.8267,1.72192C 39.8143,1.40649 39.7365,1.14368 39.593,0.933228C 39.4495,0.722778 39.3138,0.574341 39.1861,0.487549C 38.9373,0.327393 38.6597,0.222656 38.3536,0.17334C 38.0475,0.124146 37.7425,0.101807 37.4386,0.106567L 35.1459,0.106567C 35.0428,0.104736 34.993,0.128662 35.0712,0.249634C 35.1172,0.226074 35.1719,0.213623 35.2352,0.212646C 35.2986,0.21167 35.3506,0.214478 35.3912,0.221191C 35.5413,0.241699 35.6412,0.292236 35.6912,0.373291C 35.7413,0.454346 35.7693,0.572388 35.7753,0.727539C 35.7855,0.848145 35.7917,1.03528 35.7939,1.28906C 35.7961,1.54297 35.797,2.01282 35.7966,2.69897L 35.7966,4.30005 Z M 36.6166,0.572754C 36.6202,0.52124 36.6451,0.48584 36.6913,0.466431C 36.744,0.454834 36.8335,0.443359 36.9595,0.431763C 37.0857,0.42041 37.2205,0.414063 37.3639,0.413208C 37.8705,0.416748 38.2664,0.571899 38.5516,0.878662C 38.8367,1.18555 38.9817,1.62268 38.9866,2.19019C 38.983,2.53723 38.9288,2.82764 38.8238,3.06152C 38.7188,3.29541 38.5845,3.46606 38.4207,3.57349C 38.3074,3.64551 38.1899,3.69067 38.0685,3.70923C 37.947,3.72778 37.8296,3.73596 37.7162,3.73315C 37.4996,3.73206 37.2923,3.71838 37.0943,3.69202C 36.8964,3.66565 36.7585,3.6333 36.6807,3.59485C 36.6379,3.56653 36.6166,3.52747 36.6166,3.47778L 36.6166,0.572754 Z "/>
		<path fill="#FFFFFF" fill-opacity="1" stroke-width="0.2" stroke-linejoin="round" d="M 46.8197,1.15942C 46.6655,0.784424 46.5804,0.53186 46.5645,0.4021C 46.5521,0.338135 46.5875,0.28479 46.6709,0.242188C 46.7737,0.212036 46.8871,0.197998 47.0111,0.199829L 47.1068,0.146606C 47.1068,0.119873 47.0218,0.106567 46.8516,0.106567L 44.8845,0.106567C 44.7286,0.103149 44.647,0.116455 44.64,0.146606L 44.7144,0.199829C 44.7434,0.199219 44.7916,0.200439 44.8593,0.203857C 44.9268,0.207153 44.999,0.216309 45.0759,0.231445C 45.2245,0.260498 45.3446,0.31958 45.4361,0.408813C 45.5276,0.498047 45.6238,0.666504 45.7245,0.914185L 48.0213,6.4718C 48.1083,6.68628 48.1761,6.8335 48.2247,6.91321C 48.2732,6.99292 48.3223,7.03076 48.3721,7.02649C 48.4149,7.03223 48.4623,6.98633 48.5144,6.88928C 48.5665,6.79211 48.6537,6.61035 48.7762,6.34387C 48.8834,6.11584 49.0385,5.76636 49.2415,5.2959C 49.4443,4.8252 49.6898,4.25708 49.9778,3.5918C 50.2239,3.02014 50.4441,2.50452 50.6383,2.04492C 50.8326,1.58545 50.9598,1.2832 51.0198,1.13818C 51.1405,0.838135 51.242,0.632813 51.3242,0.522095C 51.4064,0.411377 51.4786,0.339478 51.5408,0.306152C 51.6299,0.255127 51.7176,0.224243 51.804,0.213135C 51.8904,0.202148 51.9515,0.197754 51.9874,0.199829L 52.0933,0.146606C 52.0917,0.119873 52.0422,0.106567 51.9449,0.106567L 50.2968,0.106567C 50.1514,0.105469 50.0806,0.121094 50.0841,0.15332L 50.1904,0.199829C 50.2968,0.19458 50.4031,0.2052 50.5094,0.231445C 50.5999,0.27417 50.6423,0.338135 50.637,0.423462C 50.6299,0.505371 50.6016,0.619141 50.552,0.764771C 50.4155,1.18018 50.1302,1.93628 49.696,3.03296C 49.2618,4.12964 48.8914,5.0271 48.5848,5.72522L 46.8197,1.15942 Z "/>
		<path fill="#FFFFFF" fill-opacity="1" stroke-width="0.2" stroke-linejoin="round" d="M 52.4266,3.47021C 52.4183,4.32385 52.7034,5.11646 53.2817,5.84839C 53.8601,6.5802 54.7819,6.96973 56.047,7.0166C 57.1824,6.98828 58.0836,6.62476 58.7503,5.92627C 59.4171,5.22754 59.7581,4.36304 59.7733,3.33313C 59.751,2.28076 59.4003,1.46411 58.7213,0.883545C 58.0421,0.302856 57.1683,0.00830078 56.0999,0C 54.8233,0.0541992 53.89,0.451904 53.3002,1.19336C 52.7103,1.93457 52.4192,2.69348 52.4266,3.47021 Z M 53.3733,3.22766C 53.3876,2.25244 53.639,1.52173 54.1276,1.03564C 54.6161,0.549316 55.2559,0.306274 56.047,0.306641C 56.8055,0.308716 57.4524,0.586426 57.9877,1.13965C 58.5229,1.69287 58.8026,2.50842 58.8267,3.58618C 58.774,4.84766 58.4591,5.67822 57.882,6.07739C 57.3048,6.47681 56.7813,6.65881 56.3112,6.62317C 55.4537,6.6123 54.754,6.30725 54.2122,5.7085C 53.6703,5.1095 53.3907,4.28271 53.3733,3.22766 Z "/>
		<path fill="#FFFFFF" fill-opacity="1" stroke-width="0.2" stroke-linejoin="round" d="M 62.7067,2.71069C 62.7064,2.02441 62.7068,1.5542 62.708,1.30029C 62.7091,1.04639 62.7122,0.859009 62.7173,0.738403C 62.724,0.578735 62.7506,0.458984 62.7974,0.378662C 62.844,0.298584 62.9346,0.246094 63.0693,0.221191C 63.1249,0.215454 63.1818,0.210571 63.2401,0.206543C 63.2982,0.202271 63.3445,0.200195 63.4534,0.15686C 63.4515,0.12207 63.4019,0.105469 63.304,0.106567L 61.2159,0.106567C 61.1129,0.105469 61.063,0.12207 61.1412,0.210205C 61.1873,0.210571 61.2419,0.212891 61.3053,0.217041C 61.3687,0.221313 61.4207,0.226196 61.4613,0.231934C 61.6113,0.252197 61.7113,0.302979 61.7613,0.384033C 61.8113,0.465088 61.8394,0.583252 61.8453,0.738403C 61.8555,0.859009 61.8618,1.04639 61.864,1.30029C 61.8662,1.5542 61.8671,2.02441 61.8667,2.71069L 61.8667,4.32739C 61.8677,4.78467 61.8655,5.18579 61.86,5.53149C 61.8545,5.87708 61.8389,6.14624 61.8133,6.33936C 61.7958,6.47534 61.7722,6.58496 61.7427,6.66821C 61.7131,6.75146 61.6548,6.8042 61.5679,6.82666C 61.472,6.81592 61.376,6.81592 61.2799,6.82666L 61.2053,6.87317C 61.2071,6.9635 61.2568,7.00403 61.3546,6.99475C 61.5147,6.99292 61.6959,6.9856 61.8982,6.97278C 62.0924,6.92871 62.2184,6.91113 62.2762,6.91992C 62.5384,6.92163 62.8774,6.92883 63.2933,6.94116C 63.72,6.99854 64.264,7.02368 64.9254,7.0166C 65.1656,7.01978 65.3199,7.00513 65.3882,6.97278C 65.4564,6.94055 65.5013,6.87134 65.5228,6.76526C 65.5613,6.61438 65.5938,6.43958 65.6202,6.24084C 65.6466,6.04211 65.6604,5.91089 65.6615,5.84717C 65.6615,5.75208 65.6402,5.70532 65.5975,5.70715C 65.5442,5.71436 65.5122,5.75391 65.5015,5.82568C 65.4695,6.01965 65.3948,6.19214 65.2775,6.34302C 65.1631,6.47266 65.0079,6.55298 64.8121,6.58411C 64.6163,6.61536 64.3945,6.62842 64.1467,6.62317C 63.782,6.62366 63.5007,6.60657 63.3027,6.57202C 63.1047,6.53735 62.97,6.48267 62.8987,6.40771C 62.816,6.33545 62.7627,6.14038 62.7386,5.82288C 62.7147,5.50549 62.704,5.01416 62.7067,4.34912L 62.7067,2.71069 Z "/>
		<path fill="#FFFFFF" fill-opacity="1" stroke-width="0.2" stroke-linejoin="round" d="M 67.0933,3.99023C 67.0987,4.63831 67.1751,5.14429 67.3226,5.50842C 67.47,5.87256 67.6566,6.15552 67.8821,6.35791C 68.2403,6.6637 68.6176,6.85303 69.0139,6.92578C 69.4102,6.99866 69.6982,7.02893 69.8779,7.0166C 70.1665,7.02588 70.4851,6.98755 70.8338,6.90198C 71.1824,6.81653 71.5338,6.62805 71.888,6.33655C 72.24,6.0061 72.4714,5.59729 72.5822,5.11035C 72.693,4.62329 72.7434,4.12952 72.7333,3.62915L 72.7333,2.66321C 72.7325,1.98694 72.7317,1.52393 72.7308,1.27368C 72.7301,1.02356 72.7344,0.838989 72.744,0.720215C 72.7511,0.572754 72.7769,0.459106 72.8214,0.37915C 72.8658,0.299316 72.9503,0.246704 73.0747,0.221313C 73.1796,0.203369 73.2578,0.196289 73.3094,0.199829L 73.384,0.15332C 73.3876,0.121094 73.3378,0.105469 73.2347,0.106567L 71.451,0.106567C 71.3455,0.105469 71.2944,0.121094 71.2981,0.15332L 71.3746,0.199829C 71.4217,0.200195 71.4777,0.202271 71.5425,0.206665C 71.6074,0.210938 71.6606,0.21582 71.7023,0.221313C 71.8561,0.242676 71.9581,0.29541 72.0082,0.37915C 72.0582,0.463013 72.0837,0.57666 72.0846,0.720215C 72.0903,0.838989 72.0953,1.02356 72.0997,1.27368C 72.1041,1.52393 72.1064,1.98694 72.1067,2.66321L 72.1067,3.79907C 72.1119,4.26184 72.0768,4.67676 72.0015,5.04395C 71.926,5.41113 71.7789,5.72522 71.5603,5.98633C 71.3918,6.17993 71.177,6.33398 70.9158,6.448C 70.6544,6.56213 70.374,6.62061 70.0745,6.62317C 69.8053,6.62866 69.5572,6.59912 69.3303,6.5343C 69.1034,6.46948 68.8744,6.33643 68.6434,6.13489C 68.4322,5.96655 68.262,5.71655 68.1327,5.38501C 68.0034,5.05347 67.937,4.56738 67.9333,3.92651L 67.9333,2.66321C 67.9329,1.98694 67.9338,1.52393 67.9361,1.27368C 67.9384,1.02356 67.9447,0.838989 67.9552,0.720215C 67.9627,0.572021 67.9886,0.457031 68.033,0.375122C 68.0774,0.293457 68.1607,0.241943 68.283,0.221313C 68.3904,0.203369 68.4705,0.196289 68.5233,0.199829L 68.6107,0.15332C 68.6107,0.121094 68.556,0.105469 68.4468,0.106567L 66.4426,0.106567C 66.3395,0.105469 66.2897,0.121094 66.368,0.199829C 66.4139,0.200195 66.4686,0.202271 66.532,0.206665C 66.5953,0.210938 66.6473,0.21582 66.688,0.221313C 66.838,0.242676 66.938,0.29541 66.988,0.37915C 67.038,0.463013 67.066,0.57666 67.072,0.720215C 67.0823,0.838989 67.0884,1.02356 67.0906,1.27368C 67.0929,1.52393 67.0938,1.98694 67.0933,2.66321L 67.0933,3.99023 Z "/>
		<path fill="#FFFFFF" fill-opacity="1" stroke-width="0.2" stroke-linejoin="round" d="M 81.438,0.245239C 81.4132,0.0782471 81.367,-0.00341797 81.2994,0C 81.239,0.00708008 81.1893,0.0568848 81.1501,0.149414L 78.4202,5.76172L 75.5836,0.138794C 75.5249,0.0391846 75.4609,-0.00708008 75.3916,0C 75.3347,0.00537109 75.2991,0.0587158 75.2849,0.159912L 74.6024,6.07043C 74.588,6.24634 74.5609,6.40295 74.5211,6.54028C 74.4813,6.67773 74.3876,6.76245 74.2398,6.79456C 74.1155,6.81592 74.023,6.82666 73.9625,6.82666L 73.8666,6.86646C 73.8719,6.9043 73.9253,6.92212 74.0266,6.91992L 75.6902,6.91992C 75.8004,6.92212 75.8572,6.9043 75.7861,6.82666C 75.7133,6.83008 75.5924,6.81226 75.4236,6.77319C 75.2796,6.74133 75.205,6.65625 75.1996,6.5177C 75.1978,6.35986 75.2014,6.20715 75.2103,6.05981L 75.5728,1.97046L 75.6155,1.97046C 75.7179,2.20044 75.9023,2.58704 76.1687,3.12988C 76.4351,3.67285 76.6488,4.10986 76.8099,4.44104C 76.9429,4.71484 77.1248,5.06982 77.3551,5.50598C 77.5855,5.94214 77.7698,6.28662 77.9083,6.53906C 77.9956,6.69189 78.0609,6.79224 78.1042,6.84058L 78.2281,6.90649C 78.2673,6.91223 78.3091,6.88745 78.3535,6.83264C 78.3979,6.77759 78.4664,6.65845 78.5588,6.4751L 80.8196,1.85327L 80.8409,1.85327L 81.2888,6.43262C 81.3119,6.6189 81.2977,6.72534 81.2462,6.75208L 81.2315,6.86157C 81.2672,6.87158 81.3397,6.87988 81.4488,6.88647C 81.6514,6.89673 81.934,6.90479 82.2965,6.91077C 82.6592,6.91663 82.9097,6.91968 83.0484,6.91992C 83.1655,6.9187 83.2294,6.901 83.24,6.86646L 83.1656,6.82666C 83.1151,6.82837 83.035,6.82483 82.9258,6.81592C 82.8164,6.80713 82.6937,6.78223 82.5579,6.74133C 82.3719,6.66626 82.2479,6.53418 82.1859,6.34473C 82.1239,6.15527 82.088,5.9751 82.0779,5.8042L 81.438,0.245239 Z "/>
		<path fill="#FFFFFF" fill-opacity="1" stroke-width="0.2" stroke-linejoin="round" d="M 84.96,4.32678C 84.9611,4.78052 84.9589,5.18042 84.9534,5.52649C 84.9478,5.87268 84.9322,6.1427 84.9066,6.33691C 84.8892,6.47424 84.8655,6.58569 84.836,6.67151C 84.8065,6.75708 84.7482,6.80884 84.6613,6.82666C 84.5653,6.81055 84.4693,6.81055 84.3733,6.82666L 84.2986,6.87317C 84.3004,6.9635 84.3502,7.00403 84.448,6.99475C 84.6134,6.99292 84.7946,6.9856 84.9915,6.97278C 85.0941,6.94751 85.1829,6.93213 85.2579,6.92651C 85.333,6.92102 85.3772,6.9187 85.3905,6.91992C 85.5179,6.91626 85.7775,6.92346 86.1689,6.94116C 86.5596,6.99316 87.113,7.01819 87.8292,7.0166C 87.9789,7.02161 88.087,7.01147 88.1536,6.98645C 88.2203,6.96155 88.2677,6.89136 88.296,6.77612C 88.3247,6.65747 88.3527,6.49341 88.38,6.28381C 88.4073,6.07434 88.422,5.94299 88.36,5.7229C 88.312,5.72473 88.28,5.78052 88.264,5.89014C 88.2375,6.07031 88.1919,6.20862 88.1272,6.30518C 88.0625,6.40186 87.9778,6.47534 87.8734,6.52612C 87.75,6.57275 87.597,6.60107 87.4142,6.61108C 87.2315,6.62122 87.0732,6.62524 86.9393,6.62317C 86.4802,6.6311 86.175,6.58569 86.0238,6.48706C 85.8726,6.38843 85.798,6.18958 85.8,5.89014C 85.7954,5.76428 85.7941,5.52002 85.796,5.15698C 85.798,4.79407 85.7994,4.51721 85.8,4.32678L 85.8,3.56128L 85.8651,3.49658C 85.9802,3.49634 86.2085,3.49951 86.5501,3.50598C 86.8917,3.5127 87.1444,3.52393 87.3083,3.53979C 87.488,3.56226 87.6115,3.59814 87.6786,3.64758C 87.7457,3.69702 87.7852,3.75452 87.7966,3.82007C 87.8328,3.93701 87.8472,4.0376 87.84,4.12207L 87.9333,4.03577C 87.9338,3.99426 87.9382,3.91016 87.9467,3.7832C 87.9551,3.65637 87.9649,3.5415 87.976,3.43872C 88.0115,3.12854 88.0364,2.9541 88.0507,2.91577L 87.9974,2.8429L 87.8867,2.95752C 87.8207,3.03564 87.6749,3.07715 87.4493,3.08228C 87.2955,3.09241 87.0174,3.09839 86.6152,3.10059C 86.213,3.10278 85.9594,3.10364 85.8542,3.10315C 85.8091,3.10315 85.791,3.0719 85.8,3.00952L 85.8,0.603638L 85.8542,0.509888C 85.949,0.509888 86.1719,0.512451 86.5229,0.5177C 86.8741,0.522949 87.1105,0.530762 87.2324,0.541138C 87.485,0.570557 87.6542,0.605469 87.7398,0.645264C 87.8255,0.685181 87.8745,0.740723 87.8867,0.812012C 87.8997,0.866699 87.9086,0.92395 87.9133,0.983643C 87.918,1.04358 87.9203,1.09045 87.92,1.12427C 87.9156,1.19897 87.9378,1.2373 87.9866,1.23889C 88.0311,1.22852 88.0596,1.19727 88.072,1.14514C 88.0829,1.06006 88.0931,0.946411 88.1027,0.804443C 88.1122,0.66272 88.1198,0.564453 88.1253,0.509888C 88.1609,0.272583 88.1858,0.130859 88.2,0.0847168L 88.1573,0C 88.1146,0.00878906 88.072,0.0229492 88.0294,0.0422363C 87.9596,0.0773926 87.835,0.102295 87.6556,0.116455C 87.4702,0.121582 87.0734,0.123047 86.4652,0.12085C 85.8572,0.118774 85.4988,0.11731 85.3905,0.116455C 85.3491,0.115723 85.2157,0.112061 84.9902,0.105957C 84.7647,0.0997314 84.5377,0.0961914 84.3093,0.0952148C 84.2062,0.0927734 84.1564,0.119141 84.16,0.174438L 84.2346,0.255371C 84.2806,0.229004 84.3353,0.215088 84.3987,0.213623C 84.462,0.212036 84.514,0.2146 84.5547,0.221436C 84.7047,0.241821 84.8047,0.292236 84.8546,0.372803C 84.9047,0.453369 84.9327,0.570801 84.9387,0.724854C 84.9489,0.844849 84.9551,1.03088 84.9573,1.28333C 84.9595,1.53577 84.9604,2.00317 84.96,2.6853L 84.96,4.32678 Z "/>
	</g>
</svg>