<?xml version="1.0" encoding="UTF-8"?>
<!DOCTYPE svg PUBLIC "-//W3C//DTD SVG 1.1//EN" "http://www.w3.org/Graphics/SVG/1.1/DTD/svg11.dtd">
<svg xmlns="http://www.w3.org/2000/svg" xmlns:xlink="http://www.w3.org/1999/xlink" version="1.1" baseProfile="full" width="25.3776" height="7.27124" viewBox="0 0 25.38 7.27" enable-background="new 0 0 25.38 7.27" xml:space="preserve" preserveAspectRatio="none slice">
	<g>
		<path fill="#FFFFFF" fill-opacity="1" stroke-width="0.2" stroke-linejoin="round" d="M 7.51318,0.252258L 8.13916,5.98352C 8.20117,6.55518 8.36865,6.88477 8.64209,6.97223C 8.82275,7.02863 9.0249,7.05682 9.24854,7.05682L 9.32471,7.10352C 9.32471,7.15894 9.25928,7.18665 9.12744,7.18665C 8.54932,7.18665 8.02979,7.16815 7.56885,7.13123C 7.39502,7.11859 7.30762,7.08746 7.30762,7.0379L 7.37354,6.97223C 7.42285,6.95959 7.43555,6.84778 7.41113,6.63684L 6.9624,1.81995L 6.93408,1.81995L 4.64795,6.67328C 4.50488,6.97858 4.41748,7.14044 4.33984,7.16766C 4.29639,7.16766 4.19971,7.02472 4.05127,6.73889L 2.95898,4.5733C 2.90967,4.46735 2.70264,4.02545 2.33838,3.24768C 1.97412,2.46991 1.77051,2.02509 1.72656,1.91327L 1.68896,1.91327L 1.31543,6.24457C 1.30957,6.34369 1.30664,6.5022 1.30664,6.71997C 1.30664,6.789 1.33008,6.85144 1.37646,6.90735C 1.42334,6.96326 1.48096,6.9975 1.54883,7.01019C 1.68018,7.04126 1.79834,7.05682 1.90479,7.05682L 1.979,7.10352C 1.979,7.15894 1.92334,7.18665 1.81104,7.18665C 1.67432,7.18665 1.49365,7.18372 1.26904,7.17786L 0.941895,7.15894C 0.930176,7.15894 0.821777,7.16351 0.616211,7.17279C 0.410645,7.18201 0.258301,7.18665 0.158691,7.18665C 0.0532227,7.18665 0,7.15894 0,7.10352L 0.0932617,7.05682C 0.186523,7.05682 0.279785,7.04712 0.373535,7.02765C 0.448242,7.01599 0.509277,6.98828 0.555664,6.94452C 0.602051,6.90082 0.638184,6.83368 0.662598,6.74329C 0.6875,6.65289 0.70459,6.58142 0.713867,6.52893C 0.723145,6.47644 0.733887,6.38452 0.746582,6.2533L 1.41895,0.167664C 1.43164,0.0558472 1.46533,-6.10352e-005 1.521,-6.10352e-005C 1.5708,-6.10352e-005 1.61719,0.0466309 1.66113,0.139954L 4.51807,6.01123L 7.26123,0.150146C 7.30469,0.0500488 7.35156,-6.10352e-005 7.40088,-6.10352e-005C 7.45752,-6.10352e-005 7.49463,0.0840454 7.51318,0.252258 Z "/>
		<path fill="#FFFFFF" fill-opacity="1" stroke-width="0.2" stroke-linejoin="round" d="M 11.7788,2.83789L 11.7788,4.47998C 11.7788,5.56885 11.7944,6.24408 11.8257,6.50555C 11.8442,6.66113 11.8765,6.78094 11.9233,6.86505C 11.9697,6.94916 12.0581,7.00043 12.1885,7.01892C 12.3638,7.04419 12.5034,7.05682 12.6089,7.05682L 12.6841,7.11224C 12.6841,7.1618 12.6343,7.18665 12.5342,7.18665C 12.3853,7.18665 12.2192,7.18518 12.0356,7.18225C 11.8516,7.17932 11.6987,7.17474 11.5776,7.1684C 11.4561,7.16205 11.3921,7.15894 11.3862,7.15894C 11.3804,7.15894 11.3198,7.16205 11.2051,7.1684C 11.0898,7.17474 10.959,7.17932 10.8125,7.18225C 10.6665,7.18518 10.5527,7.18665 10.4722,7.18665C 10.3721,7.18665 10.3218,7.1618 10.3218,7.11224L 10.3979,7.05682C 10.4717,7.05682 10.5649,7.04419 10.6777,7.01892C 10.814,6.99365 10.9038,6.82251 10.9478,6.50555C 10.9785,6.24408 10.9941,5.56885 10.9941,4.47998L 10.9941,2.83789C 10.9941,1.69257 10.9878,1.02032 10.9751,0.820984C 10.9565,0.516663 10.8511,0.342651 10.6587,0.298889C 10.5654,0.273621 10.4688,0.260986 10.3687,0.260986L 10.2944,0.205566C 10.2944,0.156006 10.3442,0.131226 10.4443,0.131226C 10.5376,0.131226 10.6592,0.13269 10.8081,0.135559C 10.9575,0.138489 11.0898,0.143127 11.2051,0.149414C 11.3198,0.155762 11.3804,0.158936 11.3862,0.158936C 11.3921,0.158936 11.4526,0.155762 11.5679,0.149414C 11.6831,0.143127 11.814,0.138489 11.9604,0.135559C 12.1069,0.13269 12.2202,0.131226 12.3008,0.131226C 12.4009,0.131226 12.4512,0.156006 12.4512,0.205566L 12.3755,0.260986C 12.3325,0.260986 12.2544,0.270691 12.1421,0.290161C 12.0176,0.314453 11.9321,0.367188 11.8853,0.448364C 11.8384,0.529602 11.8091,0.653748 11.7979,0.820984C 11.7852,1.02032 11.7788,1.69257 11.7788,2.83789 Z "/>
		<path fill="#FFFFFF" fill-opacity="1" stroke-width="0.2" stroke-linejoin="round" d="M 15.1011,4.47998L 15.1011,2.83789C 15.1011,1.69257 15.0942,1.02032 15.082,0.820984C 15.0703,0.653748 15.0376,0.53125 14.9849,0.453491C 14.9321,0.375732 14.8306,0.321289 14.6812,0.290161C 14.606,0.270691 14.5005,0.260986 14.3643,0.260986L 14.2886,0.205566C 14.2886,0.156006 14.3384,0.131226 14.439,0.131226C 14.563,0.131226 14.7095,0.13269 14.877,0.135559C 15.0444,0.138489 15.188,0.143127 15.3066,0.149414C 15.4253,0.155762 15.4873,0.158936 15.4932,0.158936L 15.96,0.139954C 16.2651,0.134094 16.5298,0.131226 16.7534,0.131226C 16.79,0.131226 16.8491,0.131226 16.9312,0.131226C 17.2046,0.131226 17.4219,0.13269 17.5835,0.135559C 17.7456,0.138489 17.979,0.158691 18.2837,0.196106C 18.5884,0.233521 18.853,0.286499 19.0771,0.355042C 19.3013,0.423584 19.5439,0.529358 19.8052,0.672241C 20.0669,0.815186 20.2969,0.989197 20.4951,1.19434C 21.0991,1.82336 21.4009,2.61377 21.4009,3.56555C 21.4009,4.61072 21.0649,5.48816 20.3931,6.19788C 19.7085,6.91345 18.7661,7.27118 17.5654,7.27118C 17.2358,7.27118 16.8032,7.25226 16.2676,7.21436C 16.1558,7.2085 16.0361,7.20099 15.9087,7.19171C 15.7817,7.1825 15.6836,7.17474 15.6147,7.1684L 15.4932,7.15894C 15.3745,7.15894 15.25,7.1618 15.1196,7.16766C 15.0518,7.16766 14.9556,7.17084 14.8311,7.17712C 14.7065,7.18347 14.6226,7.18665 14.5786,7.18665C 14.4785,7.18665 14.4287,7.1618 14.4287,7.11224L 14.5044,7.05682C 14.5786,7.05682 14.6714,7.04419 14.7847,7.01892C 14.9204,6.99365 15.0103,6.82251 15.0542,6.50555C 15.0854,6.24408 15.1011,5.56885 15.1011,4.47998 Z M 15.8853,2.68768L 15.8853,3.84558C 15.8853,4.95978 15.8921,5.63495 15.9043,5.87122C 15.9229,6.26886 15.957,6.50507 16.0063,6.57996C 16.1748,6.82886 16.7036,6.95331 17.5933,6.95331C 18.4956,6.95331 19.2358,6.66406 19.814,6.08557C 20.0503,5.85516 20.2339,5.53625 20.3647,5.12891C 20.4956,4.72156 20.561,4.29669 20.561,3.85431C 20.561,2.91516 20.2622,2.13153 19.6655,1.50348C 19.2671,1.07959 18.8232,0.797668 18.3345,0.657654C 17.8462,0.517639 17.2725,0.447693 16.6133,0.447693C 16.2964,0.447693 16.0942,0.469543 16.0063,0.513306C 15.9316,0.544373 15.894,0.606628 15.894,0.699951C 15.8882,0.911926 15.8853,1.57446 15.8853,2.68768 Z "/>
		<path fill="#FFFFFF" fill-opacity="1" stroke-width="0.2" stroke-linejoin="round" d="M 24.4722,2.83789L 24.4722,4.47998C 24.4722,5.56885 24.4878,6.24408 24.519,6.50555C 24.5376,6.66113 24.5698,6.78094 24.6167,6.86505C 24.6631,6.94916 24.7515,7.00043 24.8818,7.01892C 25.0571,7.04419 25.1968,7.05682 25.3022,7.05682L 25.3774,7.11224C 25.3774,7.1618 25.3276,7.18665 25.2275,7.18665C 25.0786,7.18665 24.9126,7.18518 24.729,7.18225C 24.5449,7.17932 24.3921,7.17474 24.271,7.1684C 24.1494,7.16205 24.0854,7.15894 24.0796,7.15894C 24.0737,7.15894 24.0132,7.16205 23.8984,7.1684C 23.7832,7.17474 23.6523,7.17932 23.5059,7.18225C 23.3599,7.18518 23.2461,7.18665 23.1655,7.18665C 23.0654,7.18665 23.0151,7.1618 23.0151,7.11224L 23.0913,7.05682C 23.165,7.05682 23.2583,7.04419 23.3711,7.01892C 23.5073,6.99365 23.5972,6.82251 23.6411,6.50555C 23.6719,6.24408 23.6875,5.56885 23.6875,4.47998L 23.6875,2.83789C 23.6875,1.69257 23.6812,1.02032 23.6685,0.820984C 23.6499,0.516663 23.5444,0.342651 23.3521,0.298889C 23.2588,0.273621 23.1621,0.260986 23.062,0.260986L 22.9878,0.205566C 22.9878,0.156006 23.0376,0.131226 23.1377,0.131226C 23.231,0.131226 23.3525,0.13269 23.5015,0.135559C 23.6509,0.138489 23.7832,0.143127 23.8984,0.149414C 24.0132,0.155762 24.0737,0.158936 24.0796,0.158936C 24.0854,0.158936 24.146,0.155762 24.2612,0.149414C 24.3765,0.143127 24.5073,0.138489 24.6538,0.135559C 24.8003,0.13269 24.9136,0.131226 24.9941,0.131226C 25.0942,0.131226 25.1445,0.156006 25.1445,0.205566L 25.0688,0.260986C 25.0259,0.260986 24.9478,0.270691 24.8354,0.290161C 24.7109,0.314453 24.6255,0.367188 24.5786,0.448364C 24.5317,0.529602 24.5024,0.653748 24.4912,0.820984C 24.4785,1.02032 24.4722,1.69257 24.4722,2.83789 Z "/>
	</g>
</svg>