<?xml version="1.0" encoding="UTF-8"?>
<!DOCTYPE svg PUBLIC "-//W3C//DTD SVG 1.1//EN" "http://www.w3.org/Graphics/SVG/1.1/DTD/svg11.dtd">
<svg xmlns="http://www.w3.org/2000/svg" xmlns:xlink="http://www.w3.org/1999/xlink" version="1.1" baseProfile="full" width="140.771" height="20.9084" viewBox="0 0 140.77 20.91" enable-background="new 0 0 140.77 20.91" xml:space="preserve" preserveAspectRatio="none slice">
	<g>
		<linearGradient id="SVGID_Fill1_" gradientUnits="objectBoundingBox" x1="8.54634" y1="-0.727319" x2="10.3175" y2="-0.727319" gradientTransform="rotate(89.429710 8.546345 -0.727319)">
			<stop offset="0" stop-color="#E8E8A8" stop-opacity="1"/>
			<stop offset="0.409524" stop-color="#BDA86C" stop-opacity="1"/>
			<stop offset="1" stop-color="#936831" stop-opacity="1"/>
		</linearGradient>
		<path fill="url(#SVGID_Fill1_)" stroke-width="0.2" stroke-linejoin="round" d="M 3.9707,20.9084C 2.56836,20.9084 1.37793,20.6682 0.400391,20.1876C 0.222656,20.0987 0.111328,20.0007 0.0673828,19.8937C 0.0224609,19.7868 0,19.5473 0,19.175C 0,18.7111 0.0444336,17.7681 0.133789,16.3459C 0.150391,16.0626 0.220703,15.9208 0.345703,15.9208C 0.470703,15.9208 0.533203,16.0181 0.533203,16.2126C 0.533203,16.6236 0.560059,16.9528 0.612793,17.2C 0.807617,18.1251 1.26904,18.8098 1.99805,19.2542C 2.72754,19.6987 3.58105,19.9208 4.55859,19.9208C 5.76709,19.9208 6.70459,19.5654 7.37109,18.8542C 8.03809,18.1431 8.37109,17.3167 8.37109,16.3751C 8.37109,15.4667 8.15381,14.684 7.71875,14.0272C 7.28418,13.3702 6.47949,12.5528 5.3042,11.575L 4.10449,10.5876C 2.771,9.50421 1.86035,8.51813 1.37109,7.62921C 0.882324,6.7403 0.637695,5.7973 0.637695,4.79999C 0.637695,3.36115 1.13574,2.20148 2.13184,1.32086C 3.12695,0.440369 4.46973,6.10352e-005 6.1582,6.10352e-005C 7.06396,6.10352e-005 7.89063,0.0889282 8.6377,0.266663C 9.06543,0.355652 9.37646,0.400085 9.57129,0.400085C 9.74902,0.400085 9.83789,0.462585 9.83789,0.587585L 9.8125,0.933411C 9.79297,1.16388 9.77539,1.5014 9.75879,1.94586C 9.7417,2.39032 9.73389,2.87921 9.73389,3.41254C 9.73389,3.82367 9.67139,4.02924 9.54639,4.02924C 9.4375,4.02924 9.3667,3.91254 9.3335,3.67926C 9.27832,3.12921 9.16162,2.68475 8.98389,2.34589C 8.46973,1.40424 7.35889,0.933411 5.65039,0.933411C 4.7085,0.933411 3.92676,1.2132 3.3042,1.77301C 2.68262,2.3327 2.37109,3.08478 2.37109,4.02924C 2.37109,4.79315 2.59326,5.48126 3.03809,6.09381C 3.48193,6.70624 4.34473,7.51117 5.625,8.50836L 6.37109,9.09589C 7.88232,10.2847 8.90918,11.3417 9.45264,12.2667C 9.99561,13.1917 10.2671,14.2237 10.2671,15.3625C 10.2671,16.0737 10.0933,16.8423 9.74609,17.6688C 9.39844,18.4952 8.81738,19.2015 8,19.7875C 6.93359,20.5347 5.59082,20.9084 3.9707,20.9084 Z "/>
		<linearGradient id="SVGID_Fill2_" gradientUnits="objectBoundingBox" x1="4.74549" y1="-1.0462" x2="6.8644" y2="-1.0462" gradientTransform="rotate(89.007019 4.745488 -1.046203)">
			<stop offset="0" stop-color="#E8E8A8" stop-opacity="1"/>
			<stop offset="0.409524" stop-color="#BDA86C" stop-opacity="1"/>
			<stop offset="1" stop-color="#936831" stop-opacity="1"/>
		</linearGradient>
		<path fill="url(#SVGID_Fill2_)" stroke-width="0.2" stroke-linejoin="round" d="M 21.8125,4.42926L 21.8125,13.9459C 21.8125,16.5959 21.8477,18.232 21.917,18.8542C 21.9727,19.2459 22.0527,19.5306 22.1592,19.7083C 22.2646,19.8862 22.4863,20.0014 22.8257,20.0543C 23.2534,20.1264 23.6089,20.1625 23.8921,20.1625C 24.0171,20.1625 24.0796,20.2243 24.0796,20.348C 24.0796,20.4716 23.9546,20.5334 23.7046,20.5334C 23.332,20.5334 22.915,20.5292 22.4526,20.5208C 21.9897,20.5125 21.603,20.4993 21.292,20.4813C 20.9814,20.4632 20.8164,20.4542 20.7983,20.4542C 20.7803,20.4542 20.6152,20.4632 20.3047,20.4813C 19.9937,20.4993 19.6426,20.5125 19.2529,20.5208C 18.8623,20.5292 18.5684,20.5334 18.3711,20.5334C 18.124,20.5334 18,20.4709 18,20.3459C 18,20.2403 18.0615,20.1876 18.1836,20.1876C 18.3613,20.1876 18.5933,20.1514 18.8799,20.0792C 19.252,19.9903 19.4824,19.582 19.5713,18.8542C 19.6436,18.232 19.6797,16.5959 19.6797,13.9459L 19.6797,4.42926L 16.292,4.47919C 15.5449,4.4986 15.0068,4.55695 14.6772,4.65424C 14.3486,4.7514 14.0947,4.93341 13.917,5.20001C 13.8838,5.25287 13.7598,5.4931 13.5464,5.92084C 13.5098,6.06256 13.4297,6.13336 13.3047,6.13336C 13.1987,6.13336 13.146,6.07086 13.146,5.94586C 13.146,5.85699 13.23,5.4306 13.3984,4.66669C 13.5664,3.90277 13.6504,3.51251 13.6504,3.49591C 13.7588,3.20978 13.8394,3.06671 13.8921,3.06671C 13.9277,3.06671 14.0483,3.10211 14.2529,3.17291C 14.4565,3.24384 14.6836,3.2973 14.9336,3.33331C 15.5195,3.40558 16.1323,3.44171 16.771,3.44171L 25.625,3.44171C 26.2476,3.44171 26.8076,3.40558 27.3047,3.33331C 27.3936,3.31671 27.4917,3.29938 27.5986,3.28131C 27.7051,3.26324 27.7852,3.25006 27.8379,3.24176C 27.8906,3.23334 27.9351,3.22919 27.9717,3.22919C 28.0439,3.22919 28.0796,3.31805 28.0796,3.49591C 28.0796,3.76251 28.0664,4.24652 28.04,4.94794C 28.0137,5.64935 28,6.02643 28,6.07916C 28,6.27643 27.9277,6.37506 27.7842,6.37506C 27.6777,6.37506 27.6172,6.24176 27.6006,5.97504L 27.5713,5.73334C 27.5186,5.34174 27.2964,5.03961 26.9043,4.82709C 26.5132,4.61456 25.7939,4.4986 24.7461,4.47919L 21.8125,4.42926 Z "/>
		<linearGradient id="SVGID_Fill3_" gradientUnits="objectBoundingBox" x1="2.87766" y1="-1.03408" x2="4.98382" y2="-1.03408" gradientTransform="rotate(88.785721 2.877658 -1.034077)">
			<stop offset="0" stop-color="#E8E8A8" stop-opacity="1"/>
			<stop offset="0.409524" stop-color="#BDA86C" stop-opacity="1"/>
			<stop offset="1" stop-color="#936831" stop-opacity="1"/>
		</linearGradient>
		<path fill="url(#SVGID_Fill3_)" stroke-width="0.2" stroke-linejoin="round" d="M 31.0132,18.0292L 36.5342,3.84174C 36.7646,3.25555 36.9507,2.96259 37.0918,2.96259C 37.1445,2.96259 37.1895,2.97089 37.2256,2.98749L 37.3315,3.10626C 37.3667,3.16876 37.3979,3.22223 37.4253,3.26666C 37.4531,3.3111 37.4893,3.39105 37.5342,3.50629C 37.5781,3.62152 37.6172,3.71527 37.6504,3.78754C 37.7754,4.05426 38.1982,5.08063 38.9194,6.86676C 39.6401,8.65277 40.4448,10.6396 41.3335,12.8271C 42.2227,15.0146 42.8711,16.5876 43.2793,17.5458C 43.5464,18.1682 43.8125,18.666 44.0796,19.0396C 44.3467,19.4133 44.5596,19.6535 44.7188,19.7604C 44.8789,19.8674 45.0659,19.957 45.2793,20.0292C 45.5625,20.1181 45.874,20.1625 46.2129,20.1625C 46.4072,20.1625 46.5049,20.2243 46.5049,20.348C 46.5049,20.4716 46.3271,20.5334 45.9717,20.5334C 44.5854,20.5334 43.3506,20.5153 42.2671,20.4792C 41.7144,20.4459 41.4375,20.3931 41.4375,20.3209C 41.4375,20.2681 41.4922,20.2153 41.6006,20.1625C 41.8672,20.0543 41.9375,19.8487 41.8125,19.5458L 39.7046,14.3459C 39.6689,14.257 39.5977,14.2126 39.4922,14.2126L 34.0796,14.2126C 33.9717,14.2126 33.8906,14.2751 33.8379,14.4001L 32.5049,18.0292C 32.2744,18.632 32.1592,19.1382 32.1592,19.5479C 32.1592,19.9577 32.4253,20.1625 32.9585,20.1625L 33.1714,20.1625C 33.332,20.1625 33.4131,20.2243 33.4131,20.348C 33.4131,20.4716 33.2979,20.5334 33.0674,20.5334C 32.853,20.5334 32.4663,20.5202 31.9063,20.4938C 31.3472,20.4673 31.0308,20.4542 30.9585,20.4542C 30.9424,20.4542 30.6357,20.4673 30.04,20.4938C 29.4443,20.5202 28.9585,20.5334 28.5835,20.5334C 28.2842,20.5334 28.1338,20.4716 28.1338,20.348C 28.1338,20.2243 28.2046,20.1625 28.3467,20.1625C 28.5601,20.1625 28.7905,20.1445 29.0381,20.1083C 29.5352,20.0556 29.9219,19.8598 30.1982,19.5208C 30.4746,19.1819 30.7461,18.6848 31.0132,18.0292 Z M 34.4004,13.2792L 39.146,13.2792C 39.2354,13.2792 39.2612,13.2264 39.2256,13.1209L 36.9043,6.90839C 36.7793,6.5528 36.646,6.5528 36.5049,6.90839L 34.3174,13.1209C 34.2842,13.2264 34.3115,13.2792 34.4004,13.2792 Z "/>
		<linearGradient id="SVGID_Fill4_" gradientUnits="objectBoundingBox" x1="1.39761" y1="-1.03656" x2="3.49678" y2="-1.03656" gradientTransform="rotate(88.756401 1.397605 -1.036561)">
			<stop offset="0" stop-color="#E8E8A8" stop-opacity="1"/>
			<stop offset="0.409524" stop-color="#BDA86C" stop-opacity="1"/>
			<stop offset="1" stop-color="#936831" stop-opacity="1"/>
		</linearGradient>
		<path fill="url(#SVGID_Fill4_)" stroke-width="0.2" stroke-linejoin="round" d="M 50.2129,6.74591L 50.48,17.4417C 50.4961,18.3668 50.5713,19.007 50.7046,19.3625C 50.8379,19.7181 51.0645,19.9404 51.3838,20.0292C 51.7397,20.1181 52.1309,20.1625 52.5586,20.1625C 52.6836,20.1625 52.7461,20.2243 52.7461,20.348C 52.7461,20.4716 52.603,20.5334 52.3174,20.5334C 51.9287,20.5334 51.5425,20.5292 51.1592,20.5208C 50.7754,20.5125 50.4688,20.4993 50.2378,20.4813C 50.0073,20.4632 49.874,20.4542 49.8379,20.4542L 49.0381,20.5084C 48.4878,20.5251 47.999,20.5334 47.5713,20.5334C 47.3242,20.5334 47.2007,20.4716 47.2007,20.348C 47.2007,20.2243 47.2617,20.1625 47.3838,20.1625C 47.7397,20.1625 48.0601,20.1181 48.3467,20.0292C 48.6299,19.957 48.8115,19.7341 48.8921,19.3604C 48.9727,18.9869 49.0132,18.2667 49.0132,17.2L 49.0132,4.21259C 49.0132,3.44867 49.1201,3.06671 49.334,3.06671C 49.4756,3.06671 49.7769,3.29865 50.2378,3.76251L 57.6504,11.4959L 63.2007,17.3333L 62.959,5.97504C 62.9424,5.21112 62.8804,4.68683 62.7734,4.40216C 62.667,4.11737 62.4351,3.9389 62.0796,3.86676C 61.7046,3.7973 61.3232,3.76251 60.9336,3.76251C 60.8086,3.76251 60.7461,3.69037 60.7461,3.54584C 60.7461,3.44037 60.8979,3.38751 61.2007,3.38751C 61.626,3.38751 62.1362,3.39655 62.7319,3.41461C 63.3276,3.43268 63.6338,3.44171 63.6504,3.44171C 63.6865,3.44171 63.9355,3.43268 64.3984,3.41461C 64.8608,3.39655 65.2783,3.38751 65.6504,3.38751C 65.9365,3.38751 66.0796,3.44037 66.0796,3.54584C 66.0796,3.69037 65.9912,3.76251 65.8135,3.76251C 65.6162,3.76251 65.4287,3.77924 65.251,3.81256C 64.8784,3.8847 64.6479,4.04999 64.5586,4.30841C 64.4702,4.56671 64.4253,5.05975 64.4253,5.78754L 64.3711,19.0667C 64.3711,19.4583 64.3711,19.7563 64.3711,19.9605C 64.3711,20.1646 64.3623,20.3244 64.3447,20.4396C 64.3262,20.5549 64.3042,20.6264 64.1836,20.6959C 64.0059,20.6959 63.4116,20.2333 62.4004,19.3084C 61.3867,18.4001 59.3506,16.3557 56.2925,13.175C 52.7534,9.47784 50.7266,7.33478 50.2129,6.74591 Z "/>
		<linearGradient id="SVGID_Fill5_" gradientUnits="objectBoundingBox" x1="0.121542" y1="-1.08449" x2="2.28305" y2="-1.08449" gradientTransform="rotate(89.589905 0.121542 -1.084487)">
			<stop offset="0" stop-color="#E8E8A8" stop-opacity="1"/>
			<stop offset="0.409524" stop-color="#BDA86C" stop-opacity="1"/>
			<stop offset="1" stop-color="#936831" stop-opacity="1"/>
		</linearGradient>
		<path fill="url(#SVGID_Fill5_)" stroke-width="0.2" stroke-linejoin="round" d="M 73.7593,9.94586L 73.7593,13.9459C 73.7593,16.5959 73.7949,18.232 73.8672,18.8542C 73.9004,19.1209 73.9355,19.3209 73.9717,19.4542C 74.0078,19.5876 74.0879,19.7119 74.2129,19.8271C 74.3379,19.9424 74.5068,20.0181 74.7178,20.0543C 75.1812,20.1264 75.5366,20.1625 75.7842,20.1625C 75.9092,20.1625 75.9717,20.2243 75.9717,20.348C 75.9717,20.4716 75.8477,20.5334 75.6011,20.5334C 75.209,20.5334 74.7822,20.5292 74.3198,20.5208C 73.8569,20.5125 73.4663,20.4986 73.1465,20.4792L 72.6675,20.4542C 72.6479,20.4542 72.4917,20.4632 72.1987,20.4813C 71.9058,20.4993 71.5771,20.5125 71.2129,20.5208C 70.8491,20.5292 70.5605,20.5334 70.3467,20.5334C 70.0967,20.5334 69.9717,20.4716 69.9717,20.348C 69.9717,20.2243 70.0342,20.1625 70.1592,20.1625C 70.3535,20.1625 70.5938,20.1264 70.8799,20.0543C 71.1992,19.982 71.4038,19.582 71.4922,18.8542C 71.5815,18.0709 71.626,16.4348 71.626,13.9459L 71.626,9.94586C 71.626,7.17365 71.6074,5.5473 71.5718,5.06671C 71.519,4.33893 71.2705,3.9306 70.8257,3.84174C 70.5596,3.78888 70.3193,3.76251 70.105,3.76251C 69.98,3.76251 69.9175,3.70001 69.9175,3.57501C 69.9175,3.45001 70.0425,3.38751 70.2925,3.38751C 70.5229,3.38751 70.8252,3.39166 71.1987,3.40009C 71.5723,3.40839 71.9058,3.41742 72.1987,3.42706C 72.4917,3.43683 72.6475,3.44171 72.6655,3.44171C 72.6836,3.44171 72.8389,3.43683 73.1323,3.42706C 73.4253,3.41742 73.7588,3.40839 74.1323,3.40009C 74.5054,3.39166 74.7998,3.38751 75.0132,3.38751C 75.2607,3.38751 75.3843,3.45001 75.3843,3.57501C 75.3843,3.70001 75.3232,3.76251 75.2007,3.76251C 74.9873,3.76251 74.791,3.77924 74.6133,3.81256C 74.3105,3.8847 74.1055,4.00555 73.999,4.17499C 73.8921,4.34442 73.8203,4.64166 73.7842,5.06671C 73.7676,5.5473 73.7593,7.17365 73.7593,9.94586 Z "/>
		<linearGradient id="SVGID_Fill6_" gradientUnits="objectBoundingBox" x1="-1.39802" y1="-1.02593" x2="0.683535" y2="-1.02593" gradientTransform="rotate(89.368042 -1.398023 -1.025927)">
			<stop offset="0" stop-color="#E8E8A8" stop-opacity="1"/>
			<stop offset="0.409524" stop-color="#BDA86C" stop-opacity="1"/>
			<stop offset="1" stop-color="#936831" stop-opacity="1"/>
		</linearGradient>
		<path fill="url(#SVGID_Fill6_)" stroke-width="0.2" stroke-linejoin="round" d="M 83.4668,20.8292C 82.0615,20.8292 80.9229,20.6236 80.0503,20.2126C 79.8921,20.1431 79.7949,20.059 79.7588,19.9605C 79.7227,19.8619 79.7046,19.6625 79.7046,19.3625C 79.7046,19.007 79.749,18.207 79.8379,16.9626C 79.8379,16.7126 79.9004,16.5876 80.0254,16.5876C 80.167,16.5876 80.2378,16.6765 80.2378,16.8542C 80.2378,17.1931 80.2646,17.4681 80.3174,17.6793C 80.4951,18.4459 80.9351,19.0112 81.6382,19.3751C 82.3408,19.739 83.1362,19.9208 84.0254,19.9208C 85.1445,19.9208 86.0112,19.6411 86.625,19.0812C 87.2393,18.5215 87.5464,17.7973 87.5464,16.9084C 87.5464,16.1445 87.3374,15.5091 86.9194,15.0021C 86.501,14.4952 85.7227,13.8154 84.5835,12.9626L 83.5171,12.1625C 82.292,11.2375 81.4258,10.4014 80.9194,9.65424C 80.4121,8.90692 80.1592,8.12506 80.1592,7.30841C 80.1592,5.99176 80.6343,4.95148 81.5859,4.18756C 82.5371,3.42365 83.7949,3.04169 85.3589,3.04169C 86.2314,3.04169 87.0391,3.13055 87.7842,3.30841C 88.0869,3.37787 88.3628,3.41254 88.6128,3.41254C 88.771,3.41254 88.8506,3.46674 88.8506,3.57501L 88.8257,3.86676C 88.8086,4.0639 88.791,4.34869 88.7734,4.72089C 88.7554,5.09308 88.7461,5.51117 88.7461,5.97504C 88.7461,6.3111 88.6836,6.47919 88.5586,6.47919C 88.4531,6.47919 88.3823,6.38202 88.3467,6.18756C 88.3101,5.77924 88.1948,5.40558 88,5.06671C 87.9116,4.92499 87.7822,4.78339 87.6128,4.64166C 87.4434,4.50006 87.1187,4.34869 86.6382,4.18756C 86.1572,4.02643 85.5977,3.94586 84.9585,3.94586C 84.0698,3.94586 83.3276,4.16388 82.7319,4.60004C 82.1357,5.03619 81.8379,5.63617 81.8379,6.40009C 81.8379,7.11115 82.0508,7.72919 82.4775,8.25421C 82.9038,8.77924 83.7046,9.44171 84.8799,10.2418L 85.5464,10.6959C 86.9487,11.6542 87.9395,12.5556 88.5171,13.4001C 89.0947,14.2444 89.3838,15.1653 89.3838,16.1625C 89.3838,17.7958 88.6558,19.0848 87.2007,20.0292C 86.3809,20.5626 85.1362,20.8292 83.4668,20.8292 Z "/>
		<linearGradient id="SVGID_Fill7_" gradientUnits="objectBoundingBox" x1="-2.45226" y1="-1.08107" x2="-0.300118" y2="-1.08107" gradientTransform="rotate(89.222000 -2.452257 -1.081070)">
			<stop offset="0" stop-color="#E8E8A8" stop-opacity="1"/>
			<stop offset="0.409524" stop-color="#BDA86C" stop-opacity="1"/>
			<stop offset="1" stop-color="#936831" stop-opacity="1"/>
		</linearGradient>
		<path fill="url(#SVGID_Fill7_)" stroke-width="0.2" stroke-linejoin="round" d="M 98.0254,9.94586L 98.0254,14.0001C 98.0254,15.7778 98.0566,17.0223 98.1191,17.7333C 98.1816,18.4445 98.3105,18.8986 98.5049,19.0959C 98.8608,19.4515 99.9004,19.6292 101.626,19.6292C 102.143,19.6292 102.539,19.6202 102.813,19.6021C 103.088,19.584 103.386,19.5215 103.705,19.4146C 104.024,19.3077 104.273,19.1473 104.451,18.9334C 104.737,18.5972 104.925,18.1708 105.013,17.6542C 105.05,17.4598 105.128,17.3625 105.251,17.3625C 105.359,17.3625 105.414,17.4778 105.414,17.7083C 105.414,18.4001 105.298,19.1556 105.067,19.975C 104.979,20.2418 104.858,20.4105 104.707,20.4813C 104.556,20.5521 104.177,20.5876 103.572,20.5876C 101.955,20.5876 100.595,20.5611 99.4922,20.5084C 98.0703,20.4722 97.2178,20.4542 96.9346,20.4542C 96.5952,20.4542 96.2744,20.4626 95.9717,20.4792C 95.333,20.5153 94.8799,20.5334 94.6133,20.5334C 94.3633,20.5334 94.2383,20.4716 94.2383,20.348C 94.2383,20.2243 94.3008,20.1625 94.4258,20.1625C 94.6201,20.1625 94.8608,20.1264 95.1465,20.0543C 95.2886,20.0181 95.3994,19.9382 95.48,19.8146C 95.5605,19.691 95.6143,19.5709 95.6401,19.4542C 95.667,19.3376 95.7065,19.1375 95.7593,18.8542C 95.8477,18.232 95.8926,16.5959 95.8926,13.9459L 95.8926,9.94586C 95.8926,7.17365 95.8745,5.5473 95.8379,5.06671C 95.8022,4.64166 95.7266,4.34027 95.6113,4.16254C 95.4961,3.9848 95.252,3.8681 94.8799,3.81256C 94.6299,3.77924 94.3633,3.76251 94.0801,3.76251C 93.9551,3.76251 93.8926,3.70001 93.8926,3.57501C 93.8926,3.45001 94.0176,3.38751 94.2676,3.38751C 94.5869,3.38751 94.9561,3.39166 95.374,3.40009C 95.792,3.40839 96.1514,3.41742 96.4526,3.42706C 96.7539,3.43683 96.9141,3.44171 96.9316,3.44171C 96.9502,3.44171 97.1279,3.43683 97.4658,3.42706C 97.8027,3.41742 98.1768,3.40839 98.5859,3.40009C 98.9961,3.39166 99.3062,3.38751 99.5176,3.38751C 99.7676,3.38751 99.8926,3.45001 99.8926,3.57501C 99.8926,3.6806 99.8301,3.73334 99.7051,3.73334C 99.5464,3.73334 99.29,3.7514 98.9346,3.78754C 98.5952,3.8598 98.3726,3.9848 98.2651,4.16254C 98.1582,4.34027 98.0869,4.64166 98.0508,5.06671C 98.0342,5.5473 98.0254,7.17365 98.0254,9.94586 Z "/>
		<linearGradient id="SVGID_Fill8_" gradientUnits="objectBoundingBox" x1="-2.29566" y1="-1.03408" x2="-0.1895" y2="-1.03408" gradientTransform="rotate(88.785728 -2.295662 -1.034077)">
			<stop offset="0" stop-color="#E8E8A8" stop-opacity="1"/>
			<stop offset="0.409524" stop-color="#BDA86C" stop-opacity="1"/>
			<stop offset="1" stop-color="#936831" stop-opacity="1"/>
		</linearGradient>
		<path fill="url(#SVGID_Fill8_)" stroke-width="0.2" stroke-linejoin="round" d="M 108.347,18.0292L 113.867,3.84174C 114.098,3.25555 114.284,2.96259 114.425,2.96259C 114.478,2.96259 114.523,2.97089 114.559,2.98749L 114.665,3.10626C 114.7,3.16876 114.731,3.22223 114.759,3.26666C 114.787,3.3111 114.822,3.39105 114.867,3.50629C 114.912,3.62152 114.951,3.71527 114.984,3.78754C 115.109,4.05426 115.531,5.08063 116.253,6.86676C 116.974,8.65277 117.778,10.6396 118.667,12.8271C 119.556,15.0146 120.205,16.5876 120.613,17.5458C 120.88,18.1682 121.146,18.666 121.413,19.0396C 121.68,19.4133 121.893,19.6535 122.052,19.7604C 122.212,19.8674 122.399,19.957 122.613,20.0292C 122.896,20.1181 123.207,20.1625 123.546,20.1625C 123.74,20.1625 123.838,20.2243 123.838,20.348C 123.838,20.4716 123.66,20.5334 123.305,20.5334C 121.919,20.5334 120.684,20.5153 119.601,20.4792C 119.048,20.4459 118.771,20.3931 118.771,20.3209C 118.771,20.2681 118.826,20.2153 118.934,20.1625C 119.201,20.0543 119.271,19.8487 119.146,19.5458L 117.038,14.3459C 117.002,14.257 116.931,14.2126 116.826,14.2126L 111.413,14.2126C 111.305,14.2126 111.224,14.2751 111.171,14.4001L 109.838,18.0292C 109.607,18.632 109.492,19.1382 109.492,19.5479C 109.492,19.9577 109.759,20.1625 110.292,20.1625L 110.505,20.1625C 110.666,20.1625 110.746,20.2243 110.746,20.348C 110.746,20.4716 110.631,20.5334 110.4,20.5334C 110.187,20.5334 109.8,20.5202 109.24,20.4938C 108.681,20.4673 108.364,20.4542 108.292,20.4542C 108.275,20.4542 107.969,20.4673 107.373,20.4938C 106.777,20.5202 106.292,20.5334 105.917,20.5334C 105.617,20.5334 105.467,20.4716 105.467,20.348C 105.467,20.2243 105.538,20.1625 105.68,20.1625C 105.894,20.1625 106.124,20.1445 106.371,20.1083C 106.869,20.0556 107.255,19.8598 107.531,19.5208C 107.808,19.1819 108.08,18.6848 108.347,18.0292 Z M 111.734,13.2792L 116.479,13.2792C 116.568,13.2792 116.595,13.2264 116.559,13.1209L 114.238,6.90839C 114.113,6.5528 113.979,6.5528 113.838,6.90839L 111.65,13.1209C 111.617,13.2264 111.645,13.2792 111.734,13.2792 Z "/>
		<linearGradient id="SVGID_Fill9_" gradientUnits="objectBoundingBox" x1="-3.56158" y1="-1.0661" x2="-1.43985" y2="-1.0661" gradientTransform="rotate(88.755775 -3.561584 -1.066097)">
			<stop offset="0" stop-color="#E8E8A8" stop-opacity="1"/>
			<stop offset="0.409524" stop-color="#BDA86C" stop-opacity="1"/>
			<stop offset="1" stop-color="#936831" stop-opacity="1"/>
		</linearGradient>
		<path fill="url(#SVGID_Fill9_)" stroke-width="0.2" stroke-linejoin="round" d="M 127.546,6.16254L 131.972,17.575C 132.646,16.0806 133.576,13.8444 134.759,10.8668C 135.942,7.88898 136.658,5.99176 136.905,5.17499C 137.046,4.71112 137.117,4.42645 137.117,4.32086C 137.117,4.07086 137.012,3.91119 136.801,3.84174C 136.623,3.78888 136.356,3.76251 136.001,3.76251C 135.823,3.76251 135.734,3.70001 135.734,3.57501C 135.734,3.45001 135.912,3.38751 136.267,3.38751C 136.64,3.38751 137.101,3.39655 137.652,3.41461C 138.204,3.43268 138.506,3.44171 138.559,3.44171C 138.595,3.44171 138.715,3.43683 138.919,3.42706C 139.124,3.41742 139.372,3.40839 139.666,3.40009C 139.958,3.39166 140.203,3.38751 140.4,3.38751C 140.648,3.38751 140.771,3.44037 140.771,3.54584C 140.771,3.69037 140.683,3.76251 140.505,3.76251C 140.044,3.76251 139.67,3.85138 139.384,4.02924C 138.939,4.31256 138.505,5.00555 138.08,6.10834L 135.468,12.2418C 133.601,16.5445 132.595,18.8376 132.451,19.1209C 131.953,20.1708 131.652,20.7307 131.438,20.8292C 131.313,20.8292 131.193,20.7403 131.078,20.5626C 130.962,20.3847 130.79,20.0112 130.559,19.4417L 124.801,5.54584C 124.551,4.92365 124.318,4.50629 124.105,4.29376C 123.891,4.08124 123.58,3.9306 123.171,3.84174C 122.924,3.78888 122.623,3.76251 122.267,3.76251C 122.142,3.76251 122.08,3.69037 122.08,3.54584C 122.08,3.44037 122.284,3.38751 122.692,3.38751C 123.137,3.38751 123.697,3.39655 124.371,3.41461C 125.046,3.43268 125.402,3.44171 125.438,3.44171C 125.458,3.44171 125.738,3.43268 126.28,3.41461C 126.822,3.39655 127.271,3.38751 127.626,3.38751C 128.054,3.38751 128.267,3.44037 128.267,3.54584C 128.267,3.69037 128.187,3.76251 128.025,3.76251C 127.653,3.76251 127.369,3.7973 127.171,3.86676C 126.994,3.9389 126.905,4.0722 126.905,4.26666C 126.905,4.40839 127.119,5.04034 127.546,6.16254 Z "/>
	</g>
</svg>